<?xml version="1.0" encoding="UTF-8" standalone="no" ?>
<!DOCTYPE sesx>
<sesx version="1.7">

  <session appBuild="12.1.5.3" appVersion="12.1" audioChannelType="stereo" bitDepth="32" duration="5822784" sampleRate="44100">
    <tracks>
      <audioTrack automationLaneOpenState="false" id="10012" index="1" select="false" visible="true">
        <trackParameters trackHeight="30" trackHue="160" trackMinimized="false">
          <name>トラック 12</name>
        </trackParameters>
        <trackAudioParameters audioChannelType="stereo" automationMode="1" monitoring="false" recordArmed="false" solo="false" soloSafe="false">
          <trackOutput outputID="10000" type="trackID"/>
          <trackInput inputID="1"/>
          <component componentGuid="195958ae-d548-4e9b-ae72-9b8159285834" componentID="Audition.Fader" id="trackFader" name="volume" powered="true">
            <parameter index="0" name="volume" parameterValue="0.100000001490116119384765625"/>
            <parameter index="1" name="static gain" parameterValue="1"/>
          </component>
          <component componentGuid="7b7149b7-5475-49e8-9ae3-f24b4ffea743" componentID="Audition.Mute" id="trackMute" name="Mute" powered="true">
            <parameter index="0" parameterValue="0"/>
            <parameter index="1" name="mute" parameterValue="0"/>
          </component>
          <component componentGuid="c51476c4-a1da-48f9-bd2a-c77e7c892e8a" componentID="Audition.StereoPanner" id="trackPan" name="StereoPanner" powered="true">
            <parameter index="0" name="パン" parameterValue="0"/>
          </component>
          <component componentGuid="3b756a77-a68b-4896-9b43-012aae7cb017" componentID="Audition.EQ" id="trackEQ" name="EQ" powered="false">
            <parameter index="0" name="ローシェルビング周波数" parameterValue="0.0009078529546968638896942138671875"/>
            <parameter index="1" name="ローシェルビングゲイン" parameterValue="0.5"/>
            <parameter index="2" name="ハイシェルビング周波数" parameterValue="0.816159784793853759765625"/>
            <parameter index="3" name="ハイシェルビングゲイン" parameterValue="0.5"/>
            <parameter index="4" name="EQ バンド 1 センター周波数" parameterValue="0.0013617794029414653778076171875"/>
            <parameter index="5" name="EQ バンド 1 Q" parameterValue="0.000199989997781813144683837890625"/>
            <parameter index="6" name="EQ バンド 1 ゲイン" parameterValue="0.5"/>
            <parameter index="7" name="EQ バンド 1 有効" parameterValue="1"/>
            <parameter index="8" name="EQ バンド 2 センター周波数" parameterValue="0.008170676417648792266845703125"/>
            <parameter index="9" name="EQ バンド 2 Q" parameterValue="0.000199989997781813144683837890625"/>
            <parameter index="10" name="EQ バンド 2 ゲイン" parameterValue="0.5"/>
            <parameter index="11" name="EQ バンド 2 有効" parameterValue="1"/>
            <parameter index="12" name="EQ バンド 3 センター周波数" parameterValue="0.0354062654078006744384765625"/>
            <parameter index="13" name="EQ バンド 3 Q" parameterValue="0.000199989997781813144683837890625"/>
            <parameter index="14" name="EQ バンド 3 ゲイン" parameterValue="0.5"/>
            <parameter index="15" name="EQ バンド 3 有効" parameterValue="1"/>
            <parameter index="16" name="EQ バンド 4 センター周波数" parameterValue="0.144348621368408203125"/>
            <parameter index="17" name="EQ バンド 4 Q" parameterValue="0.000199989997781813144683837890625"/>
            <parameter index="18" name="EQ バンド 4 ゲイン" parameterValue="0.5"/>
            <parameter index="19" name="EQ バンド 4 有効" parameterValue="1"/>
            <parameter index="20" name="EQ バンド 5 センター周波数" parameterValue="0.580118000507354736328125"/>
            <parameter index="21" name="EQ バンド 5 Q" parameterValue="0.000199989997781813144683837890625"/>
            <parameter index="22" name="EQ バンド 5 ゲイン" parameterValue="0.5"/>
            <parameter index="23" name="EQ バンド 5 有効" parameterValue="1"/>
            <parameter index="24" name="マスターゲイン" parameterValue="0.666666686534881591796875"/>
            <parameter index="25" name="ConstantQ" parameterValue="1"/>
            <parameter index="26" name="ローシェルビングフィルター次数" parameterValue="0"/>
            <parameter index="27" name="ハイシェルビングフィルター次数" parameterValue="0"/>
            <parameter index="28" name="ノイズレスモード" parameterValue="0"/>
            <parameter index="29" name="ローシェルビング有効" parameterValue="1"/>
            <parameter index="30" name="ハイシェルビング有効" parameterValue="1"/>
            <parameter index="31" name="オリジナルサンプルレート" parameterValue="0.22968749701976776123046875"/>
            <parameter index="32" name="EQ バンド 1 バンド幅" parameterValue="0.002499990165233612060546875"/>
            <parameter index="33" name="EQ バンド 2 バンド幅" parameterValue="0.0099999904632568359375"/>
            <parameter index="34" name="EQ バンド 3 バンド幅" parameterValue="0.0399999916553497314453125"/>
            <parameter index="35" name="EQ バンド 4 バンド幅" parameterValue="0.15999998152256011962890625"/>
            <parameter index="36" name="EQ バンド 5 バンド幅" parameterValue="0.63999998569488525390625"/>
            <parameter index="37" name="ハイパスフィルター有効" parameterValue="0"/>
            <parameter index="38" name="ハイパスカットオフ周波数" parameterValue="0"/>
            <parameter index="39" name="ハイパススロープ" parameterValue="0.4000000059604644775390625"/>
            <parameter index="40" name="ローパスフィルター有効" parameterValue="0"/>
            <parameter index="41" name="ローパスカットオフ周波数" parameterValue="0.906945049762725830078125"/>
            <parameter index="42" name="ローパススロープ" parameterValue="0.4000000059604644775390625"/>
            <parameter index="43" name="バイパス" parameterValue="0"/>
            <parameter index="44" name="LowGraphRange" parameterValue="1"/>
          </component>
        </trackAudioParameters>
        <editParameter parameterIndex="0" slotIndex="4294967280"/>
        <audioClip clipAutoCrossfade="true" crossFadeHeadClipID="-1" crossFadeTailClipID="-1" endPoint="441000" fileID="0" hue="-1" id="0" lockedInTime="false" looped="false" name="Brownnoise" offline="false" select="false" sourceInPoint="0" sourceOutPoint="441000" startPoint="0" zOrder="0">
          <component componentGuid="5fac6aa5-f421-409b-813f-5574e11033b1" componentID="Audition.Fader" id="clipGain" name="volume" powered="true">
            <parameter index="0" name="volume" parameterValue="1"/>
            <parameter index="1" name="static gain" parameterValue="1"/>
          </component>
          <component componentGuid="735113c1-0265-4020-ad9f-7fb5153e891c" componentID="Audition.Mute" id="clipMute" name="Mute" powered="true">
            <parameter index="0" parameterValue="0"/>
            <parameter index="1" name="mute" parameterValue="0"/>
          </component>
          <component componentGuid="c0251679-86e3-40e8-961b-813a067fdc95" componentID="Audition.StereoPanner" id="clipPan" name="StereoPanner" powered="true">
            <parameter index="0" name="パン" parameterValue="0"/>
          </component>
          <fadeIn crossFadeLinkType="linkedAsymmetric" endPoint="0" shape="0" startPoint="0" type="cosine"/>
          <fadeOut crossFadeLinkType="linkedAsymmetric" endPoint="441000" shape="0" startPoint="441000" type="cosine"/>
          <editParameter parameterIndex="0" slotIndex="4294967280"/>
          <editParameter parameterIndex="0" slotIndex="4294967281"/>
          <channelMap>
            <channel index="0" sourceIndex="0"/>
            <channel index="1" sourceIndex="1"/>
          </channelMap>
        </audioClip>
        <audioClip clipAutoCrossfade="true" crossFadeHeadClipID="-1" crossFadeTailClipID="-1" endPoint="882000" fileID="0" hue="-1" id="1" lockedInTime="false" looped="false" name="Brownnoise" offline="false" select="false" sourceInPoint="0" sourceOutPoint="441000" startPoint="441000" zOrder="1">
          <component componentGuid="31cc6495-334a-4fa1-9d76-8d4752047fcb" componentID="Audition.Fader" id="clipGain" name="volume" powered="true">
            <parameter index="0" name="volume" parameterValue="1"/>
            <parameter index="1" name="static gain" parameterValue="1"/>
          </component>
          <component componentGuid="7ec41cfa-a3f8-4c80-8f75-c586221e57fc" componentID="Audition.Mute" id="clipMute" name="Mute" powered="true">
            <parameter index="0" parameterValue="0"/>
            <parameter index="1" name="mute" parameterValue="0"/>
          </component>
          <component componentGuid="18cf2c09-62ea-48c6-835a-6c17dc8bcb83" componentID="Audition.StereoPanner" id="clipPan" name="StereoPanner" powered="true">
            <parameter index="0" name="パン" parameterValue="0"/>
          </component>
          <fadeIn crossFadeLinkType="linkedAsymmetric" endPoint="0" shape="0" startPoint="0" type="cosine"/>
          <fadeOut crossFadeLinkType="linkedAsymmetric" endPoint="441000" shape="0" startPoint="441000" type="cosine"/>
          <editParameter parameterIndex="0" slotIndex="4294967280"/>
          <editParameter parameterIndex="0" slotIndex="4294967281"/>
          <channelMap>
            <channel index="0" sourceIndex="0"/>
            <channel index="1" sourceIndex="1"/>
          </channelMap>
        </audioClip>
        <audioClip clipAutoCrossfade="true" crossFadeHeadClipID="-1" crossFadeTailClipID="-1" endPoint="1323000" fileID="0" hue="-1" id="2" lockedInTime="false" looped="false" name="Brownnoise" offline="false" select="false" sourceInPoint="0" sourceOutPoint="441000" startPoint="882000" zOrder="2">
          <component componentGuid="7fa99611-65cd-4e8a-8680-4a4dc83b1cc9" componentID="Audition.Fader" id="clipGain" name="volume" powered="true">
            <parameter index="0" name="volume" parameterValue="1"/>
            <parameter index="1" name="static gain" parameterValue="1"/>
          </component>
          <component componentGuid="a0950919-838a-41bf-a059-4046206e23fd" componentID="Audition.Mute" id="clipMute" name="Mute" powered="true">
            <parameter index="0" parameterValue="0"/>
            <parameter index="1" name="mute" parameterValue="0"/>
          </component>
          <component componentGuid="01c3b0fa-193c-44c2-8663-64db1975f98e" componentID="Audition.StereoPanner" id="clipPan" name="StereoPanner" powered="true">
            <parameter index="0" name="パン" parameterValue="0"/>
          </component>
          <fadeIn crossFadeLinkType="linkedAsymmetric" endPoint="0" shape="0" startPoint="0" type="cosine"/>
          <fadeOut crossFadeLinkType="linkedAsymmetric" endPoint="441000" shape="0" startPoint="441000" type="cosine"/>
          <editParameter parameterIndex="0" slotIndex="4294967280"/>
          <editParameter parameterIndex="0" slotIndex="4294967281"/>
          <channelMap>
            <channel index="0" sourceIndex="0"/>
            <channel index="1" sourceIndex="1"/>
          </channelMap>
        </audioClip>
        <audioClip clipAutoCrossfade="true" crossFadeHeadClipID="-1" crossFadeTailClipID="-1" endPoint="1764000" fileID="0" hue="-1" id="3" lockedInTime="false" looped="false" name="Brownnoise" offline="false" select="false" sourceInPoint="0" sourceOutPoint="441000" startPoint="1323000" zOrder="3">
          <component componentGuid="d31f3432-c01b-46e4-aecd-5bf66bd8cc66" componentID="Audition.Fader" id="clipGain" name="volume" powered="true">
            <parameter index="0" name="volume" parameterValue="1"/>
            <parameter index="1" name="static gain" parameterValue="1"/>
          </component>
          <component componentGuid="0bdba78f-43cf-402d-b70b-d59cd47c3b49" componentID="Audition.Mute" id="clipMute" name="Mute" powered="true">
            <parameter index="0" parameterValue="0"/>
            <parameter index="1" name="mute" parameterValue="0"/>
          </component>
          <component componentGuid="aaa1cb95-4921-4ff4-b6e1-d024f3206059" componentID="Audition.StereoPanner" id="clipPan" name="StereoPanner" powered="true">
            <parameter index="0" name="パン" parameterValue="0"/>
          </component>
          <fadeIn crossFadeLinkType="linkedAsymmetric" endPoint="0" shape="0" startPoint="0" type="cosine"/>
          <fadeOut crossFadeLinkType="linkedAsymmetric" endPoint="441000" shape="0" startPoint="441000" type="cosine"/>
          <editParameter parameterIndex="0" slotIndex="4294967280"/>
          <editParameter parameterIndex="0" slotIndex="4294967281"/>
          <channelMap>
            <channel index="0" sourceIndex="0"/>
            <channel index="1" sourceIndex="1"/>
          </channelMap>
        </audioClip>
      </audioTrack>
      <audioTrack automationLaneOpenState="false" id="10001" index="2" select="false" visible="true">
        <trackParameters trackHeight="30" trackHue="160" trackMinimized="false">
          <name>トラック 1</name>
        </trackParameters>
        <trackAudioParameters audioChannelType="stereo" automationMode="1" monitoring="false" recordArmed="false" solo="false" soloSafe="false">
          <trackOutput outputID="10000" type="trackID"/>
          <trackInput inputID="1"/>
          <component componentGuid="2f24cdc1-3400-4aa0-a9b3-fb5d96e08781" componentID="Audition.Fader" id="trackFader" name="volume" powered="true">
            <parameter index="0" name="volume" parameterValue="0.10232932865619659423828125"/>
            <parameter index="1" name="static gain" parameterValue="1"/>
          </component>
          <component componentGuid="61bdaa4e-6727-4489-b9f5-e45bd9ea7513" componentID="Audition.Mute" id="trackMute" name="Mute" powered="true">
            <parameter index="0" parameterValue="0"/>
            <parameter index="1" name="mute" parameterValue="0"/>
          </component>
          <component componentGuid="0cd65161-a3ee-4b4a-9152-cd6335b687c8" componentID="Audition.StereoPanner" id="trackPan" name="StereoPanner" powered="true">
            <parameter index="0" name="パン" parameterValue="0"/>
          </component>
          <component componentGuid="64d9a64b-8272-4ebc-acf9-7820639fa0cf" componentID="Audition.EQ" id="trackEQ" name="EQ" powered="false">
            <parameter index="0" name="ローシェルビング周波数" parameterValue="0.0009078529546968638896942138671875"/>
            <parameter index="1" name="ローシェルビングゲイン" parameterValue="0.5"/>
            <parameter index="2" name="ハイシェルビング周波数" parameterValue="0.816159784793853759765625"/>
            <parameter index="3" name="ハイシェルビングゲイン" parameterValue="0.5"/>
            <parameter index="4" name="EQ バンド 1 センター周波数" parameterValue="0.0013617794029414653778076171875"/>
            <parameter index="5" name="EQ バンド 1 Q" parameterValue="0.000199989997781813144683837890625"/>
            <parameter index="6" name="EQ バンド 1 ゲイン" parameterValue="0.5"/>
            <parameter index="7" name="EQ バンド 1 有効" parameterValue="1"/>
            <parameter index="8" name="EQ バンド 2 センター周波数" parameterValue="0.008170676417648792266845703125"/>
            <parameter index="9" name="EQ バンド 2 Q" parameterValue="0.000199989997781813144683837890625"/>
            <parameter index="10" name="EQ バンド 2 ゲイン" parameterValue="0.5"/>
            <parameter index="11" name="EQ バンド 2 有効" parameterValue="1"/>
            <parameter index="12" name="EQ バンド 3 センター周波数" parameterValue="0.0354062654078006744384765625"/>
            <parameter index="13" name="EQ バンド 3 Q" parameterValue="0.000199989997781813144683837890625"/>
            <parameter index="14" name="EQ バンド 3 ゲイン" parameterValue="0.5"/>
            <parameter index="15" name="EQ バンド 3 有効" parameterValue="1"/>
            <parameter index="16" name="EQ バンド 4 センター周波数" parameterValue="0.144348621368408203125"/>
            <parameter index="17" name="EQ バンド 4 Q" parameterValue="0.000199989997781813144683837890625"/>
            <parameter index="18" name="EQ バンド 4 ゲイン" parameterValue="0.5"/>
            <parameter index="19" name="EQ バンド 4 有効" parameterValue="1"/>
            <parameter index="20" name="EQ バンド 5 センター周波数" parameterValue="0.580118000507354736328125"/>
            <parameter index="21" name="EQ バンド 5 Q" parameterValue="0.000199989997781813144683837890625"/>
            <parameter index="22" name="EQ バンド 5 ゲイン" parameterValue="0.5"/>
            <parameter index="23" name="EQ バンド 5 有効" parameterValue="1"/>
            <parameter index="24" name="マスターゲイン" parameterValue="0.666666686534881591796875"/>
            <parameter index="25" name="ConstantQ" parameterValue="1"/>
            <parameter index="26" name="ローシェルビングフィルター次数" parameterValue="0"/>
            <parameter index="27" name="ハイシェルビングフィルター次数" parameterValue="0"/>
            <parameter index="28" name="ノイズレスモード" parameterValue="0"/>
            <parameter index="29" name="ローシェルビング有効" parameterValue="1"/>
            <parameter index="30" name="ハイシェルビング有効" parameterValue="1"/>
            <parameter index="31" name="オリジナルサンプルレート" parameterValue="0.22968749701976776123046875"/>
            <parameter index="32" name="EQ バンド 1 バンド幅" parameterValue="0.002499990165233612060546875"/>
            <parameter index="33" name="EQ バンド 2 バンド幅" parameterValue="0.0099999904632568359375"/>
            <parameter index="34" name="EQ バンド 3 バンド幅" parameterValue="0.0399999916553497314453125"/>
            <parameter index="35" name="EQ バンド 4 バンド幅" parameterValue="0.15999998152256011962890625"/>
            <parameter index="36" name="EQ バンド 5 バンド幅" parameterValue="0.63999998569488525390625"/>
            <parameter index="37" name="ハイパスフィルター有効" parameterValue="0"/>
            <parameter index="38" name="ハイパスカットオフ周波数" parameterValue="0"/>
            <parameter index="39" name="ハイパススロープ" parameterValue="0.4000000059604644775390625"/>
            <parameter index="40" name="ローパスフィルター有効" parameterValue="0"/>
            <parameter index="41" name="ローパスカットオフ周波数" parameterValue="0.906945049762725830078125"/>
            <parameter index="42" name="ローパススロープ" parameterValue="0.4000000059604644775390625"/>
            <parameter index="43" name="バイパス" parameterValue="0"/>
            <parameter index="44" name="LowGraphRange" parameterValue="1"/>
          </component>
        </trackAudioParameters>
        <effectsRack preFader="true">
          <component componentGuid="64a5b374-13be-47df-bb29-ad3ca06b87c8" componentID="Audition.ComponentGroup" id="rackMix" powered="true">
            <parameter index="0" parameterValue="0"/>
            <parameter index="1" parameterValue="0"/>
          </component>
          <component componentGuid="97b2ef2a-76e5-4dab-a79c-9f52ef8b36da" id="rackInput" powered="true">
            <parameter index="0" parameterValue="1"/>
            <parameter index="1" parameterValue="0"/>
          </component>
          <component componentGuid="cfcfdaac-7d7f-4c59-9e23-b7ff36360568" id="rackOutput" powered="true">
            <parameter index="0" parameterValue="1"/>
            <parameter index="1" parameterValue="0"/>
          </component>
          <slot powered="true" slotIndex="0">
            <component componentGuid="4ed246df-68bb-4196-b08c-89aa02a29e41" componentID="db912dc1-cfd7-4c26-8bbc-ffe2a16ded2d" editorHeight="435" editorLeft="491" editorTop="224" editorWidth="470" name="リバーブ">
              <busConfig><![CDATA[{"in":[{"layout":[100,101],"name":"ステレオ入力","type":0}],"out":[{"layout":[100,101],"name":"ステレオ出力","type":0}]}]]></busConfig>
              <channelMap direction="input">
                <channel index="0" sourceIndex="0"/>
                <channel index="1" sourceIndex="1"/>
              </channelMap>
              <channelMap direction="output">
                <channel index="0" sourceIndex="0"/>
                <channel index="1" sourceIndex="1"/>
              </channelMap>
              <parameter index="0" name="ディケイタイム" parameterValue="0.087547004222869873046875"/>
              <parameter index="1" name="プリディレイタイム" parameterValue="0.0493111498653888702392578125"/>
              <parameter index="2" name="知覚" parameterValue="0.548777759075164794921875"/>
              <parameter index="3" name="ドライ出力レベル" parameterValue="1"/>
              <parameter index="4" name="ウェット出力レベル" parameterValue="0.0636340677738189697265625"/>
              <parameter index="5" name="ディフュージョン" parameterValue="0.24737416207790374755859375"/>
              <parameter index="6" name="入力をミックス" parameterValue="0.753768861293792724609375"/>
              <parameter index="7" name="インパルスを計算中" parameterValue="1"/>
              <parameter index="8" name="処理中" parameterValue="0.251256287097930908203125"/>
            </component>
          </slot>
        </effectsRack>
        <editParameter parameterIndex="0" slotIndex="4294967280"/>
        <audioClip clipAutoCrossfade="true" crossFadeHeadClipID="-1" crossFadeTailClipID="-1" endPoint="5378487" fileID="1" hue="-1" id="0" lockedInTime="false" looped="false" name="Crowd_Talking" offline="false" select="false" sourceInPoint="173001" sourceOutPoint="5551488" startPoint="0" zOrder="8">
          <component componentGuid="538202b7-ff02-4e96-92e8-85386f4933dc" componentID="Audition.Fader" id="clipGain" name="volume" powered="true">
            <parameter index="0" name="volume" parameterValue="1.077098369598388671875">
              <parameterKeyframes enableSplines="true" readOnly="false">
                <parameterKeyframe sampleOffset="181641" select="false" type="linear" value="0.748900711536407470703125"/>
                <parameterKeyframe sampleOffset="279240" select="false" type="linear" value="0.526970386505126953125"/>
                <parameterKeyframe sampleOffset="450037" select="false" type="linear" value="0.756609499454498291015625"/>
                <parameterKeyframe sampleOffset="650656" select="false" type="linear" value="0.4942685067653656005859375"/>
                <parameterKeyframe sampleOffset="883807" select="false" type="linear" value="0.840611159801483154296875"/>
                <parameterKeyframe sampleOffset="1116959" select="false" type="linear" value="0.538689136505126953125"/>
                <parameterKeyframe sampleOffset="1333844" select="false" type="linear" value="0.538689136505126953125"/>
                <parameterKeyframe sampleOffset="1472109" select="false" type="linear" value="0.7967090606689453125"/>
              </parameterKeyframes>
            </parameter>
            <parameter index="1" name="static gain" parameterValue="1"/>
          </component>
          <component componentGuid="129184aa-2f2a-4df7-acd6-1377a476e5b7" componentID="Audition.Mute" id="clipMute" name="Mute" powered="true">
            <parameter index="0" parameterValue="0"/>
            <parameter index="1" name="mute" parameterValue="0"/>
          </component>
          <component componentGuid="6a5be3fc-aa65-4a04-a7a0-cf583d6e290b" componentID="Audition.StereoPanner" id="clipPan" name="StereoPanner" powered="true">
            <parameter index="0" name="パン" parameterValue="0">
              <parameterKeyframes enableSplines="false" readOnly="false">
                <parameterKeyframe sampleOffset="1320289" select="false" type="linear" value="0.5"/>
              </parameterKeyframes>
            </parameter>
          </component>
          <fadeIn crossFadeLinkType="linkedAsymmetric" endPoint="0" shape="0" startPoint="0" type="cosine"/>
          <fadeOut crossFadeLinkType="linkedAsymmetric" endPoint="5378487" shape="0" startPoint="5378487" type="cosine"/>
          <editParameter parameterIndex="0" slotIndex="4294967281"/>
          <editParameter parameterIndex="0" slotIndex="4294967280"/>
          <channelMap>
            <channel index="0" sourceIndex="0"/>
            <channel index="1" sourceIndex="1"/>
          </channelMap>
        </audioClip>
      </audioTrack>
      <audioTrack automationLaneOpenState="false" id="10010" index="3" select="false" visible="true">
        <trackParameters trackHeight="30" trackHue="240" trackMinimized="false">
          <name>トラック 10</name>
        </trackParameters>
        <trackAudioParameters audioChannelType="stereo" automationMode="1" monitoring="false" recordArmed="false" solo="false" soloSafe="false">
          <trackOutput outputID="10000" type="trackID"/>
          <trackInput inputID="1"/>
          <component componentGuid="e833cb13-62f1-46f8-80c9-c750d8a5246b" componentID="Audition.Fader" id="trackFader" name="volume" powered="true">
            <parameter index="0" name="volume" parameterValue="0.10232932865619659423828125"/>
            <parameter index="1" name="static gain" parameterValue="1"/>
          </component>
          <component componentGuid="13a02f20-1168-415a-bc0f-7286b4290cc7" componentID="Audition.Mute" id="trackMute" name="Mute" powered="true">
            <parameter index="0" parameterValue="0"/>
            <parameter index="1" name="mute" parameterValue="0"/>
          </component>
          <component componentGuid="7785e23f-7ac9-40c1-b962-0b3ecee8f7c3" componentID="Audition.StereoPanner" id="trackPan" name="StereoPanner" powered="true">
            <parameter index="0" name="パン" parameterValue="0"/>
          </component>
          <component componentGuid="ffc1174b-ed69-4551-a46a-ebcf822ec34c" componentID="Audition.EQ" id="trackEQ" name="EQ" powered="false">
            <parameter index="0" name="ローシェルビング周波数" parameterValue="0.0009078529546968638896942138671875"/>
            <parameter index="1" name="ローシェルビングゲイン" parameterValue="0.5"/>
            <parameter index="2" name="ハイシェルビング周波数" parameterValue="0.816159784793853759765625"/>
            <parameter index="3" name="ハイシェルビングゲイン" parameterValue="0.5"/>
            <parameter index="4" name="EQ バンド 1 センター周波数" parameterValue="0.0013617794029414653778076171875"/>
            <parameter index="5" name="EQ バンド 1 Q" parameterValue="0.000199989997781813144683837890625"/>
            <parameter index="6" name="EQ バンド 1 ゲイン" parameterValue="0.5"/>
            <parameter index="7" name="EQ バンド 1 有効" parameterValue="1"/>
            <parameter index="8" name="EQ バンド 2 センター周波数" parameterValue="0.008170676417648792266845703125"/>
            <parameter index="9" name="EQ バンド 2 Q" parameterValue="0.000199989997781813144683837890625"/>
            <parameter index="10" name="EQ バンド 2 ゲイン" parameterValue="0.5"/>
            <parameter index="11" name="EQ バンド 2 有効" parameterValue="1"/>
            <parameter index="12" name="EQ バンド 3 センター周波数" parameterValue="0.0354062654078006744384765625"/>
            <parameter index="13" name="EQ バンド 3 Q" parameterValue="0.000199989997781813144683837890625"/>
            <parameter index="14" name="EQ バンド 3 ゲイン" parameterValue="0.5"/>
            <parameter index="15" name="EQ バンド 3 有効" parameterValue="1"/>
            <parameter index="16" name="EQ バンド 4 センター周波数" parameterValue="0.144348621368408203125"/>
            <parameter index="17" name="EQ バンド 4 Q" parameterValue="0.000199989997781813144683837890625"/>
            <parameter index="18" name="EQ バンド 4 ゲイン" parameterValue="0.5"/>
            <parameter index="19" name="EQ バンド 4 有効" parameterValue="1"/>
            <parameter index="20" name="EQ バンド 5 センター周波数" parameterValue="0.580118000507354736328125"/>
            <parameter index="21" name="EQ バンド 5 Q" parameterValue="0.000199989997781813144683837890625"/>
            <parameter index="22" name="EQ バンド 5 ゲイン" parameterValue="0.5"/>
            <parameter index="23" name="EQ バンド 5 有効" parameterValue="1"/>
            <parameter index="24" name="マスターゲイン" parameterValue="0.666666686534881591796875"/>
            <parameter index="25" name="ConstantQ" parameterValue="1"/>
            <parameter index="26" name="ローシェルビングフィルター次数" parameterValue="0"/>
            <parameter index="27" name="ハイシェルビングフィルター次数" parameterValue="0"/>
            <parameter index="28" name="ノイズレスモード" parameterValue="0"/>
            <parameter index="29" name="ローシェルビング有効" parameterValue="1"/>
            <parameter index="30" name="ハイシェルビング有効" parameterValue="1"/>
            <parameter index="31" name="オリジナルサンプルレート" parameterValue="0.22968749701976776123046875"/>
            <parameter index="32" name="EQ バンド 1 バンド幅" parameterValue="0.002499990165233612060546875"/>
            <parameter index="33" name="EQ バンド 2 バンド幅" parameterValue="0.0099999904632568359375"/>
            <parameter index="34" name="EQ バンド 3 バンド幅" parameterValue="0.0399999916553497314453125"/>
            <parameter index="35" name="EQ バンド 4 バンド幅" parameterValue="0.15999998152256011962890625"/>
            <parameter index="36" name="EQ バンド 5 バンド幅" parameterValue="0.63999998569488525390625"/>
            <parameter index="37" name="ハイパスフィルター有効" parameterValue="0"/>
            <parameter index="38" name="ハイパスカットオフ周波数" parameterValue="0"/>
            <parameter index="39" name="ハイパススロープ" parameterValue="0.4000000059604644775390625"/>
            <parameter index="40" name="ローパスフィルター有効" parameterValue="0"/>
            <parameter index="41" name="ローパスカットオフ周波数" parameterValue="0.906945049762725830078125"/>
            <parameter index="42" name="ローパススロープ" parameterValue="0.4000000059604644775390625"/>
            <parameter index="43" name="バイパス" parameterValue="0"/>
            <parameter index="44" name="LowGraphRange" parameterValue="1"/>
          </component>
        </trackAudioParameters>
        <effectsRack preFader="true">
          <component componentGuid="d4dc6dbb-9e25-4f14-aba1-5fe9522114ee" componentID="Audition.ComponentGroup" id="rackMix" powered="true">
            <parameter index="0" parameterValue="0"/>
            <parameter index="1" parameterValue="0"/>
          </component>
          <component componentGuid="79b6e801-48da-45a4-bcb6-81c7e1189245" id="rackInput" powered="true">
            <parameter index="0" parameterValue="1"/>
            <parameter index="1" parameterValue="0"/>
          </component>
          <component componentGuid="9a2fe7fa-01d0-497b-9f20-6372ef2e5b20" id="rackOutput" powered="true">
            <parameter index="0" parameterValue="1"/>
            <parameter index="1" parameterValue="0"/>
          </component>
          <slot powered="true" slotIndex="0">
            <component componentGuid="604e144d-4594-41b2-b6e3-8b27e7c32450" componentID="db912dc1-cfd7-4c26-8bbc-ffe2a16ded2d" name="リバーブ">
              <busConfig><![CDATA[{"in":[{"layout":[100,101],"name":"ステレオ入力","type":0}],"out":[{"layout":[100,101],"name":"ステレオ出力","type":0}]}]]></busConfig>
              <channelMap direction="input">
                <channel index="0" sourceIndex="0"/>
                <channel index="1" sourceIndex="1"/>
              </channelMap>
              <channelMap direction="output">
                <channel index="0" sourceIndex="0"/>
                <channel index="1" sourceIndex="1"/>
              </channelMap>
              <parameter index="0" name="ディケイタイム" parameterValue="0.087547004222869873046875"/>
              <parameter index="1" name="プリディレイタイム" parameterValue="0.0493111498653888702392578125"/>
              <parameter index="2" name="知覚" parameterValue="0.548777759075164794921875"/>
              <parameter index="3" name="ドライ出力レベル" parameterValue="1"/>
              <parameter index="4" name="ウェット出力レベル" parameterValue="0.0636340677738189697265625"/>
              <parameter index="5" name="ディフュージョン" parameterValue="0.24737416207790374755859375"/>
              <parameter index="6" name="入力をミックス" parameterValue="0.753768861293792724609375"/>
              <parameter index="7" name="インパルスを計算中" parameterValue="1"/>
              <parameter index="8" name="処理中" parameterValue="0.251256287097930908203125"/>
            </component>
          </slot>
        </effectsRack>
        <editParameter parameterIndex="0" slotIndex="4294967280"/>
        <audioClip clipAutoCrossfade="true" crossFadeHeadClipID="-1" crossFadeTailClipID="-1" endPoint="5551488" fileID="1" hue="-1" id="0" lockedInTime="false" looped="false" name="Crowd_Talking" offline="false" select="false" sourceInPoint="0" sourceOutPoint="5551488" startPoint="0" zOrder="0">
          <component componentGuid="3c541654-e843-4ee4-90f6-6ca2554a22b9" componentID="Audition.Fader" id="clipGain" name="volume" powered="true">
            <parameter index="0" name="volume" parameterValue="1.44439113140106201171875">
              <parameterKeyframes enableSplines="true" readOnly="false">
                <parameterKeyframe sampleOffset="181641" select="false" type="linear" value="0.748900711536407470703125"/>
                <parameterKeyframe sampleOffset="279240" select="false" type="linear" value="0.526970386505126953125"/>
                <parameterKeyframe sampleOffset="450037" select="false" type="linear" value="0.756609499454498291015625"/>
                <parameterKeyframe sampleOffset="650656" select="false" type="linear" value="0.4942685067653656005859375"/>
                <parameterKeyframe sampleOffset="883807" select="false" type="linear" value="0.840611159801483154296875"/>
                <parameterKeyframe sampleOffset="1116959" select="false" type="linear" value="0.538689136505126953125"/>
                <parameterKeyframe sampleOffset="1333844" select="false" type="linear" value="0.538689136505126953125"/>
                <parameterKeyframe sampleOffset="1472109" select="false" type="linear" value="0.7967090606689453125"/>
              </parameterKeyframes>
            </parameter>
            <parameter index="1" name="static gain" parameterValue="1"/>
          </component>
          <component componentGuid="e95cd524-6990-449d-9893-42e39624f600" componentID="Audition.Mute" id="clipMute" name="Mute" powered="true">
            <parameter index="0" parameterValue="0"/>
            <parameter index="1" name="mute" parameterValue="0"/>
          </component>
          <component componentGuid="f3075248-4de6-4e4a-af43-45c84f5c9608" componentID="Audition.StereoPanner" id="clipPan" name="StereoPanner" powered="true">
            <parameter index="0" name="パン" parameterValue="0">
              <parameterKeyframes enableSplines="false" readOnly="false">
                <parameterKeyframe sampleOffset="1320289" select="false" type="linear" value="0.5"/>
              </parameterKeyframes>
            </parameter>
          </component>
          <fadeIn crossFadeLinkType="linkedAsymmetric" endPoint="0" shape="0" startPoint="0" type="cosine"/>
          <fadeOut crossFadeLinkType="linkedAsymmetric" endPoint="5551488" shape="0" startPoint="5551488" type="cosine"/>
          <editParameter parameterIndex="0" slotIndex="4294967281"/>
          <editParameter parameterIndex="0" slotIndex="4294967280"/>
          <channelMap>
            <channel index="0" sourceIndex="0"/>
            <channel index="1" sourceIndex="1"/>
          </channelMap>
        </audioClip>
      </audioTrack>
      <audioTrack automationLaneOpenState="false" id="10002" index="4" select="true" visible="true">
        <trackParameters trackHeight="30" trackHue="267" trackMinimized="false">
          <name>トラック 2</name>
        </trackParameters>
        <trackAudioParameters audioChannelType="stereo" automationMode="1" monitoring="false" recordArmed="false" solo="false" soloSafe="false">
          <trackOutput outputID="10000" type="trackID"/>
          <trackInput inputID="1"/>
          <component componentGuid="07f68db8-76bb-4205-b4c3-2f02b5b8c726" componentID="Audition.Fader" id="trackFader" name="volume" powered="true">
            <parameter index="0" name="volume" parameterValue="0.0562341324985027313232421875"/>
            <parameter index="1" name="static gain" parameterValue="1"/>
          </component>
          <component componentGuid="6c5a3807-eda1-409f-a24b-464ea61a064c" componentID="Audition.Mute" id="trackMute" name="Mute" powered="true">
            <parameter index="0" parameterValue="0"/>
            <parameter index="1" name="mute" parameterValue="0"/>
          </component>
          <component componentGuid="2d264413-d719-4a06-80ae-41d42c0ee8ae" componentID="Audition.StereoPanner" id="trackPan" name="StereoPanner" powered="true">
            <parameter index="0" name="パン" parameterValue="0"/>
          </component>
          <component componentGuid="4b7a2a00-ff23-4f20-bf76-abbfa3f9a02a" componentID="Audition.EQ" id="trackEQ" name="EQ" powered="false">
            <parameter index="0" name="ローシェルビング周波数" parameterValue="0.0009078529546968638896942138671875"/>
            <parameter index="1" name="ローシェルビングゲイン" parameterValue="0.5"/>
            <parameter index="2" name="ハイシェルビング周波数" parameterValue="0.816159784793853759765625"/>
            <parameter index="3" name="ハイシェルビングゲイン" parameterValue="0.5"/>
            <parameter index="4" name="EQ バンド 1 センター周波数" parameterValue="0.0013617794029414653778076171875"/>
            <parameter index="5" name="EQ バンド 1 Q" parameterValue="0.000199989997781813144683837890625"/>
            <parameter index="6" name="EQ バンド 1 ゲイン" parameterValue="0.5"/>
            <parameter index="7" name="EQ バンド 1 有効" parameterValue="1"/>
            <parameter index="8" name="EQ バンド 2 センター周波数" parameterValue="0.008170676417648792266845703125"/>
            <parameter index="9" name="EQ バンド 2 Q" parameterValue="0.000199989997781813144683837890625"/>
            <parameter index="10" name="EQ バンド 2 ゲイン" parameterValue="0.5"/>
            <parameter index="11" name="EQ バンド 2 有効" parameterValue="1"/>
            <parameter index="12" name="EQ バンド 3 センター周波数" parameterValue="0.0354062654078006744384765625"/>
            <parameter index="13" name="EQ バンド 3 Q" parameterValue="0.000199989997781813144683837890625"/>
            <parameter index="14" name="EQ バンド 3 ゲイン" parameterValue="0.5"/>
            <parameter index="15" name="EQ バンド 3 有効" parameterValue="1"/>
            <parameter index="16" name="EQ バンド 4 センター周波数" parameterValue="0.144348621368408203125"/>
            <parameter index="17" name="EQ バンド 4 Q" parameterValue="0.000199989997781813144683837890625"/>
            <parameter index="18" name="EQ バンド 4 ゲイン" parameterValue="0.5"/>
            <parameter index="19" name="EQ バンド 4 有効" parameterValue="1"/>
            <parameter index="20" name="EQ バンド 5 センター周波数" parameterValue="0.580118000507354736328125"/>
            <parameter index="21" name="EQ バンド 5 Q" parameterValue="0.000199989997781813144683837890625"/>
            <parameter index="22" name="EQ バンド 5 ゲイン" parameterValue="0.5"/>
            <parameter index="23" name="EQ バンド 5 有効" parameterValue="1"/>
            <parameter index="24" name="マスターゲイン" parameterValue="0.666666686534881591796875"/>
            <parameter index="25" name="ConstantQ" parameterValue="1"/>
            <parameter index="26" name="ローシェルビングフィルター次数" parameterValue="0"/>
            <parameter index="27" name="ハイシェルビングフィルター次数" parameterValue="0"/>
            <parameter index="28" name="ノイズレスモード" parameterValue="0"/>
            <parameter index="29" name="ローシェルビング有効" parameterValue="1"/>
            <parameter index="30" name="ハイシェルビング有効" parameterValue="1"/>
            <parameter index="31" name="オリジナルサンプルレート" parameterValue="0.22968749701976776123046875"/>
            <parameter index="32" name="EQ バンド 1 バンド幅" parameterValue="0.002499990165233612060546875"/>
            <parameter index="33" name="EQ バンド 2 バンド幅" parameterValue="0.0099999904632568359375"/>
            <parameter index="34" name="EQ バンド 3 バンド幅" parameterValue="0.0399999916553497314453125"/>
            <parameter index="35" name="EQ バンド 4 バンド幅" parameterValue="0.15999998152256011962890625"/>
            <parameter index="36" name="EQ バンド 5 バンド幅" parameterValue="0.63999998569488525390625"/>
            <parameter index="37" name="ハイパスフィルター有効" parameterValue="0"/>
            <parameter index="38" name="ハイパスカットオフ周波数" parameterValue="0"/>
            <parameter index="39" name="ハイパススロープ" parameterValue="0.4000000059604644775390625"/>
            <parameter index="40" name="ローパスフィルター有効" parameterValue="0"/>
            <parameter index="41" name="ローパスカットオフ周波数" parameterValue="0.906945049762725830078125"/>
            <parameter index="42" name="ローパススロープ" parameterValue="0.4000000059604644775390625"/>
            <parameter index="43" name="バイパス" parameterValue="0"/>
            <parameter index="44" name="LowGraphRange" parameterValue="1"/>
          </component>
        </trackAudioParameters>
        <effectsRack preFader="true">
          <component componentGuid="4c8743b1-295a-449f-b9b9-c49a7b4c5323" componentID="Audition.ComponentGroup" id="rackMix" powered="true">
            <parameter index="0" parameterValue="0"/>
            <parameter index="1" parameterValue="0"/>
          </component>
          <component componentGuid="ba1bf4aa-7d2b-42c3-b947-67262796208d" id="rackInput" powered="true">
            <parameter index="0" parameterValue="1"/>
            <parameter index="1" parameterValue="0"/>
          </component>
          <component componentGuid="fbd8c600-6ea2-4c00-989b-655701e737c3" id="rackOutput" powered="true">
            <parameter index="0" parameterValue="1"/>
            <parameter index="1" parameterValue="0"/>
          </component>
          <slot powered="true" slotIndex="0">
            <component componentGuid="aa376e2c-97db-4f7f-a832-21df1e8ea064" componentID="db912dc1-cfd7-4c26-8bbc-ffe2a16ded2d" editorHeight="435" editorLeft="579" editorTop="282" editorWidth="470" name="リバーブ">
              <busConfig><![CDATA[{"in":[{"layout":[100,101],"name":"ステレオ入力","type":0}],"out":[{"layout":[100,101],"name":"ステレオ出力","type":0}]}]]></busConfig>
              <channelMap direction="input">
                <channel index="0" sourceIndex="0"/>
                <channel index="1" sourceIndex="1"/>
              </channelMap>
              <channelMap direction="output">
                <channel index="0" sourceIndex="0"/>
                <channel index="1" sourceIndex="1"/>
              </channelMap>
              <parameter index="0" name="ディケイタイム" parameterValue="0.087547004222869873046875"/>
              <parameter index="1" name="プリディレイタイム" parameterValue="0.0493111498653888702392578125"/>
              <parameter index="2" name="知覚" parameterValue="0.548777759075164794921875"/>
              <parameter index="3" name="ドライ出力レベル" parameterValue="0.496870815753936767578125"/>
              <parameter index="4" name="ウェット出力レベル" parameterValue="0.23494203388690948486328125"/>
              <parameter index="5" name="ディフュージョン" parameterValue="0.24737416207790374755859375"/>
              <parameter index="6" name="入力をミックス" parameterValue="0.753768861293792724609375"/>
              <parameter index="7" name="インパルスを計算中" parameterValue="1"/>
              <parameter index="8" name="処理中" parameterValue="0.251256287097930908203125"/>
            </component>
          </slot>
        </effectsRack>
        <editParameter parameterIndex="0" slotIndex="4294967280"/>
        <audioClip clipAutoCrossfade="true" crossFadeHeadClipID="-1" crossFadeTailClipID="-1" endPoint="535680" fileID="2" hue="-1" id="0" lockedInTime="false" looped="false" name="Crosswalk-Signal01-1(Loop)" offline="false" select="false" sourceInPoint="0" sourceOutPoint="535680" startPoint="0" zOrder="0">
          <component componentGuid="702f3acd-2b4a-4457-b10b-7692c7c59c04" componentID="Audition.Fader" id="clipGain" name="volume" powered="true">
            <parameter index="0" name="volume" parameterValue="1"/>
            <parameter index="1" name="static gain" parameterValue="1"/>
          </component>
          <component componentGuid="4e2b4125-222a-4288-a0d2-2c438ba19c68" componentID="Audition.Mute" id="clipMute" name="Mute" powered="true">
            <parameter index="0" parameterValue="0"/>
            <parameter index="1" name="mute" parameterValue="0"/>
          </component>
          <component componentGuid="d0d45736-2ee2-438e-961c-6d78420a5ed0" componentID="Audition.StereoPanner" id="clipPan" name="StereoPanner" powered="true">
            <parameter index="0" name="パン" parameterValue="0"/>
          </component>
          <fadeIn crossFadeLinkType="linkedAsymmetric" endPoint="0" shape="0" startPoint="0" type="cosine"/>
          <fadeOut crossFadeLinkType="linkedAsymmetric" endPoint="535680" shape="0" startPoint="535680" type="cosine"/>
          <editParameter parameterIndex="0" slotIndex="4294967280"/>
          <editParameter parameterIndex="0" slotIndex="4294967281"/>
          <channelMap>
            <channel index="0" sourceIndex="0"/>
            <channel index="1" sourceIndex="1"/>
          </channelMap>
        </audioClip>
        <audioClip clipAutoCrossfade="true" crossFadeHeadClipID="-1" crossFadeTailClipID="-1" endPoint="1071360" fileID="2" hue="-1" id="1" lockedInTime="false" looped="false" name="Crosswalk-Signal01-1(Loop)" offline="false" select="false" sourceInPoint="0" sourceOutPoint="535680" startPoint="535680" zOrder="1">
          <component componentGuid="4fe0038e-d705-4fa8-ad0b-dba3f329eda5" componentID="Audition.Fader" id="clipGain" name="volume" powered="true">
            <parameter index="0" name="volume" parameterValue="1"/>
            <parameter index="1" name="static gain" parameterValue="1"/>
          </component>
          <component componentGuid="66518718-b02e-4482-955e-f3ed3e7b0527" componentID="Audition.Mute" id="clipMute" name="Mute" powered="true">
            <parameter index="0" parameterValue="0"/>
            <parameter index="1" name="mute" parameterValue="0"/>
          </component>
          <component componentGuid="9d132345-54d6-4b21-a754-373cca4461bf" componentID="Audition.StereoPanner" id="clipPan" name="StereoPanner" powered="true">
            <parameter index="0" name="パン" parameterValue="0"/>
          </component>
          <fadeIn crossFadeLinkType="linkedAsymmetric" endPoint="0" shape="0" startPoint="0" type="cosine"/>
          <fadeOut crossFadeLinkType="linkedAsymmetric" endPoint="535680" shape="0" startPoint="535680" type="cosine"/>
          <editParameter parameterIndex="0" slotIndex="4294967280"/>
          <editParameter parameterIndex="0" slotIndex="4294967281"/>
          <channelMap>
            <channel index="0" sourceIndex="0"/>
            <channel index="1" sourceIndex="1"/>
          </channelMap>
        </audioClip>
      </audioTrack>
      <audioTrack automationLaneOpenState="false" id="10013" index="5" select="false" visible="true">
        <trackParameters trackHeight="30" trackHue="267" trackMinimized="false">
          <name>トラック 13</name>
        </trackParameters>
        <trackAudioParameters audioChannelType="stereo" automationMode="1" monitoring="false" recordArmed="false" solo="false" soloSafe="false">
          <trackOutput outputID="10000" type="trackID"/>
          <trackInput inputID="1"/>
          <component componentGuid="fcd964cc-dffe-4240-9286-51fbccd26aa5" componentID="Audition.Fader" id="trackFader" name="volume" powered="true">
            <parameter index="0" name="volume" parameterValue="0.031622774899005889892578125"/>
            <parameter index="1" name="static gain" parameterValue="1"/>
          </component>
          <component componentGuid="d001f053-0fdc-467f-9f8a-d0fc937b2519" componentID="Audition.Mute" id="trackMute" name="Mute" powered="true">
            <parameter index="0" parameterValue="0"/>
            <parameter index="1" name="mute" parameterValue="0"/>
          </component>
          <component componentGuid="867024e8-ade1-4896-b23d-abb94ce20bff" componentID="Audition.StereoPanner" id="trackPan" name="StereoPanner" powered="true">
            <parameter index="0" name="パン" parameterValue="0"/>
          </component>
          <component componentGuid="5c2ad189-ed06-439d-b78a-9305a9ad25f4" componentID="Audition.EQ" id="trackEQ" name="EQ" powered="false">
            <parameter index="0" name="ローシェルビング周波数" parameterValue="0.0009078529546968638896942138671875"/>
            <parameter index="1" name="ローシェルビングゲイン" parameterValue="0.5"/>
            <parameter index="2" name="ハイシェルビング周波数" parameterValue="0.816159784793853759765625"/>
            <parameter index="3" name="ハイシェルビングゲイン" parameterValue="0.5"/>
            <parameter index="4" name="EQ バンド 1 センター周波数" parameterValue="0.0013617794029414653778076171875"/>
            <parameter index="5" name="EQ バンド 1 Q" parameterValue="0.000199989997781813144683837890625"/>
            <parameter index="6" name="EQ バンド 1 ゲイン" parameterValue="0.5"/>
            <parameter index="7" name="EQ バンド 1 有効" parameterValue="1"/>
            <parameter index="8" name="EQ バンド 2 センター周波数" parameterValue="0.008170676417648792266845703125"/>
            <parameter index="9" name="EQ バンド 2 Q" parameterValue="0.000199989997781813144683837890625"/>
            <parameter index="10" name="EQ バンド 2 ゲイン" parameterValue="0.5"/>
            <parameter index="11" name="EQ バンド 2 有効" parameterValue="1"/>
            <parameter index="12" name="EQ バンド 3 センター周波数" parameterValue="0.0354062654078006744384765625"/>
            <parameter index="13" name="EQ バンド 3 Q" parameterValue="0.000199989997781813144683837890625"/>
            <parameter index="14" name="EQ バンド 3 ゲイン" parameterValue="0.5"/>
            <parameter index="15" name="EQ バンド 3 有効" parameterValue="1"/>
            <parameter index="16" name="EQ バンド 4 センター周波数" parameterValue="0.144348621368408203125"/>
            <parameter index="17" name="EQ バンド 4 Q" parameterValue="0.000199989997781813144683837890625"/>
            <parameter index="18" name="EQ バンド 4 ゲイン" parameterValue="0.5"/>
            <parameter index="19" name="EQ バンド 4 有効" parameterValue="1"/>
            <parameter index="20" name="EQ バンド 5 センター周波数" parameterValue="0.580118000507354736328125"/>
            <parameter index="21" name="EQ バンド 5 Q" parameterValue="0.000199989997781813144683837890625"/>
            <parameter index="22" name="EQ バンド 5 ゲイン" parameterValue="0.5"/>
            <parameter index="23" name="EQ バンド 5 有効" parameterValue="1"/>
            <parameter index="24" name="マスターゲイン" parameterValue="0.666666686534881591796875"/>
            <parameter index="25" name="ConstantQ" parameterValue="1"/>
            <parameter index="26" name="ローシェルビングフィルター次数" parameterValue="0"/>
            <parameter index="27" name="ハイシェルビングフィルター次数" parameterValue="0"/>
            <parameter index="28" name="ノイズレスモード" parameterValue="0"/>
            <parameter index="29" name="ローシェルビング有効" parameterValue="1"/>
            <parameter index="30" name="ハイシェルビング有効" parameterValue="1"/>
            <parameter index="31" name="オリジナルサンプルレート" parameterValue="0.22968749701976776123046875"/>
            <parameter index="32" name="EQ バンド 1 バンド幅" parameterValue="0.002499990165233612060546875"/>
            <parameter index="33" name="EQ バンド 2 バンド幅" parameterValue="0.0099999904632568359375"/>
            <parameter index="34" name="EQ バンド 3 バンド幅" parameterValue="0.0399999916553497314453125"/>
            <parameter index="35" name="EQ バンド 4 バンド幅" parameterValue="0.15999998152256011962890625"/>
            <parameter index="36" name="EQ バンド 5 バンド幅" parameterValue="0.63999998569488525390625"/>
            <parameter index="37" name="ハイパスフィルター有効" parameterValue="0"/>
            <parameter index="38" name="ハイパスカットオフ周波数" parameterValue="0"/>
            <parameter index="39" name="ハイパススロープ" parameterValue="0.4000000059604644775390625"/>
            <parameter index="40" name="ローパスフィルター有効" parameterValue="0"/>
            <parameter index="41" name="ローパスカットオフ周波数" parameterValue="0.906945049762725830078125"/>
            <parameter index="42" name="ローパススロープ" parameterValue="0.4000000059604644775390625"/>
            <parameter index="43" name="バイパス" parameterValue="0"/>
            <parameter index="44" name="LowGraphRange" parameterValue="1"/>
          </component>
        </trackAudioParameters>
        <editParameter parameterIndex="0" slotIndex="4294967280"/>
        <audioClip clipAutoCrossfade="true" crossFadeHeadClipID="-1" crossFadeTailClipID="1" endPoint="335232" fileID="3" hue="-1" id="0" lockedInTime="false" looped="false" name="bike-idling2" offline="false" select="false" sourceInPoint="0" sourceOutPoint="335232" startPoint="0" zOrder="0">
          <component componentGuid="4e60b549-bd81-4c32-8bc0-6a4c03226d0a" componentID="Audition.Fader" id="clipGain" name="volume" powered="true">
            <parameter index="0" name="volume" parameterValue="1"/>
            <parameter index="1" name="static gain" parameterValue="1"/>
          </component>
          <component componentGuid="7165039f-ac67-4fae-b108-93efe9c6fc97" componentID="Audition.Mute" id="clipMute" name="Mute" powered="true">
            <parameter index="0" parameterValue="0"/>
            <parameter index="1" name="mute" parameterValue="0"/>
          </component>
          <component componentGuid="0ce42ccd-9f77-410f-82c5-8e6342b700f3" componentID="Audition.StereoPanner" id="clipPan" name="StereoPanner" powered="true">
            <parameter index="0" name="パン" parameterValue="0"/>
          </component>
          <fadeIn crossFadeLinkType="linkedAsymmetric" endPoint="0" shape="0" startPoint="0" type="cosine"/>
          <fadeOut crossFadeLinkType="linkedAsymmetric" endPoint="335232" shape="19" startPoint="319905" type="log"/>
          <editParameter parameterIndex="0" slotIndex="4294967280"/>
          <editParameter parameterIndex="0" slotIndex="4294967281"/>
          <channelMap>
            <channel index="0" sourceIndex="0"/>
            <channel index="1" sourceIndex="1"/>
          </channelMap>
        </audioClip>
        <audioClip clipAutoCrossfade="true" crossFadeHeadClipID="0" crossFadeTailClipID="2" endPoint="655137" fileID="3" hue="-1" id="1" lockedInTime="false" looped="false" name="bike-idling2" offline="false" select="false" sourceInPoint="0" sourceOutPoint="335232" startPoint="319905" zOrder="1">
          <component componentGuid="56272bc0-3b2e-4a4c-865b-9d093e05cfdb" componentID="Audition.Fader" id="clipGain" name="volume" powered="true">
            <parameter index="0" name="volume" parameterValue="1"/>
            <parameter index="1" name="static gain" parameterValue="1"/>
          </component>
          <component componentGuid="5063a04e-6c62-4b19-89ac-db0fb148c6ce" componentID="Audition.Mute" id="clipMute" name="Mute" powered="true">
            <parameter index="0" parameterValue="0"/>
            <parameter index="1" name="mute" parameterValue="0"/>
          </component>
          <component componentGuid="83e0c305-3f32-4536-9f2b-fa990932341d" componentID="Audition.StereoPanner" id="clipPan" name="StereoPanner" powered="true">
            <parameter index="0" name="パン" parameterValue="0"/>
          </component>
          <fadeIn crossFadeLinkType="linkedAsymmetric" endPoint="15327" shape="18" startPoint="0" type="log"/>
          <fadeOut crossFadeLinkType="linkedAsymmetric" endPoint="335232" shape="19" startPoint="314483" type="log"/>
          <editParameter parameterIndex="0" slotIndex="4294967280"/>
          <editParameter parameterIndex="0" slotIndex="4294967281"/>
          <channelMap>
            <channel index="0" sourceIndex="0"/>
            <channel index="1" sourceIndex="1"/>
          </channelMap>
        </audioClip>
        <audioClip clipAutoCrossfade="true" crossFadeHeadClipID="1" crossFadeTailClipID="3" endPoint="969620" fileID="3" hue="-1" id="2" lockedInTime="false" looped="false" name="bike-idling2" offline="false" select="false" sourceInPoint="0" sourceOutPoint="335232" startPoint="634388" zOrder="2">
          <component componentGuid="c623fe0d-0ae0-47f3-a1be-740a72dbb70a" componentID="Audition.Fader" id="clipGain" name="volume" powered="true">
            <parameter index="0" name="volume" parameterValue="1"/>
            <parameter index="1" name="static gain" parameterValue="1"/>
          </component>
          <component componentGuid="b7fd4d85-9b8b-4409-a60b-011326c68fc1" componentID="Audition.Mute" id="clipMute" name="Mute" powered="true">
            <parameter index="0" parameterValue="0"/>
            <parameter index="1" name="mute" parameterValue="0"/>
          </component>
          <component componentGuid="e9c3ba35-bf49-4091-9236-598b56f4e803" componentID="Audition.StereoPanner" id="clipPan" name="StereoPanner" powered="true">
            <parameter index="0" name="パン" parameterValue="0"/>
          </component>
          <fadeIn crossFadeLinkType="linkedAsymmetric" endPoint="20749" shape="18" startPoint="0" type="log"/>
          <fadeOut crossFadeLinkType="linkedAsymmetric" endPoint="335232" shape="19" startPoint="315988" type="log"/>
          <editParameter parameterIndex="0" slotIndex="4294967280"/>
          <editParameter parameterIndex="0" slotIndex="4294967281"/>
          <channelMap>
            <channel index="0" sourceIndex="0"/>
            <channel index="1" sourceIndex="1"/>
          </channelMap>
        </audioClip>
        <audioClip clipAutoCrossfade="true" crossFadeHeadClipID="2" crossFadeTailClipID="4" endPoint="1285608" fileID="3" hue="-1" id="3" lockedInTime="false" looped="false" name="bike-idling2" offline="false" select="false" sourceInPoint="0" sourceOutPoint="335232" startPoint="950376" zOrder="3">
          <component componentGuid="cca834f2-47a9-4539-9bf6-9de700bdf04b" componentID="Audition.Fader" id="clipGain" name="volume" powered="true">
            <parameter index="0" name="volume" parameterValue="1"/>
            <parameter index="1" name="static gain" parameterValue="1"/>
          </component>
          <component componentGuid="ae3778d0-ac0d-40a3-8842-7ae7399bd256" componentID="Audition.Mute" id="clipMute" name="Mute" powered="true">
            <parameter index="0" parameterValue="0"/>
            <parameter index="1" name="mute" parameterValue="0"/>
          </component>
          <component componentGuid="8f53cba7-3301-47f0-ab88-342115df6b1b" componentID="Audition.StereoPanner" id="clipPan" name="StereoPanner" powered="true">
            <parameter index="0" name="パン" parameterValue="0"/>
          </component>
          <fadeIn crossFadeLinkType="linkedAsymmetric" endPoint="19244" shape="18" startPoint="0" type="log"/>
          <fadeOut crossFadeLinkType="linkedAsymmetric" endPoint="335232" shape="19" startPoint="307943" type="log"/>
          <editParameter parameterIndex="0" slotIndex="4294967280"/>
          <editParameter parameterIndex="0" slotIndex="4294967281"/>
          <channelMap>
            <channel index="0" sourceIndex="0"/>
            <channel index="1" sourceIndex="1"/>
          </channelMap>
        </audioClip>
        <audioClip clipAutoCrossfade="true" crossFadeHeadClipID="3" crossFadeTailClipID="5" endPoint="1593551" fileID="3" hue="-1" id="4" lockedInTime="false" looped="false" name="bike-idling2" offline="false" select="false" sourceInPoint="0" sourceOutPoint="335232" startPoint="1258319" zOrder="4">
          <component componentGuid="395158a8-024e-48be-b45c-03066123a741" componentID="Audition.Fader" id="clipGain" name="volume" powered="true">
            <parameter index="0" name="volume" parameterValue="1"/>
            <parameter index="1" name="static gain" parameterValue="1"/>
          </component>
          <component componentGuid="5062bcd4-05c5-4662-b916-557dd21c1730" componentID="Audition.Mute" id="clipMute" name="Mute" powered="true">
            <parameter index="0" parameterValue="0"/>
            <parameter index="1" name="mute" parameterValue="0"/>
          </component>
          <component componentGuid="80da1e91-e0e0-4623-9655-41427c0b76ea" componentID="Audition.StereoPanner" id="clipPan" name="StereoPanner" powered="true">
            <parameter index="0" name="パン" parameterValue="0"/>
          </component>
          <fadeIn crossFadeLinkType="linkedAsymmetric" endPoint="27289" shape="18" startPoint="0" type="log"/>
          <fadeOut crossFadeLinkType="linkedAsymmetric" endPoint="335232" shape="19" startPoint="313355" type="log"/>
          <editParameter parameterIndex="0" slotIndex="4294967280"/>
          <editParameter parameterIndex="0" slotIndex="4294967281"/>
          <channelMap>
            <channel index="0" sourceIndex="0"/>
            <channel index="1" sourceIndex="1"/>
          </channelMap>
        </audioClip>
        <audioClip clipAutoCrossfade="true" crossFadeHeadClipID="4" crossFadeTailClipID="-1" endPoint="1906906" fileID="3" hue="-1" id="5" lockedInTime="false" looped="false" name="bike-idling2" offline="false" select="false" sourceInPoint="0" sourceOutPoint="335232" startPoint="1571674" zOrder="5">
          <component componentGuid="dd01273c-3d42-4868-990b-e893a0f48fc3" componentID="Audition.Fader" id="clipGain" name="volume" powered="true">
            <parameter index="0" name="volume" parameterValue="1"/>
            <parameter index="1" name="static gain" parameterValue="1"/>
          </component>
          <component componentGuid="08513e12-30b5-4637-8144-1e7e5a6d0a4f" componentID="Audition.Mute" id="clipMute" name="Mute" powered="true">
            <parameter index="0" parameterValue="0"/>
            <parameter index="1" name="mute" parameterValue="0"/>
          </component>
          <component componentGuid="c9ef38d2-5cbe-46e0-83cb-76b41e233ac4" componentID="Audition.StereoPanner" id="clipPan" name="StereoPanner" powered="true">
            <parameter index="0" name="パン" parameterValue="0"/>
          </component>
          <fadeIn crossFadeLinkType="linkedAsymmetric" endPoint="21877" shape="18" startPoint="0" type="log"/>
          <fadeOut crossFadeLinkType="linkedAsymmetric" endPoint="335232" shape="0" startPoint="335232" type="cosine"/>
          <editParameter parameterIndex="0" slotIndex="4294967280"/>
          <editParameter parameterIndex="0" slotIndex="4294967281"/>
          <channelMap>
            <channel index="0" sourceIndex="0"/>
            <channel index="1" sourceIndex="1"/>
          </channelMap>
        </audioClip>
      </audioTrack>
      <audioTrack automationLaneOpenState="false" id="10014" index="6" select="false" visible="true">
        <trackParameters trackHeight="30" trackHue="51" trackMinimized="false">
          <name>トラック 14</name>
        </trackParameters>
        <trackAudioParameters audioChannelType="stereo" automationMode="1" monitoring="false" recordArmed="false" solo="false" soloSafe="false">
          <trackOutput outputID="10000" type="trackID"/>
          <trackInput inputID="1"/>
          <component componentGuid="d1b5a5c3-1149-41a9-ac22-d7a53c468930" componentID="Audition.Fader" id="trackFader" name="volume" powered="true">
            <parameter index="0" name="volume" parameterValue="0.316227734088897705078125"/>
            <parameter index="1" name="static gain" parameterValue="1"/>
          </component>
          <component componentGuid="5da33ba7-2647-4175-bebe-141733e78595" componentID="Audition.Mute" id="trackMute" name="Mute" powered="true">
            <parameter index="0" parameterValue="0"/>
            <parameter index="1" name="mute" parameterValue="0"/>
          </component>
          <component componentGuid="4dfd2021-8ae4-4566-ae49-bf96577b9355" componentID="Audition.StereoPanner" id="trackPan" name="StereoPanner" powered="true">
            <parameter index="0" name="パン" parameterValue="0"/>
          </component>
          <component componentGuid="667862f3-b75f-42f0-82d6-1c9fe46de256" componentID="Audition.EQ" id="trackEQ" name="EQ" powered="false">
            <parameter index="0" name="ローシェルビング周波数" parameterValue="0.0009078529546968638896942138671875"/>
            <parameter index="1" name="ローシェルビングゲイン" parameterValue="0.5"/>
            <parameter index="2" name="ハイシェルビング周波数" parameterValue="0.816159784793853759765625"/>
            <parameter index="3" name="ハイシェルビングゲイン" parameterValue="0.5"/>
            <parameter index="4" name="EQ バンド 1 センター周波数" parameterValue="0.0013617794029414653778076171875"/>
            <parameter index="5" name="EQ バンド 1 Q" parameterValue="0.000199989997781813144683837890625"/>
            <parameter index="6" name="EQ バンド 1 ゲイン" parameterValue="0.5"/>
            <parameter index="7" name="EQ バンド 1 有効" parameterValue="1"/>
            <parameter index="8" name="EQ バンド 2 センター周波数" parameterValue="0.008170676417648792266845703125"/>
            <parameter index="9" name="EQ バンド 2 Q" parameterValue="0.000199989997781813144683837890625"/>
            <parameter index="10" name="EQ バンド 2 ゲイン" parameterValue="0.5"/>
            <parameter index="11" name="EQ バンド 2 有効" parameterValue="1"/>
            <parameter index="12" name="EQ バンド 3 センター周波数" parameterValue="0.0354062654078006744384765625"/>
            <parameter index="13" name="EQ バンド 3 Q" parameterValue="0.000199989997781813144683837890625"/>
            <parameter index="14" name="EQ バンド 3 ゲイン" parameterValue="0.5"/>
            <parameter index="15" name="EQ バンド 3 有効" parameterValue="1"/>
            <parameter index="16" name="EQ バンド 4 センター周波数" parameterValue="0.144348621368408203125"/>
            <parameter index="17" name="EQ バンド 4 Q" parameterValue="0.000199989997781813144683837890625"/>
            <parameter index="18" name="EQ バンド 4 ゲイン" parameterValue="0.5"/>
            <parameter index="19" name="EQ バンド 4 有効" parameterValue="1"/>
            <parameter index="20" name="EQ バンド 5 センター周波数" parameterValue="0.580118000507354736328125"/>
            <parameter index="21" name="EQ バンド 5 Q" parameterValue="0.000199989997781813144683837890625"/>
            <parameter index="22" name="EQ バンド 5 ゲイン" parameterValue="0.5"/>
            <parameter index="23" name="EQ バンド 5 有効" parameterValue="1"/>
            <parameter index="24" name="マスターゲイン" parameterValue="0.666666686534881591796875"/>
            <parameter index="25" name="ConstantQ" parameterValue="1"/>
            <parameter index="26" name="ローシェルビングフィルター次数" parameterValue="0"/>
            <parameter index="27" name="ハイシェルビングフィルター次数" parameterValue="0"/>
            <parameter index="28" name="ノイズレスモード" parameterValue="0"/>
            <parameter index="29" name="ローシェルビング有効" parameterValue="1"/>
            <parameter index="30" name="ハイシェルビング有効" parameterValue="1"/>
            <parameter index="31" name="オリジナルサンプルレート" parameterValue="0.22968749701976776123046875"/>
            <parameter index="32" name="EQ バンド 1 バンド幅" parameterValue="0.002499990165233612060546875"/>
            <parameter index="33" name="EQ バンド 2 バンド幅" parameterValue="0.0099999904632568359375"/>
            <parameter index="34" name="EQ バンド 3 バンド幅" parameterValue="0.0399999916553497314453125"/>
            <parameter index="35" name="EQ バンド 4 バンド幅" parameterValue="0.15999998152256011962890625"/>
            <parameter index="36" name="EQ バンド 5 バンド幅" parameterValue="0.63999998569488525390625"/>
            <parameter index="37" name="ハイパスフィルター有効" parameterValue="0"/>
            <parameter index="38" name="ハイパスカットオフ周波数" parameterValue="0"/>
            <parameter index="39" name="ハイパススロープ" parameterValue="0.4000000059604644775390625"/>
            <parameter index="40" name="ローパスフィルター有効" parameterValue="0"/>
            <parameter index="41" name="ローパスカットオフ周波数" parameterValue="0.906945049762725830078125"/>
            <parameter index="42" name="ローパススロープ" parameterValue="0.4000000059604644775390625"/>
            <parameter index="43" name="バイパス" parameterValue="0"/>
            <parameter index="44" name="LowGraphRange" parameterValue="1"/>
          </component>
        </trackAudioParameters>
        <effectsRack preFader="true">
          <component componentGuid="a95ba380-14ac-4452-86ad-730d9720ceb7" componentID="Audition.ComponentGroup" id="rackMix" powered="true">
            <parameter index="0" parameterValue="0"/>
            <parameter index="1" parameterValue="0"/>
          </component>
          <component componentGuid="d029367c-4522-4cf4-8150-ac0006978db3" id="rackInput" powered="true">
            <parameter index="0" parameterValue="1"/>
            <parameter index="1" parameterValue="0"/>
          </component>
          <component componentGuid="85118156-df67-42aa-99d4-4c8629921251" id="rackOutput" powered="true">
            <parameter index="0" parameterValue="1"/>
            <parameter index="1" parameterValue="0"/>
          </component>
          <slot powered="true" slotIndex="0">
            <component componentGuid="c12cb4ba-33ab-417a-b0c6-f2abe4579185" componentID="164b4e8a-7105-406b-b23b-1ef2cc4d8957" editorHeight="415" editorLeft="479" editorTop="234" editorWidth="495" name="ピッチシフター">
              <busConfig><![CDATA[{"in":[{"layout":[100,101],"name":"ステレオ入力","type":0}],"out":[{"layout":[100,101],"name":"ステレオ出力","type":0}]}]]></busConfig>
              <channelMap direction="input">
                <channel index="0" sourceIndex="0"/>
                <channel index="1" sourceIndex="1"/>
              </channelMap>
              <channelMap direction="output">
                <channel index="0" sourceIndex="0"/>
                <channel index="1" sourceIndex="1"/>
              </channelMap>
              <parameter index="0" name="置き換え比率" parameterValue="0.4594713747501373291015625"/>
              <parameter index="1" name="精度" parameterValue="1"/>
              <parameter index="2" name="周波数" parameterValue="0.08154745399951934814453125"/>
              <parameter index="3" name="オーバーラップ" parameterValue="0.550195634365081787109375"/>
              <parameter index="4" name="デフォルト設定を使用する" parameterValue="0.75"/>
            </component>
          </slot>
        </effectsRack>
        <editParameter parameterIndex="0" slotIndex="4294967280"/>
        <audioClip clipAutoCrossfade="true" crossFadeHeadClipID="-1" crossFadeTailClipID="-1" endPoint="1951488" fileID="4" hue="-1" id="0" lockedInTime="false" looped="false" name="car-idling1" offline="false" select="false" sourceInPoint="0" sourceOutPoint="1951488" startPoint="0" zOrder="0">
          <component componentGuid="1cafa268-d19b-497a-9353-f061490bafa5" componentID="Audition.Fader" id="clipGain" name="volume" powered="true">
            <parameter index="0" name="volume" parameterValue="1"/>
            <parameter index="1" name="static gain" parameterValue="1"/>
          </component>
          <component componentGuid="224fb323-94eb-4c94-b0bd-b8fe07f76fa3" componentID="Audition.Mute" id="clipMute" name="Mute" powered="true">
            <parameter index="0" parameterValue="0"/>
            <parameter index="1" name="mute" parameterValue="0"/>
          </component>
          <component componentGuid="b188bb30-027f-4678-8982-7a71d9099724" componentID="Audition.StereoPanner" id="clipPan" name="StereoPanner" powered="true">
            <parameter index="0" name="パン" parameterValue="0"/>
          </component>
          <fadeIn crossFadeLinkType="linkedAsymmetric" endPoint="0" shape="0" startPoint="0" type="cosine"/>
          <fadeOut crossFadeLinkType="linkedAsymmetric" endPoint="1951488" shape="0" startPoint="1951488" type="cosine"/>
          <editParameter parameterIndex="0" slotIndex="4294967280"/>
          <editParameter parameterIndex="0" slotIndex="4294967281"/>
          <channelMap>
            <channel index="0" sourceIndex="0"/>
            <channel index="1" sourceIndex="1"/>
          </channelMap>
        </audioClip>
      </audioTrack>
      <audioTrack automationLaneOpenState="false" id="10015" index="7" select="false" visible="true">
        <trackParameters trackHeight="30" trackHue="182" trackMinimized="false">
          <name>トラック 15</name>
        </trackParameters>
        <trackAudioParameters audioChannelType="stereo" automationMode="1" monitoring="false" recordArmed="false" solo="false" soloSafe="false">
          <trackOutput outputID="10000" type="trackID"/>
          <trackInput inputID="1"/>
          <component componentGuid="cc6ea018-90b1-4b4a-b367-e2af176d06de" componentID="Audition.Fader" id="trackFader" name="volume" powered="true">
            <parameter index="0" name="volume" parameterValue="0.25118863582611083984375"/>
            <parameter index="1" name="static gain" parameterValue="1"/>
          </component>
          <component componentGuid="2df1d7c2-7a8a-4a2c-8021-9be8186e919a" componentID="Audition.Mute" id="trackMute" name="Mute" powered="true">
            <parameter index="0" parameterValue="0"/>
            <parameter index="1" name="mute" parameterValue="0"/>
          </component>
          <component componentGuid="5ea413cd-3454-450d-9668-f47519ca101c" componentID="Audition.StereoPanner" id="trackPan" name="StereoPanner" powered="true">
            <parameter index="0" name="パン" parameterValue="0"/>
          </component>
          <component componentGuid="07493c1f-5f7b-48ba-9c4b-df19536759d6" componentID="Audition.EQ" id="trackEQ" name="EQ" powered="false">
            <parameter index="0" name="ローシェルビング周波数" parameterValue="0.0009078529546968638896942138671875"/>
            <parameter index="1" name="ローシェルビングゲイン" parameterValue="0.5"/>
            <parameter index="2" name="ハイシェルビング周波数" parameterValue="0.816159784793853759765625"/>
            <parameter index="3" name="ハイシェルビングゲイン" parameterValue="0.5"/>
            <parameter index="4" name="EQ バンド 1 センター周波数" parameterValue="0.0013617794029414653778076171875"/>
            <parameter index="5" name="EQ バンド 1 Q" parameterValue="0.000199989997781813144683837890625"/>
            <parameter index="6" name="EQ バンド 1 ゲイン" parameterValue="0.5"/>
            <parameter index="7" name="EQ バンド 1 有効" parameterValue="1"/>
            <parameter index="8" name="EQ バンド 2 センター周波数" parameterValue="0.008170676417648792266845703125"/>
            <parameter index="9" name="EQ バンド 2 Q" parameterValue="0.000199989997781813144683837890625"/>
            <parameter index="10" name="EQ バンド 2 ゲイン" parameterValue="0.5"/>
            <parameter index="11" name="EQ バンド 2 有効" parameterValue="1"/>
            <parameter index="12" name="EQ バンド 3 センター周波数" parameterValue="0.0354062654078006744384765625"/>
            <parameter index="13" name="EQ バンド 3 Q" parameterValue="0.000199989997781813144683837890625"/>
            <parameter index="14" name="EQ バンド 3 ゲイン" parameterValue="0.5"/>
            <parameter index="15" name="EQ バンド 3 有効" parameterValue="1"/>
            <parameter index="16" name="EQ バンド 4 センター周波数" parameterValue="0.144348621368408203125"/>
            <parameter index="17" name="EQ バンド 4 Q" parameterValue="0.000199989997781813144683837890625"/>
            <parameter index="18" name="EQ バンド 4 ゲイン" parameterValue="0.5"/>
            <parameter index="19" name="EQ バンド 4 有効" parameterValue="1"/>
            <parameter index="20" name="EQ バンド 5 センター周波数" parameterValue="0.580118000507354736328125"/>
            <parameter index="21" name="EQ バンド 5 Q" parameterValue="0.000199989997781813144683837890625"/>
            <parameter index="22" name="EQ バンド 5 ゲイン" parameterValue="0.5"/>
            <parameter index="23" name="EQ バンド 5 有効" parameterValue="1"/>
            <parameter index="24" name="マスターゲイン" parameterValue="0.666666686534881591796875"/>
            <parameter index="25" name="ConstantQ" parameterValue="1"/>
            <parameter index="26" name="ローシェルビングフィルター次数" parameterValue="0"/>
            <parameter index="27" name="ハイシェルビングフィルター次数" parameterValue="0"/>
            <parameter index="28" name="ノイズレスモード" parameterValue="0"/>
            <parameter index="29" name="ローシェルビング有効" parameterValue="1"/>
            <parameter index="30" name="ハイシェルビング有効" parameterValue="1"/>
            <parameter index="31" name="オリジナルサンプルレート" parameterValue="0.22968749701976776123046875"/>
            <parameter index="32" name="EQ バンド 1 バンド幅" parameterValue="0.002499990165233612060546875"/>
            <parameter index="33" name="EQ バンド 2 バンド幅" parameterValue="0.0099999904632568359375"/>
            <parameter index="34" name="EQ バンド 3 バンド幅" parameterValue="0.0399999916553497314453125"/>
            <parameter index="35" name="EQ バンド 4 バンド幅" parameterValue="0.15999998152256011962890625"/>
            <parameter index="36" name="EQ バンド 5 バンド幅" parameterValue="0.63999998569488525390625"/>
            <parameter index="37" name="ハイパスフィルター有効" parameterValue="0"/>
            <parameter index="38" name="ハイパスカットオフ周波数" parameterValue="0"/>
            <parameter index="39" name="ハイパススロープ" parameterValue="0.4000000059604644775390625"/>
            <parameter index="40" name="ローパスフィルター有効" parameterValue="0"/>
            <parameter index="41" name="ローパスカットオフ周波数" parameterValue="0.906945049762725830078125"/>
            <parameter index="42" name="ローパススロープ" parameterValue="0.4000000059604644775390625"/>
            <parameter index="43" name="バイパス" parameterValue="0"/>
            <parameter index="44" name="LowGraphRange" parameterValue="1"/>
          </component>
        </trackAudioParameters>
        <editParameter parameterIndex="0" slotIndex="4294967280"/>
        <audioClip clipAutoCrossfade="true" crossFadeHeadClipID="-1" crossFadeTailClipID="1" endPoint="737280" fileID="5" hue="-1" id="0" lockedInTime="false" looped="false" name="dump-truck-idling1" offline="false" select="false" sourceInPoint="0" sourceOutPoint="737280" startPoint="0" zOrder="0">
          <component componentGuid="1ee1de8a-d5db-4260-ad1f-a30d8bdcf4a1" componentID="Audition.Fader" id="clipGain" name="volume" powered="true">
            <parameter index="0" name="volume" parameterValue="1"/>
            <parameter index="1" name="static gain" parameterValue="1"/>
          </component>
          <component componentGuid="a7422fb6-8e7d-4e6e-9727-60202bfe6811" componentID="Audition.Mute" id="clipMute" name="Mute" powered="true">
            <parameter index="0" parameterValue="0"/>
            <parameter index="1" name="mute" parameterValue="0"/>
          </component>
          <component componentGuid="200a3e6d-1041-43c4-9caf-1ce2b09d1f8b" componentID="Audition.StereoPanner" id="clipPan" name="StereoPanner" powered="true">
            <parameter index="0" name="パン" parameterValue="0"/>
          </component>
          <fadeIn crossFadeLinkType="linkedAsymmetric" endPoint="0" shape="0" startPoint="0" type="cosine"/>
          <fadeOut crossFadeLinkType="linkedAsymmetric" endPoint="737280" shape="19" startPoint="731989" type="log"/>
          <editParameter parameterIndex="0" slotIndex="4294967280"/>
          <editParameter parameterIndex="0" slotIndex="4294967281"/>
          <channelMap>
            <channel index="0" sourceIndex="0"/>
            <channel index="1" sourceIndex="1"/>
          </channelMap>
        </audioClip>
        <audioClip clipAutoCrossfade="true" crossFadeHeadClipID="0" crossFadeTailClipID="-1" endPoint="1469269" fileID="5" hue="-1" id="1" lockedInTime="false" looped="false" name="dump-truck-idling1" offline="false" select="false" sourceInPoint="0" sourceOutPoint="737280" startPoint="731989" zOrder="1">
          <component componentGuid="eba451a2-0550-4d3f-a59d-3ac93cb7e126" componentID="Audition.Fader" id="clipGain" name="volume" powered="true">
            <parameter index="0" name="volume" parameterValue="1"/>
            <parameter index="1" name="static gain" parameterValue="1"/>
          </component>
          <component componentGuid="99b836c4-6529-4b35-824f-81621fe25a05" componentID="Audition.Mute" id="clipMute" name="Mute" powered="true">
            <parameter index="0" parameterValue="0"/>
            <parameter index="1" name="mute" parameterValue="0"/>
          </component>
          <component componentGuid="49bdf7dc-b2c6-49cf-9187-f192e730c07b" componentID="Audition.StereoPanner" id="clipPan" name="StereoPanner" powered="true">
            <parameter index="0" name="パン" parameterValue="0"/>
          </component>
          <fadeIn crossFadeLinkType="linkedAsymmetric" endPoint="5291" shape="18" startPoint="0" type="log"/>
          <fadeOut crossFadeLinkType="linkedAsymmetric" endPoint="737280" shape="0" startPoint="737280" type="cosine"/>
          <editParameter parameterIndex="0" slotIndex="4294967280"/>
          <editParameter parameterIndex="0" slotIndex="4294967281"/>
          <channelMap>
            <channel index="0" sourceIndex="0"/>
            <channel index="1" sourceIndex="1"/>
          </channelMap>
        </audioClip>
      </audioTrack>
      <audioTrack automationLaneOpenState="false" id="10011" index="8" select="false" visible="true">
        <trackParameters trackHeight="30" trackHue="32" trackMinimized="false">
          <name>トラック 11</name>
        </trackParameters>
        <trackAudioParameters audioChannelType="stereo" automationMode="1" monitoring="false" recordArmed="false" solo="false" soloSafe="false">
          <trackOutput outputID="10000" type="trackID"/>
          <trackInput inputID="1"/>
          <component componentGuid="07f9523c-a74b-4579-afd1-20b02d4bdc0c" componentID="Audition.Fader" id="trackFader" name="volume" powered="true">
            <parameter index="0" name="volume" parameterValue="0.316227734088897705078125"/>
            <parameter index="1" name="static gain" parameterValue="1"/>
          </component>
          <component componentGuid="6c2a86ba-1921-43b5-af78-40aef2472a33" componentID="Audition.Mute" id="trackMute" name="Mute" powered="true">
            <parameter index="0" parameterValue="0"/>
            <parameter index="1" name="mute" parameterValue="0"/>
          </component>
          <component componentGuid="c29d1a06-1785-4a90-a429-e1e9457ad5e9" componentID="Audition.StereoPanner" id="trackPan" name="StereoPanner" powered="true">
            <parameter index="0" name="パン" parameterValue="0"/>
          </component>
          <component componentGuid="755aefa8-b092-4f64-aba9-19a7a86522e3" componentID="Audition.EQ" id="trackEQ" name="EQ" powered="false">
            <parameter index="0" name="ローシェルビング周波数" parameterValue="0.0009078529546968638896942138671875"/>
            <parameter index="1" name="ローシェルビングゲイン" parameterValue="0.5"/>
            <parameter index="2" name="ハイシェルビング周波数" parameterValue="0.816159784793853759765625"/>
            <parameter index="3" name="ハイシェルビングゲイン" parameterValue="0.5"/>
            <parameter index="4" name="EQ バンド 1 センター周波数" parameterValue="0.0013617794029414653778076171875"/>
            <parameter index="5" name="EQ バンド 1 Q" parameterValue="0.000199989997781813144683837890625"/>
            <parameter index="6" name="EQ バンド 1 ゲイン" parameterValue="0.5"/>
            <parameter index="7" name="EQ バンド 1 有効" parameterValue="1"/>
            <parameter index="8" name="EQ バンド 2 センター周波数" parameterValue="0.008170676417648792266845703125"/>
            <parameter index="9" name="EQ バンド 2 Q" parameterValue="0.000199989997781813144683837890625"/>
            <parameter index="10" name="EQ バンド 2 ゲイン" parameterValue="0.5"/>
            <parameter index="11" name="EQ バンド 2 有効" parameterValue="1"/>
            <parameter index="12" name="EQ バンド 3 センター周波数" parameterValue="0.0354062654078006744384765625"/>
            <parameter index="13" name="EQ バンド 3 Q" parameterValue="0.000199989997781813144683837890625"/>
            <parameter index="14" name="EQ バンド 3 ゲイン" parameterValue="0.5"/>
            <parameter index="15" name="EQ バンド 3 有効" parameterValue="1"/>
            <parameter index="16" name="EQ バンド 4 センター周波数" parameterValue="0.144348621368408203125"/>
            <parameter index="17" name="EQ バンド 4 Q" parameterValue="0.000199989997781813144683837890625"/>
            <parameter index="18" name="EQ バンド 4 ゲイン" parameterValue="0.5"/>
            <parameter index="19" name="EQ バンド 4 有効" parameterValue="1"/>
            <parameter index="20" name="EQ バンド 5 センター周波数" parameterValue="0.580118000507354736328125"/>
            <parameter index="21" name="EQ バンド 5 Q" parameterValue="0.000199989997781813144683837890625"/>
            <parameter index="22" name="EQ バンド 5 ゲイン" parameterValue="0.5"/>
            <parameter index="23" name="EQ バンド 5 有効" parameterValue="1"/>
            <parameter index="24" name="マスターゲイン" parameterValue="0.666666686534881591796875"/>
            <parameter index="25" name="ConstantQ" parameterValue="1"/>
            <parameter index="26" name="ローシェルビングフィルター次数" parameterValue="0"/>
            <parameter index="27" name="ハイシェルビングフィルター次数" parameterValue="0"/>
            <parameter index="28" name="ノイズレスモード" parameterValue="0"/>
            <parameter index="29" name="ローシェルビング有効" parameterValue="1"/>
            <parameter index="30" name="ハイシェルビング有効" parameterValue="1"/>
            <parameter index="31" name="オリジナルサンプルレート" parameterValue="0.22968749701976776123046875"/>
            <parameter index="32" name="EQ バンド 1 バンド幅" parameterValue="0.002499990165233612060546875"/>
            <parameter index="33" name="EQ バンド 2 バンド幅" parameterValue="0.0099999904632568359375"/>
            <parameter index="34" name="EQ バンド 3 バンド幅" parameterValue="0.0399999916553497314453125"/>
            <parameter index="35" name="EQ バンド 4 バンド幅" parameterValue="0.15999998152256011962890625"/>
            <parameter index="36" name="EQ バンド 5 バンド幅" parameterValue="0.63999998569488525390625"/>
            <parameter index="37" name="ハイパスフィルター有効" parameterValue="0"/>
            <parameter index="38" name="ハイパスカットオフ周波数" parameterValue="0"/>
            <parameter index="39" name="ハイパススロープ" parameterValue="0.4000000059604644775390625"/>
            <parameter index="40" name="ローパスフィルター有効" parameterValue="0"/>
            <parameter index="41" name="ローパスカットオフ周波数" parameterValue="0.906945049762725830078125"/>
            <parameter index="42" name="ローパススロープ" parameterValue="0.4000000059604644775390625"/>
            <parameter index="43" name="バイパス" parameterValue="0"/>
            <parameter index="44" name="LowGraphRange" parameterValue="1"/>
          </component>
        </trackAudioParameters>
        <editParameter parameterIndex="0" slotIndex="4294967280"/>
        <audioClip clipAutoCrossfade="true" crossFadeHeadClipID="-1" crossFadeTailClipID="-1" endPoint="1951488" fileID="4" hue="-1" id="0" lockedInTime="false" looped="false" name="car-idling1" offline="false" select="false" sourceInPoint="0" sourceOutPoint="1951488" startPoint="0" zOrder="0">
          <component componentGuid="6a5b1489-ae3a-4614-b8e8-51afc54cf002" componentID="Audition.Fader" id="clipGain" name="volume" powered="true">
            <parameter index="0" name="volume" parameterValue="1"/>
            <parameter index="1" name="static gain" parameterValue="1"/>
          </component>
          <component componentGuid="06496358-e6ec-43a1-bcc6-9ddf7f7a3ebc" componentID="Audition.Mute" id="clipMute" name="Mute" powered="true">
            <parameter index="0" parameterValue="0"/>
            <parameter index="1" name="mute" parameterValue="0"/>
          </component>
          <component componentGuid="9bde2ae6-8c70-46b5-913a-7903d945f50e" componentID="Audition.StereoPanner" id="clipPan" name="StereoPanner" powered="true">
            <parameter index="0" name="パン" parameterValue="0"/>
          </component>
          <fadeIn crossFadeLinkType="linkedAsymmetric" endPoint="0" shape="0" startPoint="0" type="cosine"/>
          <fadeOut crossFadeLinkType="linkedAsymmetric" endPoint="1951488" shape="0" startPoint="1951488" type="cosine"/>
          <editParameter parameterIndex="0" slotIndex="4294967280"/>
          <editParameter parameterIndex="0" slotIndex="4294967281"/>
          <channelMap>
            <channel index="0" sourceIndex="0"/>
            <channel index="1" sourceIndex="1"/>
          </channelMap>
        </audioClip>
      </audioTrack>
      <audioTrack automationLaneOpenState="false" id="10003" index="9" select="false" visible="true">
        <trackParameters trackHeight="30" trackHue="51" trackMinimized="false">
          <name>トラック 3</name>
        </trackParameters>
        <trackAudioParameters audioChannelType="stereo" automationMode="1" monitoring="false" recordArmed="false" solo="false" soloSafe="false">
          <trackOutput outputID="10000" type="trackID"/>
          <trackInput inputID="1"/>
          <component componentGuid="435c608a-e2d8-40bf-a33d-c6664db35f8a" componentID="Audition.Fader" id="trackFader" name="volume" powered="true">
            <parameter index="0" name="volume" parameterValue="0.100000001490116119384765625"/>
            <parameter index="1" name="static gain" parameterValue="1"/>
          </component>
          <component componentGuid="230a717a-29ab-4b6d-acb3-d26844c0eb92" componentID="Audition.Mute" id="trackMute" name="Mute" powered="true">
            <parameter index="0" parameterValue="0"/>
            <parameter index="1" name="mute" parameterValue="0"/>
          </component>
          <component componentGuid="725f832d-0674-401d-9f2a-23ae075e6668" componentID="Audition.StereoPanner" id="trackPan" name="StereoPanner" powered="true">
            <parameter index="0" name="パン" parameterValue="0"/>
          </component>
          <component componentGuid="5ebf922a-0ba4-4274-807c-cda4a193cc65" componentID="Audition.EQ" id="trackEQ" name="EQ" powered="false">
            <parameter index="0" name="ローシェルビング周波数" parameterValue="0.0009078529546968638896942138671875"/>
            <parameter index="1" name="ローシェルビングゲイン" parameterValue="0.5"/>
            <parameter index="2" name="ハイシェルビング周波数" parameterValue="0.816159784793853759765625"/>
            <parameter index="3" name="ハイシェルビングゲイン" parameterValue="0.5"/>
            <parameter index="4" name="EQ バンド 1 センター周波数" parameterValue="0.0013617794029414653778076171875"/>
            <parameter index="5" name="EQ バンド 1 Q" parameterValue="0.000199989997781813144683837890625"/>
            <parameter index="6" name="EQ バンド 1 ゲイン" parameterValue="0.5"/>
            <parameter index="7" name="EQ バンド 1 有効" parameterValue="1"/>
            <parameter index="8" name="EQ バンド 2 センター周波数" parameterValue="0.008170676417648792266845703125"/>
            <parameter index="9" name="EQ バンド 2 Q" parameterValue="0.000199989997781813144683837890625"/>
            <parameter index="10" name="EQ バンド 2 ゲイン" parameterValue="0.5"/>
            <parameter index="11" name="EQ バンド 2 有効" parameterValue="1"/>
            <parameter index="12" name="EQ バンド 3 センター周波数" parameterValue="0.0354062654078006744384765625"/>
            <parameter index="13" name="EQ バンド 3 Q" parameterValue="0.000199989997781813144683837890625"/>
            <parameter index="14" name="EQ バンド 3 ゲイン" parameterValue="0.5"/>
            <parameter index="15" name="EQ バンド 3 有効" parameterValue="1"/>
            <parameter index="16" name="EQ バンド 4 センター周波数" parameterValue="0.144348621368408203125"/>
            <parameter index="17" name="EQ バンド 4 Q" parameterValue="0.000199989997781813144683837890625"/>
            <parameter index="18" name="EQ バンド 4 ゲイン" parameterValue="0.5"/>
            <parameter index="19" name="EQ バンド 4 有効" parameterValue="1"/>
            <parameter index="20" name="EQ バンド 5 センター周波数" parameterValue="0.580118000507354736328125"/>
            <parameter index="21" name="EQ バンド 5 Q" parameterValue="0.000199989997781813144683837890625"/>
            <parameter index="22" name="EQ バンド 5 ゲイン" parameterValue="0.5"/>
            <parameter index="23" name="EQ バンド 5 有効" parameterValue="1"/>
            <parameter index="24" name="マスターゲイン" parameterValue="0.666666686534881591796875"/>
            <parameter index="25" name="ConstantQ" parameterValue="1"/>
            <parameter index="26" name="ローシェルビングフィルター次数" parameterValue="0"/>
            <parameter index="27" name="ハイシェルビングフィルター次数" parameterValue="0"/>
            <parameter index="28" name="ノイズレスモード" parameterValue="0"/>
            <parameter index="29" name="ローシェルビング有効" parameterValue="1"/>
            <parameter index="30" name="ハイシェルビング有効" parameterValue="1"/>
            <parameter index="31" name="オリジナルサンプルレート" parameterValue="0.22968749701976776123046875"/>
            <parameter index="32" name="EQ バンド 1 バンド幅" parameterValue="0.002499990165233612060546875"/>
            <parameter index="33" name="EQ バンド 2 バンド幅" parameterValue="0.0099999904632568359375"/>
            <parameter index="34" name="EQ バンド 3 バンド幅" parameterValue="0.0399999916553497314453125"/>
            <parameter index="35" name="EQ バンド 4 バンド幅" parameterValue="0.15999998152256011962890625"/>
            <parameter index="36" name="EQ バンド 5 バンド幅" parameterValue="0.63999998569488525390625"/>
            <parameter index="37" name="ハイパスフィルター有効" parameterValue="0"/>
            <parameter index="38" name="ハイパスカットオフ周波数" parameterValue="0"/>
            <parameter index="39" name="ハイパススロープ" parameterValue="0.4000000059604644775390625"/>
            <parameter index="40" name="ローパスフィルター有効" parameterValue="0"/>
            <parameter index="41" name="ローパスカットオフ周波数" parameterValue="0.906945049762725830078125"/>
            <parameter index="42" name="ローパススロープ" parameterValue="0.4000000059604644775390625"/>
            <parameter index="43" name="バイパス" parameterValue="0"/>
            <parameter index="44" name="LowGraphRange" parameterValue="1"/>
          </component>
        </trackAudioParameters>
        <effectsRack preFader="true">
          <component componentGuid="22b2d7c7-3292-43fb-9ee1-3f482d2b8583" componentID="Audition.ComponentGroup" id="rackMix" powered="true">
            <parameter index="0" parameterValue="0"/>
            <parameter index="1" parameterValue="0"/>
          </component>
          <component componentGuid="560967b6-4530-4e2b-8e4d-c1e6d3783d70" id="rackInput" powered="true">
            <parameter index="0" parameterValue="1"/>
            <parameter index="1" parameterValue="0"/>
          </component>
          <component componentGuid="566dd6ca-95a4-42b2-8b0a-a8231ff7b29a" id="rackOutput" powered="true">
            <parameter index="0" parameterValue="1"/>
            <parameter index="1" parameterValue="0"/>
          </component>
          <slot powered="true" slotIndex="0">
            <component componentGuid="268d3778-4635-41e5-b9c8-3781a4a5e52c" componentID="164b4e8a-7105-406b-b23b-1ef2cc4d8957" editorHeight="415" editorLeft="479" editorTop="234" editorWidth="495" name="ピッチシフター">
              <busConfig><![CDATA[{"in":[{"layout":[100,101],"name":"ステレオ入力","type":0}],"out":[{"layout":[100,101],"name":"ステレオ出力","type":0}]}]]></busConfig>
              <channelMap direction="input">
                <channel index="0" sourceIndex="0"/>
                <channel index="1" sourceIndex="1"/>
              </channelMap>
              <channelMap direction="output">
                <channel index="0" sourceIndex="0"/>
                <channel index="1" sourceIndex="1"/>
              </channelMap>
              <parameter index="0" name="置き換え比率" parameterValue="0.2981007993221282958984375"/>
              <parameter index="1" name="精度" parameterValue="1"/>
              <parameter index="2" name="周波数" parameterValue="0.08853600919246673583984375"/>
              <parameter index="3" name="オーバーラップ" parameterValue="0.58374702930450439453125"/>
              <parameter index="4" name="デフォルト設定を使用する" parameterValue="0.75"/>
            </component>
          </slot>
        </effectsRack>
        <editParameter parameterIndex="0" slotIndex="4294967280"/>
        <audioClip clipAutoCrossfade="true" crossFadeHeadClipID="-1" crossFadeTailClipID="-1" endPoint="270720" fileID="6" hue="-1" id="0" lockedInTime="false" looped="false" name="car-pass" offline="false" select="false" sourceInPoint="0" sourceOutPoint="270720" startPoint="0" zOrder="3">
          <component componentGuid="b342def2-ac63-425d-a495-6e2b84065a19" componentID="Audition.Fader" id="clipGain" name="volume" powered="true">
            <parameter index="0" name="volume" parameterValue="1"/>
            <parameter index="1" name="static gain" parameterValue="1"/>
          </component>
          <component componentGuid="c88fb85c-429b-408c-a3a1-2218be7edc3e" componentID="Audition.Mute" id="clipMute" name="Mute" powered="true">
            <parameter index="0" parameterValue="0"/>
            <parameter index="1" name="mute" parameterValue="0"/>
          </component>
          <component componentGuid="96d74858-ef1d-432d-aa9f-d9dc50b23d15" componentID="Audition.StereoPanner" id="clipPan" name="StereoPanner" powered="true">
            <parameter index="0" name="パン" parameterValue="0"/>
          </component>
          <fadeIn crossFadeLinkType="linkedAsymmetric" endPoint="0" shape="0" startPoint="0" type="cosine"/>
          <fadeOut crossFadeLinkType="linkedAsymmetric" endPoint="270720" shape="0" startPoint="270720" type="cosine"/>
          <editParameter parameterIndex="0" slotIndex="4294967280"/>
          <editParameter parameterIndex="0" slotIndex="4294967281"/>
          <channelMap>
            <channel index="0" sourceIndex="0"/>
            <channel index="1" sourceIndex="1"/>
          </channelMap>
        </audioClip>
        <audioClip clipAutoCrossfade="true" crossFadeHeadClipID="-1" crossFadeTailClipID="-1" endPoint="590625" fileID="6" hue="-1" id="1" lockedInTime="false" looped="false" name="car-pass" offline="false" select="false" sourceInPoint="0" sourceOutPoint="270720" startPoint="319905" zOrder="0">
          <component componentGuid="fa45e717-d657-49be-aac1-e3a39aac0c9d" componentID="Audition.Fader" id="clipGain" name="volume" powered="true">
            <parameter index="0" name="volume" parameterValue="1"/>
            <parameter index="1" name="static gain" parameterValue="1"/>
          </component>
          <component componentGuid="2cc45a4a-effb-4ab3-98ba-1f653d7115a6" componentID="Audition.Mute" id="clipMute" name="Mute" powered="true">
            <parameter index="0" parameterValue="0"/>
            <parameter index="1" name="mute" parameterValue="0"/>
          </component>
          <component componentGuid="1ef04c5e-f98a-4899-abf9-256751622c46" componentID="Audition.StereoPanner" id="clipPan" name="StereoPanner" powered="true">
            <parameter index="0" name="パン" parameterValue="0"/>
          </component>
          <fadeIn crossFadeLinkType="linkedAsymmetric" endPoint="0" shape="0" startPoint="0" type="cosine"/>
          <fadeOut crossFadeLinkType="linkedAsymmetric" endPoint="270720" shape="0" startPoint="270720" type="cosine"/>
          <editParameter parameterIndex="0" slotIndex="4294967280"/>
          <editParameter parameterIndex="0" slotIndex="4294967281"/>
          <channelMap>
            <channel index="0" sourceIndex="0"/>
            <channel index="1" sourceIndex="1"/>
          </channelMap>
        </audioClip>
        <audioClip clipAutoCrossfade="true" crossFadeHeadClipID="-1" crossFadeTailClipID="-1" endPoint="905108" fileID="6" hue="-1" id="2" lockedInTime="false" looped="false" name="car-pass" offline="false" select="false" sourceInPoint="0" sourceOutPoint="270720" startPoint="634388" zOrder="1">
          <component componentGuid="803ba4cb-1a71-4393-892d-e3df04695167" componentID="Audition.Fader" id="clipGain" name="volume" powered="true">
            <parameter index="0" name="volume" parameterValue="1"/>
            <parameter index="1" name="static gain" parameterValue="1"/>
          </component>
          <component componentGuid="ebe38ca7-3312-437e-89b9-869f1624419d" componentID="Audition.Mute" id="clipMute" name="Mute" powered="true">
            <parameter index="0" parameterValue="0"/>
            <parameter index="1" name="mute" parameterValue="0"/>
          </component>
          <component componentGuid="c03bbc63-7cc7-4cef-a2b2-3bbbb531dc79" componentID="Audition.StereoPanner" id="clipPan" name="StereoPanner" powered="true">
            <parameter index="0" name="パン" parameterValue="0"/>
          </component>
          <fadeIn crossFadeLinkType="linkedAsymmetric" endPoint="0" shape="0" startPoint="0" type="cosine"/>
          <fadeOut crossFadeLinkType="linkedAsymmetric" endPoint="270720" shape="0" startPoint="270720" type="cosine"/>
          <editParameter parameterIndex="0" slotIndex="4294967280"/>
          <editParameter parameterIndex="0" slotIndex="4294967281"/>
          <channelMap>
            <channel index="0" sourceIndex="0"/>
            <channel index="1" sourceIndex="1"/>
          </channelMap>
        </audioClip>
        <audioClip clipAutoCrossfade="true" crossFadeHeadClipID="-1" crossFadeTailClipID="-1" endPoint="1181636" fileID="6" hue="-1" id="3" lockedInTime="false" looped="false" name="car-pass" offline="false" select="false" sourceInPoint="0" sourceOutPoint="270720" startPoint="910916" zOrder="2">
          <component componentGuid="6b7044a5-ce77-4780-9d18-8e47798257f3" componentID="Audition.Fader" id="clipGain" name="volume" powered="true">
            <parameter index="0" name="volume" parameterValue="1"/>
            <parameter index="1" name="static gain" parameterValue="1"/>
          </component>
          <component componentGuid="136e2b82-2603-4037-9c3f-13c6c8924de0" componentID="Audition.Mute" id="clipMute" name="Mute" powered="true">
            <parameter index="0" parameterValue="0"/>
            <parameter index="1" name="mute" parameterValue="0"/>
          </component>
          <component componentGuid="8180b50c-86cf-4ae1-a259-d7b1e56740f4" componentID="Audition.StereoPanner" id="clipPan" name="StereoPanner" powered="true">
            <parameter index="0" name="パン" parameterValue="0"/>
          </component>
          <fadeIn crossFadeLinkType="linkedAsymmetric" endPoint="0" shape="0" startPoint="0" type="cosine"/>
          <fadeOut crossFadeLinkType="linkedAsymmetric" endPoint="270720" shape="0" startPoint="270720" type="cosine"/>
          <editParameter parameterIndex="0" slotIndex="4294967280"/>
          <editParameter parameterIndex="0" slotIndex="4294967281"/>
          <channelMap>
            <channel index="0" sourceIndex="0"/>
            <channel index="1" sourceIndex="1"/>
          </channelMap>
        </audioClip>
      </audioTrack>
      <audioTrack automationLaneOpenState="false" id="10004" index="10" select="false" visible="true">
        <trackParameters trackHeight="30" trackHue="182" trackMinimized="false">
          <name>トラック 4</name>
        </trackParameters>
        <trackAudioParameters audioChannelType="stereo" automationMode="1" monitoring="false" recordArmed="false" solo="false" soloSafe="false">
          <trackOutput outputID="10000" type="trackID"/>
          <trackInput inputID="1"/>
          <component componentGuid="de12c1ba-97d8-4449-bda2-9dcdb92b06be" componentID="Audition.Fader" id="trackFader" name="volume" powered="true">
            <parameter index="0" name="volume" parameterValue="0.100000001490116119384765625"/>
            <parameter index="1" name="static gain" parameterValue="1"/>
          </component>
          <component componentGuid="8f84a50a-836d-4338-a4b4-cd9f2328bf17" componentID="Audition.Mute" id="trackMute" name="Mute" powered="true">
            <parameter index="0" parameterValue="0"/>
            <parameter index="1" name="mute" parameterValue="0"/>
          </component>
          <component componentGuid="194d26db-2a01-4976-96d0-2417d94f6d0b" componentID="Audition.StereoPanner" id="trackPan" name="StereoPanner" powered="true">
            <parameter index="0" name="パン" parameterValue="0"/>
          </component>
          <component componentGuid="d975f4e5-10c2-4217-8ae0-824fa9f19fc5" componentID="Audition.EQ" id="trackEQ" name="EQ" powered="false">
            <parameter index="0" name="ローシェルビング周波数" parameterValue="0.0009078529546968638896942138671875"/>
            <parameter index="1" name="ローシェルビングゲイン" parameterValue="0.5"/>
            <parameter index="2" name="ハイシェルビング周波数" parameterValue="0.816159784793853759765625"/>
            <parameter index="3" name="ハイシェルビングゲイン" parameterValue="0.5"/>
            <parameter index="4" name="EQ バンド 1 センター周波数" parameterValue="0.0013617794029414653778076171875"/>
            <parameter index="5" name="EQ バンド 1 Q" parameterValue="0.000199989997781813144683837890625"/>
            <parameter index="6" name="EQ バンド 1 ゲイン" parameterValue="0.5"/>
            <parameter index="7" name="EQ バンド 1 有効" parameterValue="1"/>
            <parameter index="8" name="EQ バンド 2 センター周波数" parameterValue="0.008170676417648792266845703125"/>
            <parameter index="9" name="EQ バンド 2 Q" parameterValue="0.000199989997781813144683837890625"/>
            <parameter index="10" name="EQ バンド 2 ゲイン" parameterValue="0.5"/>
            <parameter index="11" name="EQ バンド 2 有効" parameterValue="1"/>
            <parameter index="12" name="EQ バンド 3 センター周波数" parameterValue="0.0354062654078006744384765625"/>
            <parameter index="13" name="EQ バンド 3 Q" parameterValue="0.000199989997781813144683837890625"/>
            <parameter index="14" name="EQ バンド 3 ゲイン" parameterValue="0.5"/>
            <parameter index="15" name="EQ バンド 3 有効" parameterValue="1"/>
            <parameter index="16" name="EQ バンド 4 センター周波数" parameterValue="0.144348621368408203125"/>
            <parameter index="17" name="EQ バンド 4 Q" parameterValue="0.000199989997781813144683837890625"/>
            <parameter index="18" name="EQ バンド 4 ゲイン" parameterValue="0.5"/>
            <parameter index="19" name="EQ バンド 4 有効" parameterValue="1"/>
            <parameter index="20" name="EQ バンド 5 センター周波数" parameterValue="0.580118000507354736328125"/>
            <parameter index="21" name="EQ バンド 5 Q" parameterValue="0.000199989997781813144683837890625"/>
            <parameter index="22" name="EQ バンド 5 ゲイン" parameterValue="0.5"/>
            <parameter index="23" name="EQ バンド 5 有効" parameterValue="1"/>
            <parameter index="24" name="マスターゲイン" parameterValue="0.666666686534881591796875"/>
            <parameter index="25" name="ConstantQ" parameterValue="1"/>
            <parameter index="26" name="ローシェルビングフィルター次数" parameterValue="0"/>
            <parameter index="27" name="ハイシェルビングフィルター次数" parameterValue="0"/>
            <parameter index="28" name="ノイズレスモード" parameterValue="0"/>
            <parameter index="29" name="ローシェルビング有効" parameterValue="1"/>
            <parameter index="30" name="ハイシェルビング有効" parameterValue="1"/>
            <parameter index="31" name="オリジナルサンプルレート" parameterValue="0.22968749701976776123046875"/>
            <parameter index="32" name="EQ バンド 1 バンド幅" parameterValue="0.002499990165233612060546875"/>
            <parameter index="33" name="EQ バンド 2 バンド幅" parameterValue="0.0099999904632568359375"/>
            <parameter index="34" name="EQ バンド 3 バンド幅" parameterValue="0.0399999916553497314453125"/>
            <parameter index="35" name="EQ バンド 4 バンド幅" parameterValue="0.15999998152256011962890625"/>
            <parameter index="36" name="EQ バンド 5 バンド幅" parameterValue="0.63999998569488525390625"/>
            <parameter index="37" name="ハイパスフィルター有効" parameterValue="0"/>
            <parameter index="38" name="ハイパスカットオフ周波数" parameterValue="0"/>
            <parameter index="39" name="ハイパススロープ" parameterValue="0.4000000059604644775390625"/>
            <parameter index="40" name="ローパスフィルター有効" parameterValue="0"/>
            <parameter index="41" name="ローパスカットオフ周波数" parameterValue="0.906945049762725830078125"/>
            <parameter index="42" name="ローパススロープ" parameterValue="0.4000000059604644775390625"/>
            <parameter index="43" name="バイパス" parameterValue="0"/>
            <parameter index="44" name="LowGraphRange" parameterValue="1"/>
          </component>
        </trackAudioParameters>
        <effectsRack preFader="true">
          <component componentGuid="ef48d493-9353-485f-8027-42565d0a50bc" componentID="Audition.ComponentGroup" id="rackMix" powered="true">
            <parameter index="0" parameterValue="0"/>
            <parameter index="1" parameterValue="0"/>
          </component>
          <component componentGuid="fa2b0153-71f2-49fd-87cb-919d079a9131" id="rackInput" powered="true">
            <parameter index="0" parameterValue="1"/>
            <parameter index="1" parameterValue="0"/>
          </component>
          <component componentGuid="bde016b0-9d85-4b0c-b6c1-36498fcc2f51" id="rackOutput" powered="true">
            <parameter index="0" parameterValue="1"/>
            <parameter index="1" parameterValue="0"/>
          </component>
          <slot powered="true" slotIndex="0">
            <component componentGuid="f7f8c5a3-a5c5-4358-bd43-933cc47bd9bf" componentID="164b4e8a-7105-406b-b23b-1ef2cc4d8957" editorHeight="415" editorLeft="649" editorTop="226" editorWidth="495" name="ピッチシフター">
              <busConfig><![CDATA[{"in":[{"layout":[100,101],"name":"ステレオ入力","type":0}],"out":[{"layout":[100,101],"name":"ステレオ出力","type":0}]}]]></busConfig>
              <channelMap direction="input">
                <channel index="0" sourceIndex="0"/>
                <channel index="1" sourceIndex="1"/>
              </channelMap>
              <channelMap direction="output">
                <channel index="0" sourceIndex="0"/>
                <channel index="1" sourceIndex="1"/>
              </channelMap>
              <parameter index="0" name="置き換え比率" parameterValue="0.4620722234249114990234375"/>
              <parameter index="1" name="精度" parameterValue="1"/>
              <parameter index="2" name="周波数" parameterValue="0.081446878612041473388671875"/>
              <parameter index="3" name="オーバーラップ" parameterValue="0.5498294830322265625"/>
              <parameter index="4" name="デフォルト設定を使用する" parameterValue="0.75"/>
            </component>
          </slot>
        </effectsRack>
        <editParameter parameterIndex="0" slotIndex="4294967280"/>
        <audioClip clipAutoCrossfade="true" crossFadeHeadClipID="-1" crossFadeTailClipID="-1" endPoint="171828" fileID="6" hue="-1" id="0" lockedInTime="false" looped="false" name="car-pass" offline="false" select="false" sourceInPoint="98892" sourceOutPoint="270720" startPoint="0" zOrder="3">
          <component componentGuid="b8cb44f0-62ce-4d4e-b74b-e0356e0810b1" componentID="Audition.Fader" id="clipGain" name="volume" powered="true">
            <parameter index="0" name="volume" parameterValue="1"/>
            <parameter index="1" name="static gain" parameterValue="1"/>
          </component>
          <component componentGuid="1c5242c1-5c11-49f3-bf06-dfc63680419d" componentID="Audition.Mute" id="clipMute" name="Mute" powered="true">
            <parameter index="0" parameterValue="0"/>
            <parameter index="1" name="mute" parameterValue="0"/>
          </component>
          <component componentGuid="c0fcbf98-2b58-4aeb-8c33-b5dfd99dc671" componentID="Audition.StereoPanner" id="clipPan" name="StereoPanner" powered="true">
            <parameter index="0" name="パン" parameterValue="0"/>
          </component>
          <fadeIn crossFadeLinkType="linkedAsymmetric" endPoint="0" shape="0" startPoint="0" type="cosine"/>
          <fadeOut crossFadeLinkType="linkedAsymmetric" endPoint="171828" shape="0" startPoint="171828" type="cosine"/>
          <editParameter parameterIndex="0" slotIndex="4294967280"/>
          <editParameter parameterIndex="0" slotIndex="4294967281"/>
          <channelMap>
            <channel index="0" sourceIndex="0"/>
            <channel index="1" sourceIndex="1"/>
          </channelMap>
        </audioClip>
        <audioClip clipAutoCrossfade="true" crossFadeHeadClipID="-1" crossFadeTailClipID="-1" endPoint="491220" fileID="6" hue="-1" id="1" lockedInTime="false" looped="false" name="car-pass" offline="false" select="false" sourceInPoint="0" sourceOutPoint="270720" startPoint="220500" zOrder="4">
          <component componentGuid="334008eb-af62-4bc6-aad5-74d9b963252c" componentID="Audition.Fader" id="clipGain" name="volume" powered="true">
            <parameter index="0" name="volume" parameterValue="1"/>
            <parameter index="1" name="static gain" parameterValue="1"/>
          </component>
          <component componentGuid="f8c1fccc-af1b-4bde-b0e5-784377757e47" componentID="Audition.Mute" id="clipMute" name="Mute" powered="true">
            <parameter index="0" parameterValue="0"/>
            <parameter index="1" name="mute" parameterValue="0"/>
          </component>
          <component componentGuid="c492c9e4-6085-434e-80a4-402a03abb06d" componentID="Audition.StereoPanner" id="clipPan" name="StereoPanner" powered="true">
            <parameter index="0" name="パン" parameterValue="0"/>
          </component>
          <fadeIn crossFadeLinkType="linkedAsymmetric" endPoint="0" shape="0" startPoint="0" type="cosine"/>
          <fadeOut crossFadeLinkType="linkedAsymmetric" endPoint="270720" shape="0" startPoint="270720" type="cosine"/>
          <editParameter parameterIndex="0" slotIndex="4294967280"/>
          <editParameter parameterIndex="0" slotIndex="4294967281"/>
          <channelMap>
            <channel index="0" sourceIndex="0"/>
            <channel index="1" sourceIndex="1"/>
          </channelMap>
        </audioClip>
        <audioClip clipAutoCrossfade="true" crossFadeHeadClipID="-1" crossFadeTailClipID="-1" endPoint="806400" fileID="6" hue="-1" id="2" lockedInTime="false" looped="false" name="car-pass" offline="false" select="false" sourceInPoint="0" sourceOutPoint="270720" startPoint="535680" zOrder="0">
          <component componentGuid="17f35af7-3bb8-423e-aed2-0c917d3e2dd4" componentID="Audition.Fader" id="clipGain" name="volume" powered="true">
            <parameter index="0" name="volume" parameterValue="1"/>
            <parameter index="1" name="static gain" parameterValue="1"/>
          </component>
          <component componentGuid="58b93f5c-4cae-4570-a38b-3448cdec6f53" componentID="Audition.Mute" id="clipMute" name="Mute" powered="true">
            <parameter index="0" parameterValue="0"/>
            <parameter index="1" name="mute" parameterValue="0"/>
          </component>
          <component componentGuid="e48ae6db-58ce-485f-9dce-1792872b49d8" componentID="Audition.StereoPanner" id="clipPan" name="StereoPanner" powered="true">
            <parameter index="0" name="パン" parameterValue="0"/>
          </component>
          <fadeIn crossFadeLinkType="linkedAsymmetric" endPoint="0" shape="0" startPoint="0" type="cosine"/>
          <fadeOut crossFadeLinkType="linkedAsymmetric" endPoint="270720" shape="0" startPoint="270720" type="cosine"/>
          <editParameter parameterIndex="0" slotIndex="4294967280"/>
          <editParameter parameterIndex="0" slotIndex="4294967281"/>
          <channelMap>
            <channel index="0" sourceIndex="0"/>
            <channel index="1" sourceIndex="1"/>
          </channelMap>
        </audioClip>
        <audioClip clipAutoCrossfade="true" crossFadeHeadClipID="-1" crossFadeTailClipID="-1" endPoint="1120883" fileID="6" hue="-1" id="3" lockedInTime="false" looped="false" name="car-pass" offline="false" select="false" sourceInPoint="0" sourceOutPoint="270720" startPoint="850163" zOrder="1">
          <component componentGuid="a35bb20c-ee62-4e88-9691-43e481448328" componentID="Audition.Fader" id="clipGain" name="volume" powered="true">
            <parameter index="0" name="volume" parameterValue="1"/>
            <parameter index="1" name="static gain" parameterValue="1"/>
          </component>
          <component componentGuid="447c8010-0fc3-4fe3-b683-2cb97ca24edd" componentID="Audition.Mute" id="clipMute" name="Mute" powered="true">
            <parameter index="0" parameterValue="0"/>
            <parameter index="1" name="mute" parameterValue="0"/>
          </component>
          <component componentGuid="4695bf19-2ae2-43c0-acf1-e8ffcdffb51d" componentID="Audition.StereoPanner" id="clipPan" name="StereoPanner" powered="true">
            <parameter index="0" name="パン" parameterValue="0"/>
          </component>
          <fadeIn crossFadeLinkType="linkedAsymmetric" endPoint="0" shape="0" startPoint="0" type="cosine"/>
          <fadeOut crossFadeLinkType="linkedAsymmetric" endPoint="270720" shape="0" startPoint="270720" type="cosine"/>
          <editParameter parameterIndex="0" slotIndex="4294967280"/>
          <editParameter parameterIndex="0" slotIndex="4294967281"/>
          <channelMap>
            <channel index="0" sourceIndex="0"/>
            <channel index="1" sourceIndex="1"/>
          </channelMap>
        </audioClip>
        <audioClip clipAutoCrossfade="true" crossFadeHeadClipID="-1" crossFadeTailClipID="-1" endPoint="1397411" fileID="6" hue="-1" id="4" lockedInTime="false" looped="false" name="car-pass" offline="false" select="false" sourceInPoint="0" sourceOutPoint="270720" startPoint="1126691" zOrder="2">
          <component componentGuid="202197c7-9a6c-4bc3-9fa9-faa44838a4b5" componentID="Audition.Fader" id="clipGain" name="volume" powered="true">
            <parameter index="0" name="volume" parameterValue="1"/>
            <parameter index="1" name="static gain" parameterValue="1"/>
          </component>
          <component componentGuid="50d32eb7-efb9-4175-b8b5-cb0768a2a94c" componentID="Audition.Mute" id="clipMute" name="Mute" powered="true">
            <parameter index="0" parameterValue="0"/>
            <parameter index="1" name="mute" parameterValue="0"/>
          </component>
          <component componentGuid="bd00bc47-73dc-47f5-b0f5-28e67bfb4286" componentID="Audition.StereoPanner" id="clipPan" name="StereoPanner" powered="true">
            <parameter index="0" name="パン" parameterValue="0"/>
          </component>
          <fadeIn crossFadeLinkType="linkedAsymmetric" endPoint="0" shape="0" startPoint="0" type="cosine"/>
          <fadeOut crossFadeLinkType="linkedAsymmetric" endPoint="270720" shape="0" startPoint="270720" type="cosine"/>
          <editParameter parameterIndex="0" slotIndex="4294967280"/>
          <editParameter parameterIndex="0" slotIndex="4294967281"/>
          <channelMap>
            <channel index="0" sourceIndex="0"/>
            <channel index="1" sourceIndex="1"/>
          </channelMap>
        </audioClip>
      </audioTrack>
      <audioTrack automationLaneOpenState="false" id="10005" index="11" select="false" visible="true">
        <trackParameters trackHeight="30" trackHue="294" trackMinimized="false">
          <name>トラック 5</name>
        </trackParameters>
        <trackAudioParameters audioChannelType="stereo" automationMode="1" monitoring="false" recordArmed="false" solo="false" soloSafe="false">
          <trackOutput outputID="10000" type="trackID"/>
          <trackInput inputID="1"/>
          <component componentGuid="beee0255-1b62-4a9b-869f-8a9a5834f029" componentID="Audition.Fader" id="trackFader" name="volume" powered="true">
            <parameter index="0" name="volume" parameterValue="0.100000001490116119384765625"/>
            <parameter index="1" name="static gain" parameterValue="1"/>
          </component>
          <component componentGuid="e2b6fd37-4969-4039-ae4d-420b9fa71d72" componentID="Audition.Mute" id="trackMute" name="Mute" powered="true">
            <parameter index="0" parameterValue="0"/>
            <parameter index="1" name="mute" parameterValue="0"/>
          </component>
          <component componentGuid="1fbfd8cb-a047-42b1-bf45-fff9f1189874" componentID="Audition.StereoPanner" id="trackPan" name="StereoPanner" powered="true">
            <parameter index="0" name="パン" parameterValue="0"/>
          </component>
          <component componentGuid="5d5d45c5-7f4f-4c8d-8c8b-ae51b21f3fa8" componentID="Audition.EQ" id="trackEQ" name="EQ" powered="false">
            <parameter index="0" name="ローシェルビング周波数" parameterValue="0.0009078529546968638896942138671875"/>
            <parameter index="1" name="ローシェルビングゲイン" parameterValue="0.5"/>
            <parameter index="2" name="ハイシェルビング周波数" parameterValue="0.816159784793853759765625"/>
            <parameter index="3" name="ハイシェルビングゲイン" parameterValue="0.5"/>
            <parameter index="4" name="EQ バンド 1 センター周波数" parameterValue="0.0013617794029414653778076171875"/>
            <parameter index="5" name="EQ バンド 1 Q" parameterValue="0.000199989997781813144683837890625"/>
            <parameter index="6" name="EQ バンド 1 ゲイン" parameterValue="0.5"/>
            <parameter index="7" name="EQ バンド 1 有効" parameterValue="1"/>
            <parameter index="8" name="EQ バンド 2 センター周波数" parameterValue="0.008170676417648792266845703125"/>
            <parameter index="9" name="EQ バンド 2 Q" parameterValue="0.000199989997781813144683837890625"/>
            <parameter index="10" name="EQ バンド 2 ゲイン" parameterValue="0.5"/>
            <parameter index="11" name="EQ バンド 2 有効" parameterValue="1"/>
            <parameter index="12" name="EQ バンド 3 センター周波数" parameterValue="0.0354062654078006744384765625"/>
            <parameter index="13" name="EQ バンド 3 Q" parameterValue="0.000199989997781813144683837890625"/>
            <parameter index="14" name="EQ バンド 3 ゲイン" parameterValue="0.5"/>
            <parameter index="15" name="EQ バンド 3 有効" parameterValue="1"/>
            <parameter index="16" name="EQ バンド 4 センター周波数" parameterValue="0.144348621368408203125"/>
            <parameter index="17" name="EQ バンド 4 Q" parameterValue="0.000199989997781813144683837890625"/>
            <parameter index="18" name="EQ バンド 4 ゲイン" parameterValue="0.5"/>
            <parameter index="19" name="EQ バンド 4 有効" parameterValue="1"/>
            <parameter index="20" name="EQ バンド 5 センター周波数" parameterValue="0.580118000507354736328125"/>
            <parameter index="21" name="EQ バンド 5 Q" parameterValue="0.000199989997781813144683837890625"/>
            <parameter index="22" name="EQ バンド 5 ゲイン" parameterValue="0.5"/>
            <parameter index="23" name="EQ バンド 5 有効" parameterValue="1"/>
            <parameter index="24" name="マスターゲイン" parameterValue="0.666666686534881591796875"/>
            <parameter index="25" name="ConstantQ" parameterValue="1"/>
            <parameter index="26" name="ローシェルビングフィルター次数" parameterValue="0"/>
            <parameter index="27" name="ハイシェルビングフィルター次数" parameterValue="0"/>
            <parameter index="28" name="ノイズレスモード" parameterValue="0"/>
            <parameter index="29" name="ローシェルビング有効" parameterValue="1"/>
            <parameter index="30" name="ハイシェルビング有効" parameterValue="1"/>
            <parameter index="31" name="オリジナルサンプルレート" parameterValue="0.22968749701976776123046875"/>
            <parameter index="32" name="EQ バンド 1 バンド幅" parameterValue="0.002499990165233612060546875"/>
            <parameter index="33" name="EQ バンド 2 バンド幅" parameterValue="0.0099999904632568359375"/>
            <parameter index="34" name="EQ バンド 3 バンド幅" parameterValue="0.0399999916553497314453125"/>
            <parameter index="35" name="EQ バンド 4 バンド幅" parameterValue="0.15999998152256011962890625"/>
            <parameter index="36" name="EQ バンド 5 バンド幅" parameterValue="0.63999998569488525390625"/>
            <parameter index="37" name="ハイパスフィルター有効" parameterValue="0"/>
            <parameter index="38" name="ハイパスカットオフ周波数" parameterValue="0"/>
            <parameter index="39" name="ハイパススロープ" parameterValue="0.4000000059604644775390625"/>
            <parameter index="40" name="ローパスフィルター有効" parameterValue="0"/>
            <parameter index="41" name="ローパスカットオフ周波数" parameterValue="0.906945049762725830078125"/>
            <parameter index="42" name="ローパススロープ" parameterValue="0.4000000059604644775390625"/>
            <parameter index="43" name="バイパス" parameterValue="0"/>
            <parameter index="44" name="LowGraphRange" parameterValue="1"/>
          </component>
        </trackAudioParameters>
        <effectsRack preFader="true">
          <component componentGuid="58319b2d-345f-4675-afff-6ef6594828a0" componentID="Audition.ComponentGroup" id="rackMix" powered="true">
            <parameter index="0" parameterValue="0"/>
            <parameter index="1" parameterValue="0"/>
          </component>
          <component componentGuid="68965a00-3594-489f-867d-753f5e6ad687" id="rackInput" powered="true">
            <parameter index="0" parameterValue="1"/>
            <parameter index="1" parameterValue="0"/>
          </component>
          <component componentGuid="1b6200dc-093e-4d2e-b43c-edc74074402c" id="rackOutput" powered="true">
            <parameter index="0" parameterValue="1"/>
            <parameter index="1" parameterValue="0"/>
          </component>
          <slot powered="true" slotIndex="0">
            <component componentGuid="c5e8d0b1-84d5-47c2-b412-ca18ac21af34" componentID="164b4e8a-7105-406b-b23b-1ef2cc4d8957" editorHeight="415" editorLeft="479" editorTop="234" editorWidth="495" name="ピッチシフター">
              <busConfig><![CDATA[{"in":[{"layout":[100,101],"name":"ステレオ入力","type":0}],"out":[{"layout":[100,101],"name":"ステレオ出力","type":0}]}]]></busConfig>
              <channelMap direction="input">
                <channel index="0" sourceIndex="0"/>
                <channel index="1" sourceIndex="1"/>
              </channelMap>
              <channelMap direction="output">
                <channel index="0" sourceIndex="0"/>
                <channel index="1" sourceIndex="1"/>
              </channelMap>
              <parameter index="0" name="置き換え比率" parameterValue="0.3754274845123291015625"/>
              <parameter index="1" name="精度" parameterValue="1"/>
              <parameter index="2" name="周波数" parameterValue="0.08498851954936981201171875"/>
              <parameter index="3" name="オーバーラップ" parameterValue="0.5652072429656982421875"/>
              <parameter index="4" name="デフォルト設定を使用する" parameterValue="0.75"/>
            </component>
          </slot>
        </effectsRack>
        <editParameter parameterIndex="0" slotIndex="4294967280"/>
        <audioClip clipAutoCrossfade="true" crossFadeHeadClipID="-1" crossFadeTailClipID="-1" endPoint="341595" fileID="6" hue="-1" id="0" lockedInTime="false" looped="false" name="car-pass" offline="false" select="false" sourceInPoint="0" sourceOutPoint="270720" startPoint="70875" zOrder="0">
          <component componentGuid="1ee03b5b-e33a-4bd0-876c-dc0845a1159a" componentID="Audition.Fader" id="clipGain" name="volume" powered="true">
            <parameter index="0" name="volume" parameterValue="1"/>
            <parameter index="1" name="static gain" parameterValue="1"/>
          </component>
          <component componentGuid="fbea2746-7c76-4558-ba32-4415177e3498" componentID="Audition.Mute" id="clipMute" name="Mute" powered="true">
            <parameter index="0" parameterValue="0"/>
            <parameter index="1" name="mute" parameterValue="0"/>
          </component>
          <component componentGuid="815b29cf-c16c-412f-bc40-7908bef217ea" componentID="Audition.StereoPanner" id="clipPan" name="StereoPanner" powered="true">
            <parameter index="0" name="パン" parameterValue="0"/>
          </component>
          <fadeIn crossFadeLinkType="linkedAsymmetric" endPoint="0" shape="0" startPoint="0" type="cosine"/>
          <fadeOut crossFadeLinkType="linkedAsymmetric" endPoint="270720" shape="0" startPoint="270720" type="cosine"/>
          <editParameter parameterIndex="0" slotIndex="4294967280"/>
          <editParameter parameterIndex="0" slotIndex="4294967281"/>
          <channelMap>
            <channel index="0" sourceIndex="0"/>
            <channel index="1" sourceIndex="1"/>
          </channelMap>
        </audioClip>
        <audioClip clipAutoCrossfade="true" crossFadeHeadClipID="-1" crossFadeTailClipID="-1" endPoint="661500" fileID="6" hue="-1" id="1" lockedInTime="false" looped="false" name="car-pass" offline="false" select="false" sourceInPoint="0" sourceOutPoint="270720" startPoint="390780" zOrder="1">
          <component componentGuid="adb0ff83-9c0d-4e61-9f18-6db8d600a266" componentID="Audition.Fader" id="clipGain" name="volume" powered="true">
            <parameter index="0" name="volume" parameterValue="1"/>
            <parameter index="1" name="static gain" parameterValue="1"/>
          </component>
          <component componentGuid="08d49732-88cb-4451-9030-ab68e697c373" componentID="Audition.Mute" id="clipMute" name="Mute" powered="true">
            <parameter index="0" parameterValue="0"/>
            <parameter index="1" name="mute" parameterValue="0"/>
          </component>
          <component componentGuid="e4b908d2-73ab-4a24-abc8-e037d2ee33b1" componentID="Audition.StereoPanner" id="clipPan" name="StereoPanner" powered="true">
            <parameter index="0" name="パン" parameterValue="0"/>
          </component>
          <fadeIn crossFadeLinkType="linkedAsymmetric" endPoint="0" shape="0" startPoint="0" type="cosine"/>
          <fadeOut crossFadeLinkType="linkedAsymmetric" endPoint="270720" shape="0" startPoint="270720" type="cosine"/>
          <editParameter parameterIndex="0" slotIndex="4294967280"/>
          <editParameter parameterIndex="0" slotIndex="4294967281"/>
          <channelMap>
            <channel index="0" sourceIndex="0"/>
            <channel index="1" sourceIndex="1"/>
          </channelMap>
        </audioClip>
        <audioClip clipAutoCrossfade="true" crossFadeHeadClipID="-1" crossFadeTailClipID="-1" endPoint="975983" fileID="6" hue="-1" id="2" lockedInTime="false" looped="false" name="car-pass" offline="false" select="false" sourceInPoint="0" sourceOutPoint="270720" startPoint="705263" zOrder="2">
          <component componentGuid="f98ec0e8-407a-4c76-a41a-ac4dbd05956e" componentID="Audition.Fader" id="clipGain" name="volume" powered="true">
            <parameter index="0" name="volume" parameterValue="1"/>
            <parameter index="1" name="static gain" parameterValue="1"/>
          </component>
          <component componentGuid="e224d393-2b3a-4f2e-bc79-008b7e275c44" componentID="Audition.Mute" id="clipMute" name="Mute" powered="true">
            <parameter index="0" parameterValue="0"/>
            <parameter index="1" name="mute" parameterValue="0"/>
          </component>
          <component componentGuid="965c620e-69f8-4d52-b9c4-d2209bf472b7" componentID="Audition.StereoPanner" id="clipPan" name="StereoPanner" powered="true">
            <parameter index="0" name="パン" parameterValue="0"/>
          </component>
          <fadeIn crossFadeLinkType="linkedAsymmetric" endPoint="0" shape="0" startPoint="0" type="cosine"/>
          <fadeOut crossFadeLinkType="linkedAsymmetric" endPoint="270720" shape="0" startPoint="270720" type="cosine"/>
          <editParameter parameterIndex="0" slotIndex="4294967280"/>
          <editParameter parameterIndex="0" slotIndex="4294967281"/>
          <channelMap>
            <channel index="0" sourceIndex="0"/>
            <channel index="1" sourceIndex="1"/>
          </channelMap>
        </audioClip>
        <audioClip clipAutoCrossfade="true" crossFadeHeadClipID="-1" crossFadeTailClipID="-1" endPoint="1252511" fileID="6" hue="-1" id="3" lockedInTime="false" looped="false" name="car-pass" offline="false" select="false" sourceInPoint="0" sourceOutPoint="270720" startPoint="981791" zOrder="3">
          <component componentGuid="b39e4b4a-8faf-407c-83bc-9ea53e30ce72" componentID="Audition.Fader" id="clipGain" name="volume" powered="true">
            <parameter index="0" name="volume" parameterValue="1"/>
            <parameter index="1" name="static gain" parameterValue="1"/>
          </component>
          <component componentGuid="e8f688c9-11a2-4f8b-a565-c0e3ccb07628" componentID="Audition.Mute" id="clipMute" name="Mute" powered="true">
            <parameter index="0" parameterValue="0"/>
            <parameter index="1" name="mute" parameterValue="0"/>
          </component>
          <component componentGuid="39ebeb27-698f-4083-803d-bfe16f10100e" componentID="Audition.StereoPanner" id="clipPan" name="StereoPanner" powered="true">
            <parameter index="0" name="パン" parameterValue="0"/>
          </component>
          <fadeIn crossFadeLinkType="linkedAsymmetric" endPoint="0" shape="0" startPoint="0" type="cosine"/>
          <fadeOut crossFadeLinkType="linkedAsymmetric" endPoint="270720" shape="0" startPoint="270720" type="cosine"/>
          <editParameter parameterIndex="0" slotIndex="4294967280"/>
          <editParameter parameterIndex="0" slotIndex="4294967281"/>
          <channelMap>
            <channel index="0" sourceIndex="0"/>
            <channel index="1" sourceIndex="1"/>
          </channelMap>
        </audioClip>
      </audioTrack>
      <audioTrack automationLaneOpenState="false" id="10006" index="12" select="false" visible="true">
        <trackParameters trackHeight="30" trackHue="92" trackMinimized="false">
          <name>トラック 6</name>
        </trackParameters>
        <trackAudioParameters audioChannelType="stereo" automationMode="1" monitoring="false" recordArmed="false" solo="false" soloSafe="false">
          <trackOutput outputID="10000" type="trackID"/>
          <trackInput inputID="1"/>
          <component componentGuid="b8a27c47-447c-4a41-948e-8d2a9293863e" componentID="Audition.Fader" id="trackFader" name="volume" powered="true">
            <parameter index="0" name="volume" parameterValue="0.100000001490116119384765625"/>
            <parameter index="1" name="static gain" parameterValue="1"/>
          </component>
          <component componentGuid="223e03e2-c077-4561-8add-bebee3e5de40" componentID="Audition.Mute" id="trackMute" name="Mute" powered="true">
            <parameter index="0" parameterValue="0"/>
            <parameter index="1" name="mute" parameterValue="0"/>
          </component>
          <component componentGuid="487ddb5a-efc8-47eb-8da5-664bf11b4eed" componentID="Audition.StereoPanner" id="trackPan" name="StereoPanner" powered="true">
            <parameter index="0" name="パン" parameterValue="0"/>
          </component>
          <component componentGuid="56bf7401-ebdb-4eea-b314-6dd5ad91922d" componentID="Audition.EQ" id="trackEQ" name="EQ" powered="false">
            <parameter index="0" name="ローシェルビング周波数" parameterValue="0.0009078529546968638896942138671875"/>
            <parameter index="1" name="ローシェルビングゲイン" parameterValue="0.5"/>
            <parameter index="2" name="ハイシェルビング周波数" parameterValue="0.816159784793853759765625"/>
            <parameter index="3" name="ハイシェルビングゲイン" parameterValue="0.5"/>
            <parameter index="4" name="EQ バンド 1 センター周波数" parameterValue="0.0013617794029414653778076171875"/>
            <parameter index="5" name="EQ バンド 1 Q" parameterValue="0.000199989997781813144683837890625"/>
            <parameter index="6" name="EQ バンド 1 ゲイン" parameterValue="0.5"/>
            <parameter index="7" name="EQ バンド 1 有効" parameterValue="1"/>
            <parameter index="8" name="EQ バンド 2 センター周波数" parameterValue="0.008170676417648792266845703125"/>
            <parameter index="9" name="EQ バンド 2 Q" parameterValue="0.000199989997781813144683837890625"/>
            <parameter index="10" name="EQ バンド 2 ゲイン" parameterValue="0.5"/>
            <parameter index="11" name="EQ バンド 2 有効" parameterValue="1"/>
            <parameter index="12" name="EQ バンド 3 センター周波数" parameterValue="0.0354062654078006744384765625"/>
            <parameter index="13" name="EQ バンド 3 Q" parameterValue="0.000199989997781813144683837890625"/>
            <parameter index="14" name="EQ バンド 3 ゲイン" parameterValue="0.5"/>
            <parameter index="15" name="EQ バンド 3 有効" parameterValue="1"/>
            <parameter index="16" name="EQ バンド 4 センター周波数" parameterValue="0.144348621368408203125"/>
            <parameter index="17" name="EQ バンド 4 Q" parameterValue="0.000199989997781813144683837890625"/>
            <parameter index="18" name="EQ バンド 4 ゲイン" parameterValue="0.5"/>
            <parameter index="19" name="EQ バンド 4 有効" parameterValue="1"/>
            <parameter index="20" name="EQ バンド 5 センター周波数" parameterValue="0.580118000507354736328125"/>
            <parameter index="21" name="EQ バンド 5 Q" parameterValue="0.000199989997781813144683837890625"/>
            <parameter index="22" name="EQ バンド 5 ゲイン" parameterValue="0.5"/>
            <parameter index="23" name="EQ バンド 5 有効" parameterValue="1"/>
            <parameter index="24" name="マスターゲイン" parameterValue="0.666666686534881591796875"/>
            <parameter index="25" name="ConstantQ" parameterValue="1"/>
            <parameter index="26" name="ローシェルビングフィルター次数" parameterValue="0"/>
            <parameter index="27" name="ハイシェルビングフィルター次数" parameterValue="0"/>
            <parameter index="28" name="ノイズレスモード" parameterValue="0"/>
            <parameter index="29" name="ローシェルビング有効" parameterValue="1"/>
            <parameter index="30" name="ハイシェルビング有効" parameterValue="1"/>
            <parameter index="31" name="オリジナルサンプルレート" parameterValue="0.22968749701976776123046875"/>
            <parameter index="32" name="EQ バンド 1 バンド幅" parameterValue="0.002499990165233612060546875"/>
            <parameter index="33" name="EQ バンド 2 バンド幅" parameterValue="0.0099999904632568359375"/>
            <parameter index="34" name="EQ バンド 3 バンド幅" parameterValue="0.0399999916553497314453125"/>
            <parameter index="35" name="EQ バンド 4 バンド幅" parameterValue="0.15999998152256011962890625"/>
            <parameter index="36" name="EQ バンド 5 バンド幅" parameterValue="0.63999998569488525390625"/>
            <parameter index="37" name="ハイパスフィルター有効" parameterValue="0"/>
            <parameter index="38" name="ハイパスカットオフ周波数" parameterValue="0"/>
            <parameter index="39" name="ハイパススロープ" parameterValue="0.4000000059604644775390625"/>
            <parameter index="40" name="ローパスフィルター有効" parameterValue="0"/>
            <parameter index="41" name="ローパスカットオフ周波数" parameterValue="0.906945049762725830078125"/>
            <parameter index="42" name="ローパススロープ" parameterValue="0.4000000059604644775390625"/>
            <parameter index="43" name="バイパス" parameterValue="0"/>
            <parameter index="44" name="LowGraphRange" parameterValue="1"/>
          </component>
        </trackAudioParameters>
        <effectsRack preFader="true">
          <component componentGuid="620ee6ac-c515-4f08-8417-8a3b150c4daa" componentID="Audition.ComponentGroup" id="rackMix" powered="true">
            <parameter index="0" parameterValue="0"/>
            <parameter index="1" parameterValue="0"/>
          </component>
          <component componentGuid="391394d4-c5e0-458e-988c-a5e5e7faf11e" id="rackInput" powered="true">
            <parameter index="0" parameterValue="1"/>
            <parameter index="1" parameterValue="0"/>
          </component>
          <component componentGuid="6e3feb81-aaf3-46d9-bec6-55f154e08e17" id="rackOutput" powered="true">
            <parameter index="0" parameterValue="1"/>
            <parameter index="1" parameterValue="0"/>
          </component>
          <slot powered="true" slotIndex="0">
            <component componentGuid="db24af0f-ac48-4c71-a3e8-7652f0c81548" componentID="164b4e8a-7105-406b-b23b-1ef2cc4d8957" editorHeight="415" editorLeft="479" editorTop="234" editorWidth="495" name="ピッチシフター">
              <busConfig><![CDATA[{"in":[{"layout":[100,101],"name":"ステレオ入力","type":0}],"out":[{"layout":[100,101],"name":"ステレオ出力","type":0}]}]]></busConfig>
              <channelMap direction="input">
                <channel index="0" sourceIndex="0"/>
                <channel index="1" sourceIndex="1"/>
              </channelMap>
              <channelMap direction="output">
                <channel index="0" sourceIndex="0"/>
                <channel index="1" sourceIndex="1"/>
              </channelMap>
              <parameter index="0" name="置き換え比率" parameterValue="0.559649407863616943359375"/>
              <parameter index="1" name="精度" parameterValue="1"/>
              <parameter index="2" name="周波数" parameterValue="0.0778935253620147705078125"/>
              <parameter index="3" name="オーバーラップ" parameterValue="0.5408575534820556640625"/>
              <parameter index="4" name="デフォルト設定を使用する" parameterValue="0.75"/>
            </component>
          </slot>
        </effectsRack>
        <editParameter parameterIndex="0" slotIndex="4294967280"/>
        <audioClip clipAutoCrossfade="true" crossFadeHeadClipID="-1" crossFadeTailClipID="-1" endPoint="412084" fileID="6" hue="-1" id="0" lockedInTime="false" looped="false" name="car-pass" offline="false" select="false" sourceInPoint="0" sourceOutPoint="270720" startPoint="141364" zOrder="0">
          <component componentGuid="beeeaf7c-c348-4169-ab15-17205aa84c0e" componentID="Audition.Fader" id="clipGain" name="volume" powered="true">
            <parameter index="0" name="volume" parameterValue="1"/>
            <parameter index="1" name="static gain" parameterValue="1"/>
          </component>
          <component componentGuid="4ce3ab5d-80a1-40c7-81aa-a0a5738840e3" componentID="Audition.Mute" id="clipMute" name="Mute" powered="true">
            <parameter index="0" parameterValue="0"/>
            <parameter index="1" name="mute" parameterValue="0"/>
          </component>
          <component componentGuid="0736619a-fe15-4463-ac48-cbc423e557e2" componentID="Audition.StereoPanner" id="clipPan" name="StereoPanner" powered="true">
            <parameter index="0" name="パン" parameterValue="0"/>
          </component>
          <fadeIn crossFadeLinkType="linkedAsymmetric" endPoint="0" shape="0" startPoint="0" type="cosine"/>
          <fadeOut crossFadeLinkType="linkedAsymmetric" endPoint="270720" shape="0" startPoint="270720" type="cosine"/>
          <editParameter parameterIndex="0" slotIndex="4294967280"/>
          <editParameter parameterIndex="0" slotIndex="4294967281"/>
          <channelMap>
            <channel index="0" sourceIndex="0"/>
            <channel index="1" sourceIndex="1"/>
          </channelMap>
        </audioClip>
        <audioClip clipAutoCrossfade="true" crossFadeHeadClipID="-1" crossFadeTailClipID="-1" endPoint="731989" fileID="6" hue="-1" id="1" lockedInTime="false" looped="false" name="car-pass" offline="false" select="false" sourceInPoint="0" sourceOutPoint="270720" startPoint="461269" zOrder="1">
          <component componentGuid="1ca90c47-74c4-4a6c-8e9e-c6b4555feec4" componentID="Audition.Fader" id="clipGain" name="volume" powered="true">
            <parameter index="0" name="volume" parameterValue="1"/>
            <parameter index="1" name="static gain" parameterValue="1"/>
          </component>
          <component componentGuid="157bd39a-404a-4706-9f83-ce480b57abe5" componentID="Audition.Mute" id="clipMute" name="Mute" powered="true">
            <parameter index="0" parameterValue="0"/>
            <parameter index="1" name="mute" parameterValue="0"/>
          </component>
          <component componentGuid="02afd371-8ed0-4c4b-ab49-a98c969333c7" componentID="Audition.StereoPanner" id="clipPan" name="StereoPanner" powered="true">
            <parameter index="0" name="パン" parameterValue="0"/>
          </component>
          <fadeIn crossFadeLinkType="linkedAsymmetric" endPoint="0" shape="0" startPoint="0" type="cosine"/>
          <fadeOut crossFadeLinkType="linkedAsymmetric" endPoint="270720" shape="0" startPoint="270720" type="cosine"/>
          <editParameter parameterIndex="0" slotIndex="4294967280"/>
          <editParameter parameterIndex="0" slotIndex="4294967281"/>
          <channelMap>
            <channel index="0" sourceIndex="0"/>
            <channel index="1" sourceIndex="1"/>
          </channelMap>
        </audioClip>
        <audioClip clipAutoCrossfade="true" crossFadeHeadClipID="-1" crossFadeTailClipID="-1" endPoint="1046472" fileID="6" hue="-1" id="2" lockedInTime="false" looped="false" name="car-pass" offline="false" select="false" sourceInPoint="0" sourceOutPoint="270720" startPoint="775752" zOrder="2">
          <component componentGuid="b23b8b4e-8232-45e7-9b54-fe9bf5abd1de" componentID="Audition.Fader" id="clipGain" name="volume" powered="true">
            <parameter index="0" name="volume" parameterValue="1"/>
            <parameter index="1" name="static gain" parameterValue="1"/>
          </component>
          <component componentGuid="0a328ea0-bcce-4237-b22f-d2a14e047eb7" componentID="Audition.Mute" id="clipMute" name="Mute" powered="true">
            <parameter index="0" parameterValue="0"/>
            <parameter index="1" name="mute" parameterValue="0"/>
          </component>
          <component componentGuid="0daf04ff-ed75-4773-af43-86e47264fcc5" componentID="Audition.StereoPanner" id="clipPan" name="StereoPanner" powered="true">
            <parameter index="0" name="パン" parameterValue="0"/>
          </component>
          <fadeIn crossFadeLinkType="linkedAsymmetric" endPoint="0" shape="0" startPoint="0" type="cosine"/>
          <fadeOut crossFadeLinkType="linkedAsymmetric" endPoint="270720" shape="0" startPoint="270720" type="cosine"/>
          <editParameter parameterIndex="0" slotIndex="4294967280"/>
          <editParameter parameterIndex="0" slotIndex="4294967281"/>
          <channelMap>
            <channel index="0" sourceIndex="0"/>
            <channel index="1" sourceIndex="1"/>
          </channelMap>
        </audioClip>
        <audioClip clipAutoCrossfade="true" crossFadeHeadClipID="-1" crossFadeTailClipID="-1" endPoint="1323000" fileID="6" hue="-1" id="3" lockedInTime="false" looped="false" name="car-pass" offline="false" select="false" sourceInPoint="0" sourceOutPoint="270720" startPoint="1052280" zOrder="3">
          <component componentGuid="55beb391-74e1-406e-ac03-a79a5b38a56c" componentID="Audition.Fader" id="clipGain" name="volume" powered="true">
            <parameter index="0" name="volume" parameterValue="1"/>
            <parameter index="1" name="static gain" parameterValue="1"/>
          </component>
          <component componentGuid="56e258d3-caac-49f8-91d4-3d0cb0a1fc8c" componentID="Audition.Mute" id="clipMute" name="Mute" powered="true">
            <parameter index="0" parameterValue="0"/>
            <parameter index="1" name="mute" parameterValue="0"/>
          </component>
          <component componentGuid="6fbfd4a9-1732-4bf7-bee4-0ab1d3cd0849" componentID="Audition.StereoPanner" id="clipPan" name="StereoPanner" powered="true">
            <parameter index="0" name="パン" parameterValue="0"/>
          </component>
          <fadeIn crossFadeLinkType="linkedAsymmetric" endPoint="0" shape="0" startPoint="0" type="cosine"/>
          <fadeOut crossFadeLinkType="linkedAsymmetric" endPoint="270720" shape="0" startPoint="270720" type="cosine"/>
          <editParameter parameterIndex="0" slotIndex="4294967280"/>
          <editParameter parameterIndex="0" slotIndex="4294967281"/>
          <channelMap>
            <channel index="0" sourceIndex="0"/>
            <channel index="1" sourceIndex="1"/>
          </channelMap>
        </audioClip>
      </audioTrack>
      <audioTrack automationLaneOpenState="false" id="10007" index="13" select="false" visible="true">
        <trackParameters trackHeight="30" trackHue="211" trackMinimized="false">
          <name>トラック 7</name>
        </trackParameters>
        <trackAudioParameters audioChannelType="stereo" automationMode="1" monitoring="false" recordArmed="false" solo="false" soloSafe="false">
          <trackOutput outputID="10000" type="trackID"/>
          <trackInput inputID="1"/>
          <component componentGuid="a55bfbcc-6f08-4afc-a1f3-35505f17a101" componentID="Audition.Fader" id="trackFader" name="volume" powered="true">
            <parameter index="0" name="volume" parameterValue="0.100000001490116119384765625"/>
            <parameter index="1" name="static gain" parameterValue="1"/>
          </component>
          <component componentGuid="b9e4dc9d-a4da-4484-886d-4e4aa35fcbd1" componentID="Audition.Mute" id="trackMute" name="Mute" powered="true">
            <parameter index="0" parameterValue="0"/>
            <parameter index="1" name="mute" parameterValue="0"/>
          </component>
          <component componentGuid="f950816a-abbd-4737-897f-74f058536d4c" componentID="Audition.StereoPanner" id="trackPan" name="StereoPanner" powered="true">
            <parameter index="0" name="パン" parameterValue="0"/>
          </component>
          <component componentGuid="c296a017-5e5d-407a-adf3-cf1b7d6f5a2a" componentID="Audition.EQ" id="trackEQ" name="EQ" powered="false">
            <parameter index="0" name="ローシェルビング周波数" parameterValue="0.0009078529546968638896942138671875"/>
            <parameter index="1" name="ローシェルビングゲイン" parameterValue="0.5"/>
            <parameter index="2" name="ハイシェルビング周波数" parameterValue="0.816159784793853759765625"/>
            <parameter index="3" name="ハイシェルビングゲイン" parameterValue="0.5"/>
            <parameter index="4" name="EQ バンド 1 センター周波数" parameterValue="0.0013617794029414653778076171875"/>
            <parameter index="5" name="EQ バンド 1 Q" parameterValue="0.000199989997781813144683837890625"/>
            <parameter index="6" name="EQ バンド 1 ゲイン" parameterValue="0.5"/>
            <parameter index="7" name="EQ バンド 1 有効" parameterValue="1"/>
            <parameter index="8" name="EQ バンド 2 センター周波数" parameterValue="0.008170676417648792266845703125"/>
            <parameter index="9" name="EQ バンド 2 Q" parameterValue="0.000199989997781813144683837890625"/>
            <parameter index="10" name="EQ バンド 2 ゲイン" parameterValue="0.5"/>
            <parameter index="11" name="EQ バンド 2 有効" parameterValue="1"/>
            <parameter index="12" name="EQ バンド 3 センター周波数" parameterValue="0.0354062654078006744384765625"/>
            <parameter index="13" name="EQ バンド 3 Q" parameterValue="0.000199989997781813144683837890625"/>
            <parameter index="14" name="EQ バンド 3 ゲイン" parameterValue="0.5"/>
            <parameter index="15" name="EQ バンド 3 有効" parameterValue="1"/>
            <parameter index="16" name="EQ バンド 4 センター周波数" parameterValue="0.144348621368408203125"/>
            <parameter index="17" name="EQ バンド 4 Q" parameterValue="0.000199989997781813144683837890625"/>
            <parameter index="18" name="EQ バンド 4 ゲイン" parameterValue="0.5"/>
            <parameter index="19" name="EQ バンド 4 有効" parameterValue="1"/>
            <parameter index="20" name="EQ バンド 5 センター周波数" parameterValue="0.580118000507354736328125"/>
            <parameter index="21" name="EQ バンド 5 Q" parameterValue="0.000199989997781813144683837890625"/>
            <parameter index="22" name="EQ バンド 5 ゲイン" parameterValue="0.5"/>
            <parameter index="23" name="EQ バンド 5 有効" parameterValue="1"/>
            <parameter index="24" name="マスターゲイン" parameterValue="0.666666686534881591796875"/>
            <parameter index="25" name="ConstantQ" parameterValue="1"/>
            <parameter index="26" name="ローシェルビングフィルター次数" parameterValue="0"/>
            <parameter index="27" name="ハイシェルビングフィルター次数" parameterValue="0"/>
            <parameter index="28" name="ノイズレスモード" parameterValue="0"/>
            <parameter index="29" name="ローシェルビング有効" parameterValue="1"/>
            <parameter index="30" name="ハイシェルビング有効" parameterValue="1"/>
            <parameter index="31" name="オリジナルサンプルレート" parameterValue="0.22968749701976776123046875"/>
            <parameter index="32" name="EQ バンド 1 バンド幅" parameterValue="0.002499990165233612060546875"/>
            <parameter index="33" name="EQ バンド 2 バンド幅" parameterValue="0.0099999904632568359375"/>
            <parameter index="34" name="EQ バンド 3 バンド幅" parameterValue="0.0399999916553497314453125"/>
            <parameter index="35" name="EQ バンド 4 バンド幅" parameterValue="0.15999998152256011962890625"/>
            <parameter index="36" name="EQ バンド 5 バンド幅" parameterValue="0.63999998569488525390625"/>
            <parameter index="37" name="ハイパスフィルター有効" parameterValue="0"/>
            <parameter index="38" name="ハイパスカットオフ周波数" parameterValue="0"/>
            <parameter index="39" name="ハイパススロープ" parameterValue="0.4000000059604644775390625"/>
            <parameter index="40" name="ローパスフィルター有効" parameterValue="0"/>
            <parameter index="41" name="ローパスカットオフ周波数" parameterValue="0.906945049762725830078125"/>
            <parameter index="42" name="ローパススロープ" parameterValue="0.4000000059604644775390625"/>
            <parameter index="43" name="バイパス" parameterValue="0"/>
            <parameter index="44" name="LowGraphRange" parameterValue="1"/>
          </component>
        </trackAudioParameters>
        <editParameter parameterIndex="0" slotIndex="4294967280"/>
        <audioClip clipAutoCrossfade="true" crossFadeHeadClipID="-1" crossFadeTailClipID="-1" endPoint="347403" fileID="6" hue="-1" id="0" lockedInTime="false" looped="false" name="car-pass" offline="false" select="false" sourceInPoint="0" sourceOutPoint="270720" startPoint="76683" zOrder="0">
          <component componentGuid="efccfdc6-23d5-43a9-882e-f2a784d3003d" componentID="Audition.Fader" id="clipGain" name="volume" powered="true">
            <parameter index="0" name="volume" parameterValue="1"/>
            <parameter index="1" name="static gain" parameterValue="1"/>
          </component>
          <component componentGuid="fb432af5-caa1-4f93-ba73-9a40a7bfec39" componentID="Audition.Mute" id="clipMute" name="Mute" powered="true">
            <parameter index="0" parameterValue="0"/>
            <parameter index="1" name="mute" parameterValue="0"/>
          </component>
          <component componentGuid="25016e81-8c84-4906-acf1-d6fbe176b55c" componentID="Audition.StereoPanner" id="clipPan" name="StereoPanner" powered="true">
            <parameter index="0" name="パン" parameterValue="0"/>
          </component>
          <fadeIn crossFadeLinkType="linkedAsymmetric" endPoint="0" shape="0" startPoint="0" type="cosine"/>
          <fadeOut crossFadeLinkType="linkedAsymmetric" endPoint="270720" shape="0" startPoint="270720" type="cosine"/>
          <editParameter parameterIndex="0" slotIndex="4294967280"/>
          <editParameter parameterIndex="0" slotIndex="4294967281"/>
          <channelMap>
            <channel index="0" sourceIndex="0"/>
            <channel index="1" sourceIndex="1"/>
          </channelMap>
        </audioClip>
        <audioClip clipAutoCrossfade="true" crossFadeHeadClipID="-1" crossFadeTailClipID="-1" endPoint="667308" fileID="6" hue="-1" id="1" lockedInTime="false" looped="false" name="car-pass" offline="false" select="false" sourceInPoint="0" sourceOutPoint="270720" startPoint="396588" zOrder="1">
          <component componentGuid="c2a9c7e8-6f23-4705-b463-30b07e9679b8" componentID="Audition.Fader" id="clipGain" name="volume" powered="true">
            <parameter index="0" name="volume" parameterValue="1"/>
            <parameter index="1" name="static gain" parameterValue="1"/>
          </component>
          <component componentGuid="2b158b90-055e-4809-903d-a18bea6db9e7" componentID="Audition.Mute" id="clipMute" name="Mute" powered="true">
            <parameter index="0" parameterValue="0"/>
            <parameter index="1" name="mute" parameterValue="0"/>
          </component>
          <component componentGuid="85cdaeed-04ed-4cc6-927a-7636019a536c" componentID="Audition.StereoPanner" id="clipPan" name="StereoPanner" powered="true">
            <parameter index="0" name="パン" parameterValue="0"/>
          </component>
          <fadeIn crossFadeLinkType="linkedAsymmetric" endPoint="0" shape="0" startPoint="0" type="cosine"/>
          <fadeOut crossFadeLinkType="linkedAsymmetric" endPoint="270720" shape="0" startPoint="270720" type="cosine"/>
          <editParameter parameterIndex="0" slotIndex="4294967280"/>
          <editParameter parameterIndex="0" slotIndex="4294967281"/>
          <channelMap>
            <channel index="0" sourceIndex="0"/>
            <channel index="1" sourceIndex="1"/>
          </channelMap>
        </audioClip>
        <audioClip clipAutoCrossfade="true" crossFadeHeadClipID="-1" crossFadeTailClipID="-1" endPoint="981791" fileID="6" hue="-1" id="2" lockedInTime="false" looped="false" name="car-pass" offline="false" select="false" sourceInPoint="0" sourceOutPoint="270720" startPoint="711071" zOrder="2">
          <component componentGuid="835c4399-0c5a-47cf-9a73-42d3cf72c0af" componentID="Audition.Fader" id="clipGain" name="volume" powered="true">
            <parameter index="0" name="volume" parameterValue="1"/>
            <parameter index="1" name="static gain" parameterValue="1"/>
          </component>
          <component componentGuid="8c28cbe4-dd8a-4d47-9411-108c7083eb99" componentID="Audition.Mute" id="clipMute" name="Mute" powered="true">
            <parameter index="0" parameterValue="0"/>
            <parameter index="1" name="mute" parameterValue="0"/>
          </component>
          <component componentGuid="31adb794-1d7f-44e7-9ec7-e48c5da3e723" componentID="Audition.StereoPanner" id="clipPan" name="StereoPanner" powered="true">
            <parameter index="0" name="パン" parameterValue="0"/>
          </component>
          <fadeIn crossFadeLinkType="linkedAsymmetric" endPoint="0" shape="0" startPoint="0" type="cosine"/>
          <fadeOut crossFadeLinkType="linkedAsymmetric" endPoint="270720" shape="0" startPoint="270720" type="cosine"/>
          <editParameter parameterIndex="0" slotIndex="4294967280"/>
          <editParameter parameterIndex="0" slotIndex="4294967281"/>
          <channelMap>
            <channel index="0" sourceIndex="0"/>
            <channel index="1" sourceIndex="1"/>
          </channelMap>
        </audioClip>
        <audioClip clipAutoCrossfade="true" crossFadeHeadClipID="-1" crossFadeTailClipID="-1" endPoint="1258319" fileID="6" hue="-1" id="3" lockedInTime="false" looped="false" name="car-pass" offline="false" select="false" sourceInPoint="0" sourceOutPoint="270720" startPoint="987599" zOrder="3">
          <component componentGuid="fa7be01a-031f-4f16-acb1-aa356086a4ce" componentID="Audition.Fader" id="clipGain" name="volume" powered="true">
            <parameter index="0" name="volume" parameterValue="1"/>
            <parameter index="1" name="static gain" parameterValue="1"/>
          </component>
          <component componentGuid="8854ad37-c37f-4642-a1bb-9ef04a811e8b" componentID="Audition.Mute" id="clipMute" name="Mute" powered="true">
            <parameter index="0" parameterValue="0"/>
            <parameter index="1" name="mute" parameterValue="0"/>
          </component>
          <component componentGuid="bf5cf81b-abde-445b-8989-d128956de837" componentID="Audition.StereoPanner" id="clipPan" name="StereoPanner" powered="true">
            <parameter index="0" name="パン" parameterValue="0"/>
          </component>
          <fadeIn crossFadeLinkType="linkedAsymmetric" endPoint="0" shape="0" startPoint="0" type="cosine"/>
          <fadeOut crossFadeLinkType="linkedAsymmetric" endPoint="270720" shape="0" startPoint="270720" type="cosine"/>
          <editParameter parameterIndex="0" slotIndex="4294967280"/>
          <editParameter parameterIndex="0" slotIndex="4294967281"/>
          <channelMap>
            <channel index="0" sourceIndex="0"/>
            <channel index="1" sourceIndex="1"/>
          </channelMap>
        </audioClip>
      </audioTrack>
      <audioTrack automationLaneOpenState="false" id="10008" index="14" select="false" visible="true">
        <trackParameters trackHeight="30" trackHue="326" trackMinimized="false">
          <name>トラック 8</name>
        </trackParameters>
        <trackAudioParameters audioChannelType="stereo" automationMode="1" monitoring="false" recordArmed="false" solo="false" soloSafe="false">
          <trackOutput outputID="10000" type="trackID"/>
          <trackInput inputID="1"/>
          <component componentGuid="e0d60b21-fd7b-45ba-b862-0ebec0ddbf8f" componentID="Audition.Fader" id="trackFader" name="volume" powered="true">
            <parameter index="0" name="volume" parameterValue="0.316227734088897705078125"/>
            <parameter index="1" name="static gain" parameterValue="1"/>
          </component>
          <component componentGuid="fbd033ce-556d-4627-9ed6-fee7dfcb5ca8" componentID="Audition.Mute" id="trackMute" name="Mute" powered="true">
            <parameter index="0" parameterValue="0"/>
            <parameter index="1" name="mute" parameterValue="0"/>
          </component>
          <component componentGuid="4bad7021-b22c-4145-9a51-46f1ffe19e13" componentID="Audition.StereoPanner" id="trackPan" name="StereoPanner" powered="true">
            <parameter index="0" name="パン" parameterValue="0"/>
          </component>
          <component componentGuid="dc83d55d-3c83-4de6-bcf1-e7227017eaa2" componentID="Audition.EQ" id="trackEQ" name="EQ" powered="false">
            <parameter index="0" name="ローシェルビング周波数" parameterValue="0.0009078529546968638896942138671875"/>
            <parameter index="1" name="ローシェルビングゲイン" parameterValue="0.5"/>
            <parameter index="2" name="ハイシェルビング周波数" parameterValue="0.816159784793853759765625"/>
            <parameter index="3" name="ハイシェルビングゲイン" parameterValue="0.5"/>
            <parameter index="4" name="EQ バンド 1 センター周波数" parameterValue="0.0013617794029414653778076171875"/>
            <parameter index="5" name="EQ バンド 1 Q" parameterValue="0.000199989997781813144683837890625"/>
            <parameter index="6" name="EQ バンド 1 ゲイン" parameterValue="0.5"/>
            <parameter index="7" name="EQ バンド 1 有効" parameterValue="1"/>
            <parameter index="8" name="EQ バンド 2 センター周波数" parameterValue="0.008170676417648792266845703125"/>
            <parameter index="9" name="EQ バンド 2 Q" parameterValue="0.000199989997781813144683837890625"/>
            <parameter index="10" name="EQ バンド 2 ゲイン" parameterValue="0.5"/>
            <parameter index="11" name="EQ バンド 2 有効" parameterValue="1"/>
            <parameter index="12" name="EQ バンド 3 センター周波数" parameterValue="0.0354062654078006744384765625"/>
            <parameter index="13" name="EQ バンド 3 Q" parameterValue="0.000199989997781813144683837890625"/>
            <parameter index="14" name="EQ バンド 3 ゲイン" parameterValue="0.5"/>
            <parameter index="15" name="EQ バンド 3 有効" parameterValue="1"/>
            <parameter index="16" name="EQ バンド 4 センター周波数" parameterValue="0.144348621368408203125"/>
            <parameter index="17" name="EQ バンド 4 Q" parameterValue="0.000199989997781813144683837890625"/>
            <parameter index="18" name="EQ バンド 4 ゲイン" parameterValue="0.5"/>
            <parameter index="19" name="EQ バンド 4 有効" parameterValue="1"/>
            <parameter index="20" name="EQ バンド 5 センター周波数" parameterValue="0.580118000507354736328125"/>
            <parameter index="21" name="EQ バンド 5 Q" parameterValue="0.000199989997781813144683837890625"/>
            <parameter index="22" name="EQ バンド 5 ゲイン" parameterValue="0.5"/>
            <parameter index="23" name="EQ バンド 5 有効" parameterValue="1"/>
            <parameter index="24" name="マスターゲイン" parameterValue="0.666666686534881591796875"/>
            <parameter index="25" name="ConstantQ" parameterValue="1"/>
            <parameter index="26" name="ローシェルビングフィルター次数" parameterValue="0"/>
            <parameter index="27" name="ハイシェルビングフィルター次数" parameterValue="0"/>
            <parameter index="28" name="ノイズレスモード" parameterValue="0"/>
            <parameter index="29" name="ローシェルビング有効" parameterValue="1"/>
            <parameter index="30" name="ハイシェルビング有効" parameterValue="1"/>
            <parameter index="31" name="オリジナルサンプルレート" parameterValue="0.22968749701976776123046875"/>
            <parameter index="32" name="EQ バンド 1 バンド幅" parameterValue="0.002499990165233612060546875"/>
            <parameter index="33" name="EQ バンド 2 バンド幅" parameterValue="0.0099999904632568359375"/>
            <parameter index="34" name="EQ バンド 3 バンド幅" parameterValue="0.0399999916553497314453125"/>
            <parameter index="35" name="EQ バンド 4 バンド幅" parameterValue="0.15999998152256011962890625"/>
            <parameter index="36" name="EQ バンド 5 バンド幅" parameterValue="0.63999998569488525390625"/>
            <parameter index="37" name="ハイパスフィルター有効" parameterValue="0"/>
            <parameter index="38" name="ハイパスカットオフ周波数" parameterValue="0"/>
            <parameter index="39" name="ハイパススロープ" parameterValue="0.4000000059604644775390625"/>
            <parameter index="40" name="ローパスフィルター有効" parameterValue="0"/>
            <parameter index="41" name="ローパスカットオフ周波数" parameterValue="0.906945049762725830078125"/>
            <parameter index="42" name="ローパススロープ" parameterValue="0.4000000059604644775390625"/>
            <parameter index="43" name="バイパス" parameterValue="0"/>
            <parameter index="44" name="LowGraphRange" parameterValue="1"/>
          </component>
        </trackAudioParameters>
        <effectsRack preFader="true">
          <component componentGuid="16bbf085-2dbd-407e-8207-406490a42b6d" componentID="Audition.ComponentGroup" id="rackMix" powered="true">
            <parameter index="0" parameterValue="0"/>
            <parameter index="1" parameterValue="0"/>
          </component>
          <component componentGuid="e9186439-be25-42a7-990d-514939db5596" id="rackInput" powered="true">
            <parameter index="0" parameterValue="1"/>
            <parameter index="1" parameterValue="0"/>
          </component>
          <component componentGuid="7027b52e-7103-4b79-86fc-3c3031007bf3" id="rackOutput" powered="true">
            <parameter index="0" parameterValue="1"/>
            <parameter index="1" parameterValue="0"/>
          </component>
          <slot powered="true" slotIndex="0">
            <component componentGuid="12241624-103e-4deb-8ad0-a0dfc04bacb8" componentID="164b4e8a-7105-406b-b23b-1ef2cc4d8957" editorHeight="415" editorLeft="479" editorTop="234" editorWidth="495" name="ピッチシフター">
              <busConfig><![CDATA[{"in":[{"layout":[100,101],"name":"ステレオ入力","type":0}],"out":[{"layout":[100,101],"name":"ステレオ出力","type":0}]}]]></busConfig>
              <channelMap direction="input">
                <channel index="0" sourceIndex="0"/>
                <channel index="1" sourceIndex="1"/>
              </channelMap>
              <channelMap direction="output">
                <channel index="0" sourceIndex="0"/>
                <channel index="1" sourceIndex="1"/>
              </channelMap>
              <parameter index="0" name="置き換え比率" parameterValue="0.4175726473331451416015625"/>
              <parameter index="1" name="精度" parameterValue="1"/>
              <parameter index="2" name="周波数" parameterValue="0.083214767277240753173828125"/>
              <parameter index="3" name="オーバーラップ" parameterValue="0.55693423748016357421875"/>
              <parameter index="4" name="デフォルト設定を使用する" parameterValue="0.75"/>
            </component>
          </slot>
        </effectsRack>
        <editParameter parameterIndex="0" slotIndex="4294967280"/>
        <audioClip clipAutoCrossfade="true" crossFadeHeadClipID="-1" crossFadeTailClipID="-1" endPoint="470999" fileID="7" hue="-1" id="0" lockedInTime="false" looped="false" name="bike-pass1 (1)" offline="false" select="false" sourceInPoint="0" sourceOutPoint="240768" startPoint="230231" zOrder="0">
          <component componentGuid="e38987b1-01de-4a67-9a96-69f98c6833de" componentID="Audition.Fader" id="clipGain" name="volume" powered="true">
            <parameter index="0" name="volume" parameterValue="1"/>
            <parameter index="1" name="static gain" parameterValue="1"/>
          </component>
          <component componentGuid="c105dcdb-6d31-4ab6-ae8e-da0161c5c204" componentID="Audition.Mute" id="clipMute" name="Mute" powered="true">
            <parameter index="0" parameterValue="0"/>
            <parameter index="1" name="mute" parameterValue="0"/>
          </component>
          <component componentGuid="19a601cc-6e97-4541-8694-62ec83a3a402" componentID="Audition.StereoPanner" id="clipPan" name="StereoPanner" powered="true">
            <parameter index="0" name="パン" parameterValue="0"/>
          </component>
          <fadeIn crossFadeLinkType="linkedAsymmetric" endPoint="0" shape="0" startPoint="0" type="cosine"/>
          <fadeOut crossFadeLinkType="linkedAsymmetric" endPoint="240768" shape="0" startPoint="240768" type="cosine"/>
          <editParameter parameterIndex="0" slotIndex="4294967280"/>
          <editParameter parameterIndex="0" slotIndex="4294967281"/>
          <channelMap>
            <channel index="0" sourceIndex="0"/>
            <channel index="1" sourceIndex="1"/>
          </channelMap>
        </audioClip>
        <audioClip clipAutoCrossfade="true" crossFadeHeadClipID="-1" crossFadeTailClipID="-1" endPoint="918396" fileID="8" hue="-1" id="1" lockedInTime="false" looped="false" name="bike-pass2" offline="false" select="false" sourceInPoint="0" sourceOutPoint="256896" startPoint="661500" zOrder="1">
          <component componentGuid="08fa32bb-daa4-402e-b438-de1405aeef07" componentID="Audition.Fader" id="clipGain" name="volume" powered="true">
            <parameter index="0" name="volume" parameterValue="1"/>
            <parameter index="1" name="static gain" parameterValue="1"/>
          </component>
          <component componentGuid="dde691eb-2ba9-4a76-a80b-392a02885dbd" componentID="Audition.Mute" id="clipMute" name="Mute" powered="true">
            <parameter index="0" parameterValue="0"/>
            <parameter index="1" name="mute" parameterValue="0"/>
          </component>
          <component componentGuid="2928077c-2edb-4924-bfa8-d484fffccea1" componentID="Audition.StereoPanner" id="clipPan" name="StereoPanner" powered="true">
            <parameter index="0" name="パン" parameterValue="0"/>
          </component>
          <fadeIn crossFadeLinkType="linkedAsymmetric" endPoint="0" shape="0" startPoint="0" type="cosine"/>
          <fadeOut crossFadeLinkType="linkedAsymmetric" endPoint="256896" shape="0" startPoint="256896" type="cosine"/>
          <editParameter parameterIndex="0" slotIndex="4294967280"/>
          <editParameter parameterIndex="0" slotIndex="4294967281"/>
          <channelMap>
            <channel index="0" sourceIndex="0"/>
            <channel index="1" sourceIndex="1"/>
          </channelMap>
        </audioClip>
      </audioTrack>
      <audioTrack automationLaneOpenState="false" id="10009" index="15" select="false" visible="true">
        <trackParameters trackHeight="30" trackHue="130" trackMinimized="false">
          <name>トラック 9</name>
        </trackParameters>
        <trackAudioParameters audioChannelType="stereo" automationMode="1" monitoring="false" recordArmed="false" solo="false" soloSafe="false">
          <trackOutput outputID="10000" type="trackID"/>
          <trackInput inputID="1"/>
          <component componentGuid="809e8262-c98f-4917-81a1-dc0b466d292b" componentID="Audition.Fader" id="trackFader" name="volume" powered="true">
            <parameter index="0" name="volume" parameterValue="0.316227734088897705078125"/>
            <parameter index="1" name="static gain" parameterValue="1"/>
          </component>
          <component componentGuid="5ab4cb94-bf45-4134-adbd-1d5372c01ba2" componentID="Audition.Mute" id="trackMute" name="Mute" powered="true">
            <parameter index="0" parameterValue="0"/>
            <parameter index="1" name="mute" parameterValue="0"/>
          </component>
          <component componentGuid="3fc63c73-c58d-4c96-afc1-1c66573e39c1" componentID="Audition.StereoPanner" id="trackPan" name="StereoPanner" powered="true">
            <parameter index="0" name="パン" parameterValue="0"/>
          </component>
          <component componentGuid="f97bbee7-0fb1-454e-a57b-2dab7ae1d990" componentID="Audition.EQ" id="trackEQ" name="EQ" powered="false">
            <parameter index="0" name="ローシェルビング周波数" parameterValue="0.0009078529546968638896942138671875"/>
            <parameter index="1" name="ローシェルビングゲイン" parameterValue="0.5"/>
            <parameter index="2" name="ハイシェルビング周波数" parameterValue="0.816159784793853759765625"/>
            <parameter index="3" name="ハイシェルビングゲイン" parameterValue="0.5"/>
            <parameter index="4" name="EQ バンド 1 センター周波数" parameterValue="0.0013617794029414653778076171875"/>
            <parameter index="5" name="EQ バンド 1 Q" parameterValue="0.000199989997781813144683837890625"/>
            <parameter index="6" name="EQ バンド 1 ゲイン" parameterValue="0.5"/>
            <parameter index="7" name="EQ バンド 1 有効" parameterValue="1"/>
            <parameter index="8" name="EQ バンド 2 センター周波数" parameterValue="0.008170676417648792266845703125"/>
            <parameter index="9" name="EQ バンド 2 Q" parameterValue="0.000199989997781813144683837890625"/>
            <parameter index="10" name="EQ バンド 2 ゲイン" parameterValue="0.5"/>
            <parameter index="11" name="EQ バンド 2 有効" parameterValue="1"/>
            <parameter index="12" name="EQ バンド 3 センター周波数" parameterValue="0.0354062654078006744384765625"/>
            <parameter index="13" name="EQ バンド 3 Q" parameterValue="0.000199989997781813144683837890625"/>
            <parameter index="14" name="EQ バンド 3 ゲイン" parameterValue="0.5"/>
            <parameter index="15" name="EQ バンド 3 有効" parameterValue="1"/>
            <parameter index="16" name="EQ バンド 4 センター周波数" parameterValue="0.144348621368408203125"/>
            <parameter index="17" name="EQ バンド 4 Q" parameterValue="0.000199989997781813144683837890625"/>
            <parameter index="18" name="EQ バンド 4 ゲイン" parameterValue="0.5"/>
            <parameter index="19" name="EQ バンド 4 有効" parameterValue="1"/>
            <parameter index="20" name="EQ バンド 5 センター周波数" parameterValue="0.580118000507354736328125"/>
            <parameter index="21" name="EQ バンド 5 Q" parameterValue="0.000199989997781813144683837890625"/>
            <parameter index="22" name="EQ バンド 5 ゲイン" parameterValue="0.5"/>
            <parameter index="23" name="EQ バンド 5 有効" parameterValue="1"/>
            <parameter index="24" name="マスターゲイン" parameterValue="0.666666686534881591796875"/>
            <parameter index="25" name="ConstantQ" parameterValue="1"/>
            <parameter index="26" name="ローシェルビングフィルター次数" parameterValue="0"/>
            <parameter index="27" name="ハイシェルビングフィルター次数" parameterValue="0"/>
            <parameter index="28" name="ノイズレスモード" parameterValue="0"/>
            <parameter index="29" name="ローシェルビング有効" parameterValue="1"/>
            <parameter index="30" name="ハイシェルビング有効" parameterValue="1"/>
            <parameter index="31" name="オリジナルサンプルレート" parameterValue="0.22968749701976776123046875"/>
            <parameter index="32" name="EQ バンド 1 バンド幅" parameterValue="0.002499990165233612060546875"/>
            <parameter index="33" name="EQ バンド 2 バンド幅" parameterValue="0.0099999904632568359375"/>
            <parameter index="34" name="EQ バンド 3 バンド幅" parameterValue="0.0399999916553497314453125"/>
            <parameter index="35" name="EQ バンド 4 バンド幅" parameterValue="0.15999998152256011962890625"/>
            <parameter index="36" name="EQ バンド 5 バンド幅" parameterValue="0.63999998569488525390625"/>
            <parameter index="37" name="ハイパスフィルター有効" parameterValue="0"/>
            <parameter index="38" name="ハイパスカットオフ周波数" parameterValue="0"/>
            <parameter index="39" name="ハイパススロープ" parameterValue="0.4000000059604644775390625"/>
            <parameter index="40" name="ローパスフィルター有効" parameterValue="0"/>
            <parameter index="41" name="ローパスカットオフ周波数" parameterValue="0.906945049762725830078125"/>
            <parameter index="42" name="ローパススロープ" parameterValue="0.4000000059604644775390625"/>
            <parameter index="43" name="バイパス" parameterValue="0"/>
            <parameter index="44" name="LowGraphRange" parameterValue="1"/>
          </component>
        </trackAudioParameters>
        <editParameter parameterIndex="0" slotIndex="4294967280"/>
        <audioClip clipAutoCrossfade="true" crossFadeHeadClipID="-1" crossFadeTailClipID="-1" endPoint="347403" fileID="8" hue="-1" id="0" lockedInTime="false" looped="false" name="bike-pass2" offline="false" select="false" sourceInPoint="0" sourceOutPoint="256896" startPoint="90507" zOrder="0">
          <component componentGuid="3b26c10d-3859-44fb-b447-9c9277b6c249" componentID="Audition.Fader" id="clipGain" name="volume" powered="true">
            <parameter index="0" name="volume" parameterValue="1"/>
            <parameter index="1" name="static gain" parameterValue="1"/>
          </component>
          <component componentGuid="80a29559-717c-4bcf-8ac4-a32832227b18" componentID="Audition.Mute" id="clipMute" name="Mute" powered="true">
            <parameter index="0" parameterValue="0"/>
            <parameter index="1" name="mute" parameterValue="0"/>
          </component>
          <component componentGuid="66d5eb1b-022c-44d6-9b51-ae9789f87e3e" componentID="Audition.StereoPanner" id="clipPan" name="StereoPanner" powered="true">
            <parameter index="0" name="パン" parameterValue="0"/>
          </component>
          <fadeIn crossFadeLinkType="linkedAsymmetric" endPoint="0" shape="0" startPoint="0" type="cosine"/>
          <fadeOut crossFadeLinkType="linkedAsymmetric" endPoint="256896" shape="0" startPoint="256896" type="cosine"/>
          <editParameter parameterIndex="0" slotIndex="4294967280"/>
          <editParameter parameterIndex="0" slotIndex="4294967281"/>
          <channelMap>
            <channel index="0" sourceIndex="0"/>
            <channel index="1" sourceIndex="1"/>
          </channelMap>
        </audioClip>
      </audioTrack>
      <masterTrack automationLaneOpenState="false" id="10000" index="16" select="false" visible="true">
        <trackParameters trackHeight="30" trackHue="-1" trackMinimized="false">
          <name>マスター</name>
        </trackParameters>
        <trackAudioParameters audioChannelType="stereo" automationMode="1" monitoring="false" recordArmed="false" solo="false" soloSafe="true">
          <trackOutput outputID="1" type="hardwareOutput"/>
          <trackInput inputID="-1"/>
          <component componentGuid="c76aea58-863c-411b-99bd-f8a32fca862f" componentID="Audition.Fader" id="trackFader" name="volume" powered="true">
            <parameter index="0" name="volume" parameterValue="1"/>
            <parameter index="1" name="static gain" parameterValue="1"/>
          </component>
          <component componentGuid="4f572295-381c-4f0a-84d1-c5e50d3c545b" componentID="Audition.Mute" id="trackMute" name="Mute" powered="true">
            <parameter index="0" parameterValue="0"/>
            <parameter index="1" name="mute" parameterValue="0"/>
          </component>
          <component componentGuid="b6b88eae-977f-4792-8cab-2ea2e09304ec" componentID="Audition.StereoPanner" id="trackPan" name="StereoPanner" powered="true">
            <parameter index="0" name="パン" parameterValue="0"/>
          </component>
          <component componentGuid="1aac8d6b-f429-4fba-ba9f-ba737b393792" componentID="Audition.EQ" id="trackEQ" name="EQ" powered="false">
            <parameter index="0" name="ローシェルビング周波数" parameterValue="0.0009078529546968638896942138671875"/>
            <parameter index="1" name="ローシェルビングゲイン" parameterValue="0.5"/>
            <parameter index="2" name="ハイシェルビング周波数" parameterValue="0.816159784793853759765625"/>
            <parameter index="3" name="ハイシェルビングゲイン" parameterValue="0.5"/>
            <parameter index="4" name="EQ バンド 1 センター周波数" parameterValue="0.0013617794029414653778076171875"/>
            <parameter index="5" name="EQ バンド 1 Q" parameterValue="0.000199989997781813144683837890625"/>
            <parameter index="6" name="EQ バンド 1 ゲイン" parameterValue="0.5"/>
            <parameter index="7" name="EQ バンド 1 有効" parameterValue="1"/>
            <parameter index="8" name="EQ バンド 2 センター周波数" parameterValue="0.008170676417648792266845703125"/>
            <parameter index="9" name="EQ バンド 2 Q" parameterValue="0.000199989997781813144683837890625"/>
            <parameter index="10" name="EQ バンド 2 ゲイン" parameterValue="0.5"/>
            <parameter index="11" name="EQ バンド 2 有効" parameterValue="1"/>
            <parameter index="12" name="EQ バンド 3 センター周波数" parameterValue="0.0354062654078006744384765625"/>
            <parameter index="13" name="EQ バンド 3 Q" parameterValue="0.000199989997781813144683837890625"/>
            <parameter index="14" name="EQ バンド 3 ゲイン" parameterValue="0.5"/>
            <parameter index="15" name="EQ バンド 3 有効" parameterValue="1"/>
            <parameter index="16" name="EQ バンド 4 センター周波数" parameterValue="0.144348621368408203125"/>
            <parameter index="17" name="EQ バンド 4 Q" parameterValue="0.000199989997781813144683837890625"/>
            <parameter index="18" name="EQ バンド 4 ゲイン" parameterValue="0.5"/>
            <parameter index="19" name="EQ バンド 4 有効" parameterValue="1"/>
            <parameter index="20" name="EQ バンド 5 センター周波数" parameterValue="0.580118000507354736328125"/>
            <parameter index="21" name="EQ バンド 5 Q" parameterValue="0.000199989997781813144683837890625"/>
            <parameter index="22" name="EQ バンド 5 ゲイン" parameterValue="0.5"/>
            <parameter index="23" name="EQ バンド 5 有効" parameterValue="1"/>
            <parameter index="24" name="マスターゲイン" parameterValue="0.666666686534881591796875"/>
            <parameter index="25" name="ConstantQ" parameterValue="1"/>
            <parameter index="26" name="ローシェルビングフィルター次数" parameterValue="0"/>
            <parameter index="27" name="ハイシェルビングフィルター次数" parameterValue="0"/>
            <parameter index="28" name="ノイズレスモード" parameterValue="0"/>
            <parameter index="29" name="ローシェルビング有効" parameterValue="1"/>
            <parameter index="30" name="ハイシェルビング有効" parameterValue="1"/>
            <parameter index="31" name="オリジナルサンプルレート" parameterValue="0.22968749701976776123046875"/>
            <parameter index="32" name="EQ バンド 1 バンド幅" parameterValue="0.002499990165233612060546875"/>
            <parameter index="33" name="EQ バンド 2 バンド幅" parameterValue="0.0099999904632568359375"/>
            <parameter index="34" name="EQ バンド 3 バンド幅" parameterValue="0.0399999916553497314453125"/>
            <parameter index="35" name="EQ バンド 4 バンド幅" parameterValue="0.15999998152256011962890625"/>
            <parameter index="36" name="EQ バンド 5 バンド幅" parameterValue="0.63999998569488525390625"/>
            <parameter index="37" name="ハイパスフィルター有効" parameterValue="0"/>
            <parameter index="38" name="ハイパスカットオフ周波数" parameterValue="0"/>
            <parameter index="39" name="ハイパススロープ" parameterValue="0.4000000059604644775390625"/>
            <parameter index="40" name="ローパスフィルター有効" parameterValue="0"/>
            <parameter index="41" name="ローパスカットオフ周波数" parameterValue="0.906945049762725830078125"/>
            <parameter index="42" name="ローパススロープ" parameterValue="0.4000000059604644775390625"/>
            <parameter index="43" name="バイパス" parameterValue="0"/>
            <parameter index="44" name="LowGraphRange" parameterValue="1"/>
          </component>
        </trackAudioParameters>
        <editParameter parameterIndex="0" slotIndex="4294967280"/>
      </masterTrack>
    </tracks>
    <sessionState ctiPosition="0" smpteStart="0">
      <selectionState selectionDuration="0" selectionStart="0"/>
      <viewState horizontalViewDuration="1623550" horizontalViewStart="0" trackControlsWidth="224" verticalScrollOffset="0"/>
      <timeFormatState beatsPerBar="4" beatsPerMinute="120" customFrameRate="12" linkToDefaultTimeSettings="true" noteLength="4" subdivisions="16" timeCodeDropFrame="false" timeCodeFrameRate="30" timeCodeNTSC="false" timeFormat="timeFormatDecimal"/>
      <mixingOptionState defaultPanModeLogarithmic="false" panPower="-3"/>
    </sessionState>
    <xmpMetadata><![CDATA[<?xpacket begin="﻿" id="W5M0MpCehiHzreSzNTczkc9d"?>
<x:xmpmeta xmlns:x="adobe:ns:meta/" x:xmptk="Adobe XMP Core 5.6-c148 79.163765, 2019/01/24-18:11:46        ">
   <rdf:RDF xmlns:rdf="http://www.w3.org/1999/02/22-rdf-syntax-ns#">
      <rdf:Description rdf:about=""
            xmlns:xmp="http://ns.adobe.com/xap/1.0/"
            xmlns:xmpMM="http://ns.adobe.com/xap/1.0/mm/"
            xmlns:stEvt="http://ns.adobe.com/xap/1.0/sType/ResourceEvent#"
            xmlns:stRef="http://ns.adobe.com/xap/1.0/sType/ResourceRef#"
            xmlns:dc="http://purl.org/dc/elements/1.1/"
            xmlns:xmpDM="http://ns.adobe.com/xmp/1.0/DynamicMedia/">
         <xmp:CreatorTool>Adobe Audition 12.1 (Macintosh)</xmp:CreatorTool>
         <xmp:CreateDate>2020-06-10T01:26:24+09:00</xmp:CreateDate>
         <xmp:MetadataDate>2020-06-11T02:59:59+09:00</xmp:MetadataDate>
         <xmp:ModifyDate>2020-06-11T02:59:59+09:00</xmp:ModifyDate>
         <xmpMM:InstanceID>xmp.iid:03ac93bb-2cd7-4bde-9b65-bf26560e6c41</xmpMM:InstanceID>
         <xmpMM:DocumentID>xmp.did:b299d05f-cd1f-473f-a9e4-08b9b9754fc7</xmpMM:DocumentID>
         <xmpMM:OriginalDocumentID>xmp.did:5d94ccbf-376f-4559-9435-c5b1d3e346a5</xmpMM:OriginalDocumentID>
         <xmpMM:History>
            <rdf:Seq>
               <rdf:li rdf:parseType="Resource">
                  <stEvt:action>saved</stEvt:action>
                  <stEvt:instanceID>xmp.iid:5d94ccbf-376f-4559-9435-c5b1d3e346a5</stEvt:instanceID>
                  <stEvt:when>2020-06-10T01:26:24+09:00</stEvt:when>
                  <stEvt:softwareAgent>Adobe Audition 12.1 (Macintosh)</stEvt:softwareAgent>
                  <stEvt:changed>/metadata</stEvt:changed>
               </rdf:li>
               <rdf:li rdf:parseType="Resource">
                  <stEvt:action>saved</stEvt:action>
                  <stEvt:instanceID>xmp.iid:9deeb476-6f5d-4a59-98e8-66a30567215b</stEvt:instanceID>
                  <stEvt:when>2020-06-10T01:26:25+09:00</stEvt:when>
                  <stEvt:softwareAgent>Adobe Audition 12.1 (Macintosh)</stEvt:softwareAgent>
                  <stEvt:changed>/metadata</stEvt:changed>
               </rdf:li>
               <rdf:li rdf:parseType="Resource">
                  <stEvt:action>saved</stEvt:action>
                  <stEvt:instanceID>xmp.iid:7b68dacf-6bba-4cd6-a54b-26f389f71e3e</stEvt:instanceID>
                  <stEvt:when>2020-06-10T01:26:25+09:00</stEvt:when>
                  <stEvt:softwareAgent>Adobe Audition 12.1 (Macintosh)</stEvt:softwareAgent>
                  <stEvt:changed>/</stEvt:changed>
               </rdf:li>
               <rdf:li rdf:parseType="Resource">
                  <stEvt:action>saved</stEvt:action>
                  <stEvt:instanceID>xmp.iid:7575cd7f-8a5e-4460-8af6-1cf6d14caddd</stEvt:instanceID>
                  <stEvt:when>2020-06-10T01:47:18+09:00</stEvt:when>
                  <stEvt:softwareAgent>Adobe Audition 12.1 (Macintosh)</stEvt:softwareAgent>
                  <stEvt:changed>/metadata</stEvt:changed>
               </rdf:li>
               <rdf:li rdf:parseType="Resource">
                  <stEvt:action>saved</stEvt:action>
                  <stEvt:instanceID>xmp.iid:df9105f8-50ef-4182-b024-8d56d2cc362d</stEvt:instanceID>
                  <stEvt:when>2020-06-10T01:47:18+09:00</stEvt:when>
                  <stEvt:softwareAgent>Adobe Audition 12.1 (Macintosh)</stEvt:softwareAgent>
                  <stEvt:changed>/</stEvt:changed>
               </rdf:li>
               <rdf:li rdf:parseType="Resource">
                  <stEvt:action>saved</stEvt:action>
                  <stEvt:instanceID>xmp.iid:c83f5b8e-f025-4a1b-bee4-d3dae0b42511</stEvt:instanceID>
                  <stEvt:when>2020-06-10T01:47:23+09:00</stEvt:when>
                  <stEvt:softwareAgent>Adobe Audition 12.1 (Macintosh)</stEvt:softwareAgent>
                  <stEvt:changed>/metadata</stEvt:changed>
               </rdf:li>
               <rdf:li rdf:parseType="Resource">
                  <stEvt:action>saved</stEvt:action>
                  <stEvt:instanceID>xmp.iid:32e3dc0d-8704-4c7d-bfb7-d634624588de</stEvt:instanceID>
                  <stEvt:when>2020-06-10T01:47:23+09:00</stEvt:when>
                  <stEvt:softwareAgent>Adobe Audition 12.1 (Macintosh)</stEvt:softwareAgent>
                  <stEvt:changed>/</stEvt:changed>
               </rdf:li>
               <rdf:li rdf:parseType="Resource">
                  <stEvt:action>saved</stEvt:action>
                  <stEvt:instanceID>xmp.iid:09091d81-1dc8-42da-849f-ce42582b3968</stEvt:instanceID>
                  <stEvt:when>2020-06-10T02:05:07+09:00</stEvt:when>
                  <stEvt:softwareAgent>Adobe Audition 12.1 (Macintosh)</stEvt:softwareAgent>
                  <stEvt:changed>/metadata</stEvt:changed>
               </rdf:li>
               <rdf:li rdf:parseType="Resource">
                  <stEvt:action>saved</stEvt:action>
                  <stEvt:instanceID>xmp.iid:b299d05f-cd1f-473f-a9e4-08b9b9754fc7</stEvt:instanceID>
                  <stEvt:when>2020-06-10T02:05:07+09:00</stEvt:when>
                  <stEvt:softwareAgent>Adobe Audition 12.1 (Macintosh)</stEvt:softwareAgent>
                  <stEvt:changed>/</stEvt:changed>
               </rdf:li>
               <rdf:li rdf:parseType="Resource">
                  <stEvt:action>saved</stEvt:action>
                  <stEvt:instanceID>xmp.iid:f6636ae8-06a5-4f10-8134-75b648f2d477</stEvt:instanceID>
                  <stEvt:when>2020-06-10T11:33:05+09:00</stEvt:when>
                  <stEvt:softwareAgent>Adobe Audition 12.1 (Macintosh)</stEvt:softwareAgent>
                  <stEvt:changed>/metadata</stEvt:changed>
               </rdf:li>
               <rdf:li rdf:parseType="Resource">
                  <stEvt:action>saved</stEvt:action>
                  <stEvt:instanceID>xmp.iid:dfdaab53-a3b7-4923-be19-cbe180411960</stEvt:instanceID>
                  <stEvt:when>2020-06-10T11:33:05+09:00</stEvt:when>
                  <stEvt:softwareAgent>Adobe Audition 12.1 (Macintosh)</stEvt:softwareAgent>
                  <stEvt:changed>/</stEvt:changed>
               </rdf:li>
               <rdf:li rdf:parseType="Resource">
                  <stEvt:action>saved</stEvt:action>
                  <stEvt:instanceID>xmp.iid:8c6e9a46-9113-4fac-b8c9-27d03dd45efc</stEvt:instanceID>
                  <stEvt:when>2020-06-11T02:59:59+09:00</stEvt:when>
                  <stEvt:softwareAgent>Adobe Audition 12.1 (Macintosh)</stEvt:softwareAgent>
                  <stEvt:changed>/metadata</stEvt:changed>
               </rdf:li>
               <rdf:li rdf:parseType="Resource">
                  <stEvt:action>saved</stEvt:action>
                  <stEvt:instanceID>xmp.iid:03ac93bb-2cd7-4bde-9b65-bf26560e6c41</stEvt:instanceID>
                  <stEvt:when>2020-06-11T02:59:59+09:00</stEvt:when>
                  <stEvt:softwareAgent>Adobe Audition 12.1 (Macintosh)</stEvt:softwareAgent>
                  <stEvt:changed>/</stEvt:changed>
               </rdf:li>
            </rdf:Seq>
         </xmpMM:History>
         <xmpMM:DerivedFrom rdf:parseType="Resource">
            <stRef:instanceID>xmp.iid:09091d81-1dc8-42da-849f-ce42582b3968</stRef:instanceID>
            <stRef:documentID>xmp.did:7b68dacf-6bba-4cd6-a54b-26f389f71e3e</stRef:documentID>
            <stRef:originalDocumentID>xmp.did:5d94ccbf-376f-4559-9435-c5b1d3e346a5</stRef:originalDocumentID>
         </xmpMM:DerivedFrom>
         <dc:format>application/xml</dc:format>
         <xmpDM:Tracks>
            <rdf:Bag>
               <rdf:li rdf:parseType="Resource">
                  <xmpDM:trackName>CuePoint Markers</xmpDM:trackName>
                  <xmpDM:trackType>Cue</xmpDM:trackType>
                  <xmpDM:frameRate>f44100</xmpDM:frameRate>
               </rdf:li>
               <rdf:li rdf:parseType="Resource">
                  <xmpDM:trackName>CD Track Markers</xmpDM:trackName>
                  <xmpDM:trackType>Track</xmpDM:trackType>
                  <xmpDM:frameRate>f44100</xmpDM:frameRate>
               </rdf:li>
               <rdf:li rdf:parseType="Resource">
                  <xmpDM:trackName>Subclip Markers</xmpDM:trackName>
                  <xmpDM:trackType>InOut</xmpDM:trackType>
                  <xmpDM:frameRate>f44100</xmpDM:frameRate>
               </rdf:li>
            </rdf:Bag>
         </xmpDM:Tracks>
      </rdf:Description>
   </rdf:RDF>
</x:xmpmeta>
                                                                                                    
                                                                                                    
                                                                                                    
                                                                                                    
                                                                                                    
                                                                                                    
                                                                                                    
                                                                                                    
                                                                                                    
                                                                                                    
                                                                                                    
                                                                                                    
                                                                                                    
                                                                                                    
                                                                                                    
                                                                                                    
                                                                                                    
                                                                                                    
                                                                                                    
                                                                                                    
                           
<?xpacket end="w"?>]]></xmpMetadata>
    <clipGroups/>
    <metronome enabled="false" pattern="downBeat subdivision subdivision subdivision " soundSet="sticks">
      <metronomeTrack automationLaneOpenState="false" id="40000" index="0" select="false" visible="false">
        <trackParameters trackHeight="77" trackHue="-1" trackMinimized="false">
          <name>メトロノーム</name>
        </trackParameters>
        <trackAudioParameters audioChannelType="mono" automationMode="1" monitoring="false" recordArmed="false" solo="false" soloSafe="true">
          <trackOutput outputID="10000" type="trackID"/>
          <trackInput inputID="-1"/>
          <component componentGuid="257e14ec-ead2-4cbe-abff-37c0881649e9" componentID="Audition.Fader" id="trackFader" name="volume" powered="true">
            <parameter index="0" name="volume" parameterValue="0.50118720531463623046875"/>
            <parameter index="1" name="static gain" parameterValue="1"/>
          </component>
          <component componentGuid="7ffccd2d-4a45-4cb8-a0e0-069fd56b7c95" componentID="Audition.Mute" id="trackMute" name="Mute" powered="true">
            <parameter index="0" parameterValue="0"/>
            <parameter index="1" name="mute" parameterValue="0"/>
          </component>
          <component componentGuid="a94e2384-f38f-4646-93c2-bfa700845449" componentID="Audition.StereoPanner" id="trackPan" name="StereoPanner" powered="true">
            <parameter index="0" name="パン" parameterValue="0"/>
          </component>
          <component componentGuid="9b6bfe29-97f8-48be-b64b-dfcdd6f139fe" componentID="Audition.EQ" id="trackEQ" name="EQ" powered="false">
            <parameter index="0" name="ローシェルビング周波数" parameterValue="0.0009078529546968638896942138671875"/>
            <parameter index="1" name="ローシェルビングゲイン" parameterValue="0.5"/>
            <parameter index="2" name="ハイシェルビング周波数" parameterValue="0.816159784793853759765625"/>
            <parameter index="3" name="ハイシェルビングゲイン" parameterValue="0.5"/>
            <parameter index="4" name="EQ バンド 1 センター周波数" parameterValue="0.0013617794029414653778076171875"/>
            <parameter index="5" name="EQ バンド 1 Q" parameterValue="0.000199989997781813144683837890625"/>
            <parameter index="6" name="EQ バンド 1 ゲイン" parameterValue="0.5"/>
            <parameter index="7" name="EQ バンド 1 有効" parameterValue="1"/>
            <parameter index="8" name="EQ バンド 2 センター周波数" parameterValue="0.008170676417648792266845703125"/>
            <parameter index="9" name="EQ バンド 2 Q" parameterValue="0.000199989997781813144683837890625"/>
            <parameter index="10" name="EQ バンド 2 ゲイン" parameterValue="0.5"/>
            <parameter index="11" name="EQ バンド 2 有効" parameterValue="1"/>
            <parameter index="12" name="EQ バンド 3 センター周波数" parameterValue="0.0354062654078006744384765625"/>
            <parameter index="13" name="EQ バンド 3 Q" parameterValue="0.000199989997781813144683837890625"/>
            <parameter index="14" name="EQ バンド 3 ゲイン" parameterValue="0.5"/>
            <parameter index="15" name="EQ バンド 3 有効" parameterValue="1"/>
            <parameter index="16" name="EQ バンド 4 センター周波数" parameterValue="0.144348621368408203125"/>
            <parameter index="17" name="EQ バンド 4 Q" parameterValue="0.000199989997781813144683837890625"/>
            <parameter index="18" name="EQ バンド 4 ゲイン" parameterValue="0.5"/>
            <parameter index="19" name="EQ バンド 4 有効" parameterValue="1"/>
            <parameter index="20" name="EQ バンド 5 センター周波数" parameterValue="0.580118000507354736328125"/>
            <parameter index="21" name="EQ バンド 5 Q" parameterValue="0.000199989997781813144683837890625"/>
            <parameter index="22" name="EQ バンド 5 ゲイン" parameterValue="0.5"/>
            <parameter index="23" name="EQ バンド 5 有効" parameterValue="1"/>
            <parameter index="24" name="マスターゲイン" parameterValue="0.666666686534881591796875"/>
            <parameter index="25" name="ConstantQ" parameterValue="1"/>
            <parameter index="26" name="ローシェルビングフィルター次数" parameterValue="0"/>
            <parameter index="27" name="ハイシェルビングフィルター次数" parameterValue="0"/>
            <parameter index="28" name="ノイズレスモード" parameterValue="0"/>
            <parameter index="29" name="ローシェルビング有効" parameterValue="1"/>
            <parameter index="30" name="ハイシェルビング有効" parameterValue="1"/>
            <parameter index="31" name="オリジナルサンプルレート" parameterValue="0.22968749701976776123046875"/>
            <parameter index="32" name="EQ バンド 1 バンド幅" parameterValue="0.002499990165233612060546875"/>
            <parameter index="33" name="EQ バンド 2 バンド幅" parameterValue="0.0099999904632568359375"/>
            <parameter index="34" name="EQ バンド 3 バンド幅" parameterValue="0.0399999916553497314453125"/>
            <parameter index="35" name="EQ バンド 4 バンド幅" parameterValue="0.15999998152256011962890625"/>
            <parameter index="36" name="EQ バンド 5 バンド幅" parameterValue="0.63999998569488525390625"/>
            <parameter index="37" name="ハイパスフィルター有効" parameterValue="0"/>
            <parameter index="38" name="ハイパスカットオフ周波数" parameterValue="0"/>
            <parameter index="39" name="ハイパススロープ" parameterValue="0.4000000059604644775390625"/>
            <parameter index="40" name="ローパスフィルター有効" parameterValue="0"/>
            <parameter index="41" name="ローパスカットオフ周波数" parameterValue="0.906945049762725830078125"/>
            <parameter index="42" name="ローパススロープ" parameterValue="0.4000000059604644775390625"/>
            <parameter index="43" name="バイパス" parameterValue="0"/>
            <parameter index="44" name="LowGraphRange" parameterValue="1"/>
          </component>
        </trackAudioParameters>
        <editParameter parameterIndex="0" slotIndex="4294967280"/>
      </metronomeTrack>
    </metronome>
    <properties>
      <property key="EssentialSoundConfigurations">[{"Guid":"a8b40e3e-13e7-4c1f-b382-96058f1f691d","Name":"$$$/app/Presets/DefaultPresetName=(Default)","PresetData":{"ModeID":"ambience","Models":{"model_ducking":{},"model_loudness":{"DefaultLoudness":{"type":"float","value":-30},"LoudnessStandard":{"type":"std::uint32_t","value":0},"MaxLoudness":{"type":"float","value":-12},"MinLoudness":{"type":"float","value":-42}},"model_soundeffects":{"ReverbPresets":{"type":"tree::any","value":{"$$$/app/Presets/EssentialSound/ReverbPreset/LargeRoomAmbience=Large Room Ambience":{"type":"array::float","value":[0.051507499068975449,0.32432401180267334,0.29292899370193481,0.30000001192092896,0.20000000298023224,0,0.14285700023174286,0.40000000596046448,0.5,0.69999998807907104,0.30000001192092896,0.25125628709793091,0.03125]},"$$$/app/Presets/EssentialSound/ReverbPreset/OutsideAmbience=Outside Ambience":{"type":"array::float","value":[0.091708503663539886,0.043893899768590927,1,0.5,0.20000000298023224,0.80000001192092896,0.18367299437522888,1,0.5,0,0.80000001192092896,0.25125628709793091,0.03125]},"$$$/app/Presets/EssentialSound/ReverbPreset/RoomAmbience=Room Ambience":{"type":"array::float","value":[0.057788901031017303,0.44944900274276733,0.49494898319244385,0.89999997615814209,0.10000000149011612,0.15000000596046448,0.081632703542709351,0.40000000596046448,0.5,0.80000001192092896,0.20000000298023224,0.25125628709793091,0.03125]},"$$$/app/Presets/EssentialSound/ReverbPreset/WindEffect=Wind Effect":{"type":"array::float","value":[0.19597999751567841,0.6896899938583374,0.69696998596191406,0.25,0.5,0.5,0.23469400405883789,0.51999998092651367,0.5,0.75,0.25,0.25125628709793091,0.03125]}}}},"model_stereowidth":{},"model_volume":{"MaxGain":{"type":"float","value":15},"MinGain":{"type":"float","value":-60}}}},"Type":"1c19ca71-c24c-49cd-8dd5-2cc46018507a","Version":1},{"Guid":"58dc27a8-6a2a-480c-bd0c-4b45fff346a6","Name":"$$$/app/Presets/DefaultPresetName=(Default)","PresetData":{"ModeID":"dialog","Models":{"model_clarity":{"EQPresets":{"type":"tree::any","value":{"$$$/app/Presets/EssentialSound/EQPreset/BackgroundVoice=Background Voice":{"type":"array::float","value":[0.12099699676036835,0.5,0.39240506291389465,0,0.5,0.5,0.5,0.5,0.5,0.47827938199043274,0.45772689580917358,0.45778733491897583,0.47946760058403015,0.5,0]},"$$$/app/Presets/EssentialSound/EQPreset/Intercom=Intercom":{"type":"array::float","value":[0.19432899355888367,0.5,1,0,0.071499988436698914,0.071499988436698914,0.071499988436698914,0.40238627791404724,0.48571401834487915,0.5,0.55155748128890991,0.59602576494216919,0.22246670722961426,0.071499988436698914,0]},"$$$/app/Presets/EssentialSound/EQPreset/LockedInTheTrunk=Locked in the Trunk":{"type":"array::float","value":[0.12099699676036835,0.5,0.79746836423873901,0,0.5,0.5,0.5,0.5,0.5,0.32846158742904663,0.15721426904201508,0.15721426904201508,0.15721426904201508,0.15721426904201508,0]},"$$$/app/Presets/EssentialSound/EQPreset/OldRadio=Old Radio":{"type":"array::float","value":[0.12099699676036835,0.5,0.79746836423873901,0,0.15721426904201508,0.15721426904201508,0.15721426904201508,0.28442040085792542,0.48315632343292236,0.36498492956161499,0.52853888273239136,0.43511500954627991,0.27154684066772461,0.15721426904201508,0]},"$$$/app/Presets/EssentialSound/EQPreset/OnTheTelephone=On the Telephone":{"type":"array::float","value":[0.12099699676036835,0.5,0.39240506291389465,0,0.32864287495613098,0.32864287495613098,0.32864287495613098,0.32864287495613098,0.48571401834487915,0.53071397542953491,0.53071397542953491,0.48357096314430237,0.32864287495613098,0.32864287495613098,0]},"$$$/app/Presets/EssentialSound/EQPreset/OutsideOfTheRoom=Outside of the Room":{"type":"array::float","value":[0.12099699676036835,0.5,0.79746836423873901,0,0.42539370059967041,0.47865453362464905,0.5,0.5,0.48571401834487915,0.40073278546333313,0.25656309723854065,0.15721426904201508,0.15721426904201508,0.15721426904201508,0]},"$$$/app/Presets/EssentialSound/EQPreset/PodcastVoice=Podcast Voice":{"type":"array::float","value":[0.12099699676036835,0.5,0.39240506291389465,0,0.5,0.5,0.5,0.51789408922195435,0.50770342350006104,0.5,0.51789408922195435,0.528114914894104,0.5102812647819519,0.5,0]},"$$$/app/Presets/EssentialSound/EQPreset/SubtleBoostFemale=Subtle Boost (Female)":{"type":"array::float","value":[0.096553400158882141,0.5,0.29113924503326416,0,0.5,0.5,0.5,0.5,0.5,0.51933407783508301,0.54642897844314575,0.52706766128540039,0.5,0.5,0]},"$$$/app/Presets/EssentialSound/EQPreset/SubtleBoostMale=Subtle Boost (Male)":{"type":"array::float","value":[0.096553400158882141,0.5,0.29113924503326416,0,0.5,0.5,0.5,0.5,0.5,0.5135338306427002,0.54642897844314575,0.51933407783508301,0.5,0.5,0]},"$$$/app/Presets/EssentialSound/EQPreset/ThatPublicRadioSound=That Public Radio Sound":{"type":"array::float","value":[0.12099699676036835,0.5,0.79746836423873901,0,0.15721426904201508,0.15721426904201508,0.15721426904201508,0.36334344744682312,0.49468311667442322,0.5,0.5,0.5,0.5,0.5,0]},"$$$/app/Presets/EssentialSound/EQPreset/VocalPresence=Vocal Presence":{"type":"array::float","value":[0.096553400158882141,0.5,0.32489451766014099,0,0.3572143018245697,0.3572143018245697,0.46428570151329041,0.47857141494750977,0.4763694703578949,0.49570354819297791,0.55924957990646362,0.56523394584655762,0.50859290361404419,0.46992480754852295,0]}}}},"model_loudness":{"DefaultLoudness":{"type":"float","value":-23},"LoudnessStandard":{"type":"std::uint32_t","value":0},"MaxLoudness":{"type":"float","value":-12},"MinLoudness":{"type":"float","value":-42}},"model_restoration":{"ReduceNoiseMaxSetting":{"type":"array::float","value":[1,0,0,0,0]},"ReduceNoiseMinSetting":{"type":"array::float","value":[0,0,0,0,0]},"ReduceReverbMaxSetting":{"type":"array::float","value":[1,0,1,0,0]},"ReduceReverbMinSetting":{"type":"array::float","value":[0,0,1,0,0]},"ReduceRumbleMaxSetting":{"type":"array::float","value":[1,0.084112152457237244,0.375,0,0,0.00083333335351198912,1,0,1,0.0390625,0.00083408987848088145,0,0.0041666668839752674,0.00022554649331141263,0.0046875001862645149,0.75,0.0052083334885537624,0.75,1,0.75,0.0040520834736526012,0.75,0.0042629167437553406,0.00022554649331141263,0.0064883334562182426,0.00022554649331141263,0.006866666954010725,0.75,0.0071704164147377014,0.00022554649331141263,0.01041458360850811,0.00022554649331141263,0.010900000110268593,0.75,0.011407917365431786,0.00022554649331141263,0.015606249682605267,0.00022554649331141263,0.016333334147930145,0.75,0.017094582319259644,0.00022554649331141263,0.026243748143315315,0.00022554649331141263,0.0274666678160429,0.75,0.028746666386723518,0.00022554649331141263,0.041658751666545868,0.00022554649331141263,0.043600000441074371,0.75,0.045631669461727142,0.00022554649331141263,0.062424581497907639,0.00022554649331141263,0.065333336591720581,0.75,0.068377502262592316,0.00022554649331141263,0.10497540980577469,0.00022554649331141263,0.1098666712641716,0.75,0.11498583108186722,0.00022554649331141263,0.16663584113121033,0.00022554649331141263,0.17440000176429749,0.75,0.18252624571323395,0.00022554649331141263,0.91874998807907104,0.00022554649331141263,1,0.00022554649331141263,0,0,0,0,0,0,0,0,0,0,0,0,0,0,0,0,0,0,0,0,0,0,0,0,0,0,0,0,0,0,0,0,0,0,0,0,0,0,0,0,0,0,0,0,0,0,0,0,0,0,0,0,0,0,0,0,0,0,0,0,0,0,0,0,0,0,0,0,0,0,0,0,0,0,0,0,0,0,0,0,0,0,0,0,0,0,0,0,0,0,0,0,0,0,0,0,0,0,0,0,0,0,0,0,0,0,0,0,0,0,0,0,0,0,0,0,0,0,0,0,0,0,0,0,0,0,0,0,0,0,0,0,0,0,0,0,0,0,0,0,0,0,0,0,0,0,0,0,0,0,0,0,0,0,0,0,0,0,0,0,0,0,0,0,0,0,0,0,0,0,0,0,0,0,0,0,0,0,0,0,0,0,0,0,0,0,0,0,0,0]},"ReduceRumbleMinSetting":{"type":"array::float","value":[1,0.084112152457237244,0.375,0,0,0.00083333335351198912,1,0,1,0.0390625,0.00083408987848088145,0.75,0.0041666668839752674,0.75,0.0046875001862645149,0.75,0.0052083334885537624,0.75,1,0.75,0.91874998807907104,0.61237245798110962,1,0.61237245798110962,0,0,0,0,0,0,0,0,0,0,0,0,0,0,0,0,0,0,0,0,0,0,0,0,0,0,0,0,0,0,0,0,0,0,0,0,0,0,0,0,0,0,0,0,0,0,0,0,0,0,0,0,0,0,0,0,0,0,0,0,0,0,0,0,0,0,0,0,0,0,0,0,0,0,0,0,0,0,0,0,0,0,0,0,0,0,0,0,0,0,0,0,0,0,0,0,0,0,0,0,0,0,0,0,0,0,0,0,0,0,0,0,0,0,0,0,0,0,0,0,0,0,0,0,0,0,0,0,0,0,0,0,0,0,0,0,0,0,0,0,0,0,0,0,0,0,0,0,0,0,0,0,0,0,0,0,0,0,0,0,0,0,0,0,0,0,0,0,0,0,0,0,0,0,0,0,0,0,0,0,0,0,0,0,0,0,0,0,0,0,0,0,0,0,0,0,0,0,0,0,0,0,0,0,0,0,0,0,0,0,0,0,0,0,0,0,0,0,0,0,0,0,0,0,0,0,0,0,0,0,0,0,0,0,0,0,0,0,0,0,0,0]},"ReduceSibilanceMaxSetting":{"type":"array::float","value":[0.5,0.19983997941017151,0.18367347121238708,0.26086956262588501,0.52702701091766357,0,1,0,0,0,0,0.75,1,1,0.40000000596046448]},"ReduceSibilanceMinSetting":{"type":"array::float","value":[0.875,0.19983997941017151,0.18367347121238708,0.19130434095859528,0.25675675272941589,0,1,0,0,0,0,0.75,1,1,0.40000000596046448]}},"model_soundeffects":{"ReverbPresets":{"type":"tree::any","value":{"$$$/app/Presets/EssentialSound/ReverbPreset/Auditorium=Auditorium":{"type":"array::float","value":[0.013047545216977596,0.15895412862300873,1,0.89999997615814209,0,0.52007436752319336,0.41663265228271484,0.46000000834465027,0.5,0.73000001907348633,0.15999999642372131,0.75376886129379272,0.03125]},"$$$/app/Presets/EssentialSound/ReverbPreset/Church=Church":{"type":"array::float","value":[0.032663315534591675,0.39939939975738525,0.79797977209091187,0.25,0.5,0.5,0.2297959178686142,0.72000002861022949,0.5,0.62999999523162842,0.87999999523162842,0.25125628709793091,0.03125]},"$$$/app/Presets/EssentialSound/ReverbPreset/LargeReflectiveRoom=Large Reflective Room":{"type":"array::float","value":[0.0074449013918638229,0.098988421261310577,0.79890537261962891,0.89999997615814209,0.10000000149011612,0.40110713243484497,0.060284845530986786,0.27522978186607361,0.5,0.73000001907348633,0.31999999284744263,0.25125628709793091,0.03125]},"$$$/app/Presets/EssentialSound/ReverbPreset/OutsideTheClub=Outside the Club":{"type":"array::float","value":[0.020615793764591217,0.050136558711528778,0.69696998596191406,0.25,0.094355784356594086,0.22242647409439087,0.1071428582072258,0.2800000011920929,0.5,0.73000001907348633,0.46000000834465027,0.25125628709793091,0.03125]},"$$$/app/Presets/EssentialSound/ReverbPreset/SmallDryRoom=Small Dry Room":{"type":"array::float","value":[0.24623115360736847,0.69975000619888306,0.29292899370193481,0.40000000596046448,0.20000000298023224,0.40000000596046448,0.039285715669393539,0.10000000149011612,0.5,1,0.5,0.75376886129379272,0.03125]},"$$$/app/Presets/EssentialSound/ReverbPreset/ThickenVoice=Thicken Voice":{"type":"array::float","value":[0.19597999751567841,0.23931467533111572,0.69696998596191406,0.25,0.5,0.53999996185302734,0.020408162847161293,0.20945435762405396,0.5,1,0.34999999403953552,0.25125628709793091,0.03125]},"$$$/app/Presets/EssentialSound/ReverbPreset/WarmRoom=Warm Room":{"type":"array::float","value":[0.020100502297282219,0.074074074625968933,0.49494948983192444,0.40000000596046448,0.74960309267044067,0.40000000596046448,0.1239795908331871,0.67000001668930054,0.5,0.85000002384185791,0.56000000238418579,0.25125628709793091,0.03125]},"$$$/app/Presets/EssentialSound/ReverbPreset/WarmVoice=Warm Voice":{"type":"array::float","value":[0.19597989320755005,0.89989989995956421,0,0.40000000596046448,0.20000000298023224,0.40000000596046448,0.10204081982374191,0.090000003576278687,0.5,1,0.30000001192092896,0.25125628709793091,0.03125]}}}},"model_volume":{"MaxGain":{"type":"float","value":15},"MinGain":{"type":"float","value":-60}}}},"Type":"1c19ca71-c24c-49cd-8dd5-2cc46018507a","Version":1},{"Guid":"353811fa-4179-435e-8e5e-23028ba15a7a","Name":"$$$/app/Presets/DefaultPresetName=(Default)","PresetData":{"ModeID":"generic","Models":{"model_loudness":{"DefaultLoudness":{"type":"float","value":-24},"LoudnessStandard":{"type":"std::uint32_t","value":0},"MaxLoudness":{"type":"float","value":-12},"MinLoudness":{"type":"float","value":-42}},"model_volume":{"MaxGain":{"type":"float","value":15},"MinGain":{"type":"float","value":-60}}}},"Type":"1c19ca71-c24c-49cd-8dd5-2cc46018507a","Version":1},{"Guid":"31ba96a6-5d3e-4d89-b1e1-1dbe3c055d0c","Name":"$$$/app/Presets/DefaultPresetName=(Default)","PresetData":{"ModeID":"music","Models":{"model_ducking":{},"model_duration":{},"model_loudness":{"DefaultLoudness":{"type":"float","value":-25},"LoudnessStandard":{"type":"std::uint32_t","value":0},"MaxLoudness":{"type":"float","value":-12},"MinLoudness":{"type":"float","value":-42}},"model_volume":{"MaxGain":{"type":"float","value":15},"MinGain":{"type":"float","value":-60}}}},"Type":"1c19ca71-c24c-49cd-8dd5-2cc46018507a","Version":1},{"Guid":"cea63332-1adc-44a9-a6eb-5490f965859b","Name":"$$$/app/Presets/DefaultPresetName=(Default)","PresetData":{"ModeID":"sfx","Models":{"model_loudness":{"DefaultLoudness":{"type":"float","value":-21},"LoudnessStandard":{"type":"std::uint32_t","value":0},"MaxLoudness":{"type":"float","value":-12},"MinLoudness":{"type":"float","value":-42}},"model_pan":{},"model_soundeffects":{"ReverbPresets":{"type":"tree::any","value":{"$$$/app/Presets/EssentialSound/ReverbPreset/HeavyReverb=Heavy Reverb":{"type":"array::float","value":[0.13316600024700165,0.29929900169372559,1,0.95999997854232788,0.85000002384185791,0.5,0.51530599594116211,0.30000001192092896,0.5,0.5,0.5,0.25125628709793091,0.0625]},"$$$/app/Presets/EssentialSound/ReverbPreset/LightReverb=Light Reverb":{"type":"array::float","value":[0.095477402210235596,0.29929900169372559,0.090909101068973541,1,1,0.80000001192092896,0.22449000179767609,0.60000002384185791,0.5,0.69999998807907104,0.30000001192092896,0.25125628709793091,0.0625]},"$$$/app/Presets/EssentialSound/ReverbPreset/OutsideReverb=Outside Reverb":{"type":"array::float","value":[0.091708503663539886,0.043893899768590927,1,0.5,0.20000000298023224,0.80000001192092896,0.18367299437522888,1,0.5,0,0.80000001192092896,0.25125628709793091,0.0625]},"$$$/app/Presets/EssentialSound/ReverbPreset/RoomReverb=Room Reverb":{"type":"array::float","value":[0.057788901031017303,0.44944900274276733,0.49494898319244385,0.89999997615814209,0.10000000149011612,0.15000000596046448,0.081632703542709351,0.40000000596046448,0.5,0.80000001192092896,0.20000000298023224,0.25125628709793091,0.0625]}}}},"model_volume":{"MaxGain":{"type":"float","value":15},"MinGain":{"type":"float","value":-60}}}},"Type":"1c19ca71-c24c-49cd-8dd5-2cc46018507a","Version":1}]</property>
    </properties>
  </session>

  <files>
    <file absolutePath="/Users/shimizu/Documents/classes/graduation-thesis/environmental-sounds/Brownnoise.ogg" id="0" importerPrivateSettings="ByteOrdering:0:0;Channels:0:2;EncodingType:0:96;FormatType:0:2097152;SampleRate:0:44100;StartOffset:0:0;VBRQuality:0:100;" mediaHandler="AmioLSF" relativePath="../../Brownnoise.ogg"/>
    <file absolutePath="/Users/shimizu/Documents/classes/graduation-thesis/environmental-sounds/Crowd_Talking.mp3" id="1" importerPrivateSettings="BitsPerSecond:0:320000;CompressionQuality:0:4;CompressionType:0:0;" mediaHandler="AmioMP3" relativePath="../../Crowd_Talking.mp3"/>
    <file absolutePath="/Users/shimizu/Documents/classes/graduation-thesis/environmental-sounds/others/Crosswalk-Signal01-1(Loop).mp3" id="2" importerPrivateSettings="BitsPerSecond:0:83866;CompressionQuality:0:4;CompressionType:0:1;" mediaHandler="AmioMP3" relativePath="../../others/Crosswalk-Signal01-1(Loop).mp3"/>
    <file absolutePath="/Users/shimizu/Documents/classes/graduation-thesis/environmental-sounds/bike-idling2.mp3" id="3" importerPrivateSettings="BitsPerSecond:0:192000;CompressionQuality:0:4;CompressionType:0:0;" mediaHandler="AmioMP3" relativePath="../../bike-idling2.mp3"/>
    <file absolutePath="/Users/shimizu/Documents/classes/graduation-thesis/environmental-sounds/car-idling1.mp3" id="4" importerPrivateSettings="BitsPerSecond:0:192000;CompressionQuality:0:4;CompressionType:0:0;" mediaHandler="AmioMP3" relativePath="../../car-idling1.mp3"/>
    <file absolutePath="/Users/shimizu/Documents/classes/graduation-thesis/environmental-sounds/displeasure/dump-truck-idling1.mp3" id="5" importerPrivateSettings="BitsPerSecond:0:193859;CompressionQuality:0:4;CompressionType:0:1;" mediaHandler="AmioMP3" relativePath="../../displeasure/dump-truck-idling1.mp3"/>
    <file absolutePath="/Users/shimizu/Documents/classes/graduation-thesis/environmental-sounds/displeasure/car-pass.mp3" id="6" importerPrivateSettings="BitsPerSecond:0:192000;CompressionQuality:0:4;CompressionType:0:0;" mediaHandler="AmioMP3" relativePath="../../displeasure/car-pass.mp3"/>
    <file absolutePath="/Users/shimizu/Documents/classes/graduation-thesis/environmental-sounds/bike-pass1 (1).mp3" id="7" importerPrivateSettings="BitsPerSecond:0:192000;CompressionQuality:0:4;CompressionType:0:0;" mediaHandler="AmioMP3" relativePath="../../bike-pass1 (1).mp3"/>
    <file absolutePath="/Users/shimizu/Documents/classes/graduation-thesis/environmental-sounds/bike-pass2.mp3" id="8" importerPrivateSettings="BitsPerSecond:0:192000;CompressionQuality:0:4;CompressionType:0:0;" mediaHandler="AmioMP3" relativePath="../../bike-pass2.mp3"/>
  </files>

  <audioDevice inputID="00000000-0000-0000-0000-00000000" outputID="AppleHDAEngineOutput:1F,3,0,1,1:0">
    <outputPort id="1" name="デフォルト出力"/>
    <outputPort id="2" name="[01M] 内蔵出力: ヘッドフォン 1"/>
    <outputPort id="3" name="[02M] 内蔵出力: ヘッドフォン 2"/>
    <outputPort id="4" name="デフォルトのステレオ出力"/>
    <outputPort id="5" name="[01S] 内蔵出力: ヘッドフォン 1"/>
    <outputPort id="6" name="デフォルトのサラウンド出力"/>
  </audioDevice>

</sesx>
